<svg width="360" height="540" viewBox="0 0 360 540" fill="none" xmlns="http://www.w3.org/2000/svg">
<path d="M329.556 0.5H30.4444C13.9066 0.5 0.5 13.9066 0.5 30.4445V509.556C0.5 526.093 13.9066 539.5 30.4444 539.5H329.556C346.093 539.5 359.5 526.093 359.5 509.556V30.4445C359.5 13.9066 346.093 0.5 329.556 0.5Z" fill="white" stroke="black"/>
<path d="M27.5 30L18.5 80H23.5L25.8438 67H34.1562L36.5 80H41.5L32.5 30H27.5ZM30 43.9062L33.25 62H26.75L30 43.9062Z" fill="#FF5555"/>
<path d="M327.5 510L318.5 460H323.5L325.844 473H334.156L336.5 460H341.5L332.5 510H327.5ZM330 496.094L333.25 478H326.75L330 496.094Z" fill="#FF5555"/>
<path d="M179 243C179 231.954 173.284 225 165 225C156.716 225 150 233.954 150 245C150.035 245.956 150.018 246.891 150 247.812C150 255.111 152.677 262.189 155 268.812C157.389 275.623 160.834 281.593 164.062 287.688C169.064 297.127 180 315 180 315C180 315 190.936 297.127 195.938 287.688C199.166 281.593 202.611 275.623 205 268.812C207.323 262.189 210 255.111 210 247.812C209.972 246.838 209.981 245.898 210 245C210 233.954 203.284 225 195 225C186.716 225 181 231.954 181 243C181 245 179 245 179 243Z" fill="#FF5555"/>
<path d="M29.5 99C29.5 93.4771 26.6421 90 22.5 90C18.3579 90 15 94.4771 15 100C15.0174 100.478 15.0091 100.946 15 101.406C15 105.055 16.3384 108.595 17.5 111.906C18.6945 115.312 20.4168 118.297 22.0312 121.344C24.5319 126.063 30 135 30 135C30 135 35.4681 126.063 37.9688 121.344C39.5832 118.297 41.3055 115.312 42.5 111.906C43.6616 108.595 45 105.055 45 101.406C44.9858 100.919 44.9907 100.449 45 100C45 94.4771 41.6421 90 37.5 90C33.3579 90 30.5 93.4771 30.5 99C30.5 100 29.5 100 29.5 99Z" fill="#FF5555"/>
<path d="M329.5 441C329.5 446.523 326.642 450 322.5 450C318.358 450 315 445.523 315 440C315.017 439.522 315.009 439.054 315 438.594C315 434.945 316.338 431.405 317.5 428.094C318.695 424.688 320.417 421.703 322.031 418.656C324.532 413.937 330 405 330 405C330 405 335.468 413.937 337.969 418.656C339.583 421.703 341.305 424.688 342.5 428.094C343.662 431.405 345 434.945 345 438.594C344.986 439.081 344.991 439.551 345 440C345 445.523 341.642 450 337.5 450C333.358 450 330.5 446.523 330.5 441C330.5 440 329.5 440 329.5 441Z" fill="#FF5555"/>
</svg>
