<svg width="360" height="540" viewBox="0 0 360 540" fill="none" xmlns="http://www.w3.org/2000/svg">
<path d="M329.556 0.5H30.4444C13.9066 0.5 0.5 13.9066 0.5 30.4445V509.556C0.5 526.093 13.9066 539.5 30.4444 539.5H329.556C346.093 539.5 359.5 526.093 359.5 509.556V30.4445C359.5 13.9066 346.093 0.5 329.556 0.5Z" fill="white" stroke="black"/>
<path d="M180 225C180 225 186 240 193 250C200 260 210 270 210 270C210 270 200 280 193 290C186 300 180 315 180 315C180 315 174 300 167 290C160 280 150 270 150 270C150 270 160 260 167 250C174 240 180 225 180 225Z" fill="#FF5555"/>
<path d="M27.5 30L18.5 80H23.5L25.8438 67H34.1562L36.5 80H41.5L32.5 30H27.5ZM30 43.9062L33.25 62H26.75L30 43.9062Z" fill="#FF5555"/>
<path d="M327.5 510L318.5 460H323.5L325.844 473H334.156L336.5 460H341.5L332.5 510H327.5ZM330 496.094L333.25 478H326.75L330 496.094Z" fill="#FF5555"/>
<path d="M30 90C30 90 33 97.5 36.5 102.5C40 107.5 45 112.5 45 112.5C45 112.5 40 117.5 36.5 122.5C33 127.5 30 135 30 135C30 135 27 127.5 23.5 122.5C20 117.5 15 112.5 15 112.5C15 112.5 20 107.5 23.5 102.5C27 97.5 30 90 30 90Z" fill="#FF5555"/>
<path d="M330 405C330 405 333 412.5 336.5 417.5C340 422.5 345 427.5 345 427.5C345 427.5 340 432.5 336.5 437.5C333 442.5 330 450 330 450C330 450 327 442.5 323.5 437.5C320 432.5 315 427.5 315 427.5C315 427.5 320 422.5 323.5 417.5C327 412.5 330 405 330 405Z" fill="#FF5555"/>
</svg>
