<svg width="360" height="540" viewBox="0 0 360 540" fill="none" xmlns="http://www.w3.org/2000/svg">
<path d="M329.556 0.5H30.4444C13.9066 0.5 0.5 13.9066 0.5 30.4445V509.556C0.5 526.093 13.9066 539.5 30.4444 539.5H329.556C346.093 539.5 359.5 526.093 359.5 509.556V30.4445C359.5 13.9066 346.093 0.5 329.556 0.5Z" fill="white" stroke="black"/>
<path d="M27.5 30L18.5 80H23.5L25.8438 67H34.1562L36.5 80H41.5L32.5 30H27.5ZM30 43.9062L33.25 62H26.75L30 43.9062Z" fill="black"/>
<path d="M327.5 510L318.5 460H323.5L325.844 473H334.156L336.5 460H341.5L332.5 510H327.5ZM330 496.094L333.25 478H326.75L330 496.094Z" fill="black"/>
<path d="M185 281C186 285 190 295 197 295C206 295 210 287 210 277C210 270 207.421 265.388 205 260C202.422 254.263 198.621 249.143 195 244C190.355 237.402 180 225 180 225C180 225 169.645 237.402 165 244C161.379 249.143 157.578 254.263 155 260C152.579 265.388 150 270 150 277C150 287 154 295 163 295C170 295 174 285 175 281C176 280 176 281 176 282C175 290 175 292 174 298C173 304 170 315 170 315C175 313 185 313 190 315C190 315 187 304 186 298C185 292 185 290 184 282C184 281 184 280 185 281Z" fill="black"/>
<path d="M32.5 118C33 120 35 125 38.5 125C43 125 45 121 45 116C45 112.5 43.7105 110.194 42.5 107.5C41.2111 104.632 39.3103 102.071 37.5 99.5C35.1774 96.2011 30 90 30 90C30 90 24.8226 96.2011 22.5 99.5C20.6897 102.071 18.7889 104.632 17.5 107.5C16.2895 110.194 15 112.5 15 116C15 121 17 125 21.5 125C25 125 27 120 27.5 118C28 117.5 28 118 28 118.5C27.5 122.5 27.5 123.5 27 126.5C26.5 129.5 25 135 25 135C27.5 134 32.5 134 35 135C35 135 33.5 129.5 33 126.5C32.5 123.5 32.5 122.5 32 118.5C32 118 32 117.5 32.5 118Z" fill="black"/>
<path d="M332.5 422C333 420 335 415 338.5 415C343 415 345 419 345 424C345 427.5 343.711 429.806 342.5 432.5C341.211 435.368 339.31 437.929 337.5 440.5C335.177 443.799 330 450 330 450C330 450 324.823 443.799 322.5 440.5C320.69 437.929 318.789 435.368 317.5 432.5C316.289 429.806 315 427.5 315 424C315 419 317 415 321.5 415C325 415 327 420 327.5 422C328 422.5 328 422 328 421.5C327.5 417.5 327.5 416.5 327 413.5C326.5 410.5 325 405 325 405C327.5 406 332.5 406 335 405C335 405 333.5 410.5 333 413.5C332.5 416.5 332.5 417.5 332 421.5C332 422 332 422.5 332.5 422Z" fill="black"/>
</svg>
