<svg width="360" height="540" viewBox="0 0 360 540" fill="none" xmlns="http://www.w3.org/2000/svg">
<path d="M329.556 0.5H30.4444C13.9066 0.5 0.5 13.9066 0.5 30.4445V509.556C0.5 526.093 13.9066 539.5 30.4444 539.5H329.556C346.093 539.5 359.5 526.093 359.5 509.556V30.4445C359.5 13.9066 346.093 0.5 329.556 0.5Z" fill="white" stroke="black"/>
<path d="M27.5 30L18.5 80H23.5L25.8438 67H34.1562L36.5 80H41.5L32.5 30H27.5ZM30 43.9062L33.25 62H26.75L30 43.9062Z" fill="black"/>
<path d="M327.5 510L318.5 460H323.5L325.844 473H334.156L336.5 460H341.5L332.5 510H327.5ZM330 496.094L333.25 478H326.75L330 496.094Z" fill="black"/>
<path d="M185 281C187 285 192 291 197 291C206 291 210 283 210 273C210 263 206 254 197 254C192 254 189 259 186 262C185 263 184 262 185 261C188 258 193 250 193 243C193 235 188 225 180 225C172 225 167 235 167 243C167 250 172 258 175 261C176 262 175 263 174 262C171 259 168 254 163 254C154 254 150 263 150 273C150 283 154 291 163 291C168 291 173 285 175 281C176 280 176 281 176 282C175 290 175 292 174 298C173 304 170 315 170 315C175 313 185 313 190 315C190 315 187 304 186 298C185 292 185 290 184 282C184 281 184 280 185 281Z" fill="black"/>
<path d="M32.5 118C33.5 120 36 123 38.5 123C43 123 45 119 45 114C45 109 43 104.5 38.5 104.5C36 104.5 34.5 107 33 108.5C32.5 109 32 108.5 32.5 108C34 106.5 36.5 102.5 36.5 99C36.5 95 34 90 30 90C26 90 23.5 95 23.5 99C23.5 102.5 26 106.5 27.5 108C28 108.5 27.5 109 27 108.5C25.5 107 24 104.5 21.5 104.5C17 104.5 15 109 15 114C15 119 17 123 21.5 123C24 123 26.5 120 27.5 118C28 117.5 28 118 28 118.5C27.5 122.5 27.5 123.5 27 126.5C26.5 129.5 25 135 25 135C27.5 134 32.5 134 35 135C35 135 33.5 129.5 33 126.5C32.5 123.5 32.5 122.5 32 118.5C32 118 32 117.5 32.5 118Z" fill="black"/>
<path d="M332.5 422C333.5 420 336 417 338.5 417C343 417 345 421 345 426C345 431 343 435.5 338.5 435.5C336 435.5 334.5 433 333 431.5C332.5 431 332 431.5 332.5 432C334 433.5 336.5 437.5 336.5 441C336.5 445 334 450 330 450C326 450 323.5 445 323.5 441C323.5 437.5 326 433.5 327.5 432C328 431.5 327.5 431 327 431.5C325.5 433 324 435.5 321.5 435.5C317 435.5 315 431 315 426C315 421 317 417 321.5 417C324 417 326.5 420 327.5 422C328 422.5 328 422 328 421.5C327.5 417.5 327.5 416.5 327 413.5C326.5 410.5 325 405 325 405C327.5 406 332.5 406 335 405C335 405 333.5 410.5 333 413.5C332.5 416.5 332.5 417.5 332 421.5C332 422 332 422.5 332.5 422Z" fill="black"/>
</svg>
