<svg width="360" height="540" viewBox="0 0 360 540" fill="none" xmlns="http://www.w3.org/2000/svg">
<path d="M329.556 0.5H30.4444C13.9066 0.5 0.5 13.9066 0.5 30.4445V509.556C0.5 526.093 13.9066 539.5 30.4444 539.5H329.556C346.093 539.5 359.5 526.093 359.5 509.556V30.4445C359.5 13.9066 346.093 0.5 329.556 0.5Z" fill="white" stroke="black"/>
<path d="M15 30L10 37V44L15 37V80H20V30H15Z" fill="#FF5555"/>
<path d="M35 30C29.46 30 25 34.46 25 40V70C25 75.54 29.46 80 35 80C40.54 80 45 75.54 45 70V40C45 34.46 40.54 30 35 30ZM35 35C37.77 35 40 37.23 40 40V70C40 72.77 37.77 75 35 75C32.23 75 30 72.77 30 70V40C30 37.23 32.23 35 35 35Z" fill="#FF5555"/>
<path d="M345 510L350 503V496L345 503V460H340V510H345Z" fill="#FF5555"/>
<path d="M325 510C330.54 510 335 505.54 335 500V470C335 464.46 330.54 460 325 460C319.46 460 315 464.46 315 470V500C315 505.54 319.46 510 325 510ZM325 505C322.23 505 320 502.77 320 500V470C320 467.23 322.23 465 325 465C327.77 465 330 467.23 330 470V500C330 502.77 327.77 505 325 505Z" fill="#FF5555"/>
<path d="M90 45C90 45 96 60 103 70C110 80 120 90 120 90C120 90 110 100 103 110C96 120 90 135 90 135C90 135 84 120 77 110C70 100 60 90 60 90C60 90 70 80 77 70C84 60 90 45 90 45Z" fill="#FF5555"/>
<path d="M270 45C270 45 276 60 283 70C290 80 300 90 300 90C300 90 290 100 283 110C276 120 270 135 270 135C270 135 264 120 257 110C250 100 240 90 240 90C240 90 250 80 257 70C264 60 270 45 270 45Z" fill="#FF5555"/>
<path d="M180 105C180 105 186 120 193 130C200 140 210 150 210 150C210 150 200 160 193 170C186 180 180 195 180 195C180 195 174 180 167 170C160 160 150 150 150 150C150 150 160 140 167 130C174 120 180 105 180 105Z" fill="#FF5555"/>
<path d="M90 165C90 165 96 180 103 190C110 200 120 210 120 210C120 210 110 220 103 230C96 240 90 255 90 255C90 255 84 240 77 230C70 220 60 210 60 210C60 210 70 200 77 190C84 180 90 165 90 165Z" fill="#FF5555"/>
<path d="M270 165C270 165 276 180 283 190C290 200 300 210 300 210C300 210 290 220 283 230C276 240 270 255 270 255C270 255 264 240 257 230C250 220 240 210 240 210C240 210 250 200 257 190C264 180 270 165 270 165Z" fill="#FF5555"/>
<path d="M90 285C90 285 96 300 103 310C110 320 120 330 120 330C120 330 110 340 103 350C96 360 90 375 90 375C90 375 84 360 77 350C70 340 60 330 60 330C60 330 70 320 77 310C84 300 90 285 90 285Z" fill="#FF5555"/>
<path d="M270 285C270 285 276 300 283 310C290 320 300 330 300 330C300 330 290 340 283 350C276 360 270 375 270 375C270 375 264 360 257 350C250 340 240 330 240 330C240 330 250 320 257 310C264 300 270 285 270 285Z" fill="#FF5555"/>
<path d="M180 345C180 345 186 360 193 370C200 380 210 390 210 390C210 390 200 400 193 410C186 420 180 435 180 435C180 435 174 420 167 410C160 400 150 390 150 390C150 390 160 380 167 370C174 360 180 345 180 345Z" fill="#FF5555"/>
<path d="M90 405C90 405 96 420 103 430C110 440 120 450 120 450C120 450 110 460 103 470C96 480 90 495 90 495C90 495 84 480 77 470C70 460 60 450 60 450C60 450 70 440 77 430C84 420 90 405 90 405Z" fill="#FF5555"/>
<path d="M270 405C270 405 276 420 283 430C290 440 300 450 300 450C300 450 290 460 283 470C276 480 270 495 270 495C270 495 264 480 257 470C250 460 240 450 240 450C240 450 250 440 257 430C264 420 270 405 270 405Z" fill="#FF5555"/>
<path d="M30 90C30 90 33 97.5 36.5 102.5C40 107.5 45 112.5 45 112.5C45 112.5 40 117.5 36.5 122.5C33 127.5 30 135 30 135C30 135 27 127.5 23.5 122.5C20 117.5 15 112.5 15 112.5C15 112.5 20 107.5 23.5 102.5C27 97.5 30 90 30 90Z" fill="#FF5555"/>
<path d="M330 405C330 405 333 412.5 336.5 417.5C340 422.5 345 427.5 345 427.5C345 427.5 340 432.5 336.5 437.5C333 442.5 330 450 330 450C330 450 327 442.5 323.5 437.5C320 432.5 315 427.5 315 427.5C315 427.5 320 422.5 323.5 417.5C327 412.5 330 405 330 405Z" fill="#FF5555"/>
</svg>
