<svg width="360" height="540" viewBox="0 0 360 540" fill="none" xmlns="http://www.w3.org/2000/svg">
<path d="M329.556 0.5H30.4444C13.9066 0.5 0.5 13.9066 0.5 30.4445V509.556C0.5 526.093 13.9066 539.5 30.4444 539.5H329.556C346.093 539.5 359.5 526.093 359.5 509.556V30.4445C359.5 13.9066 346.093 0.5 329.556 0.5Z" fill="white" stroke="black"/>
<path d="M15 30L10 37V44L15 37V80H20V30H15Z" fill="black"/>
<path d="M35 30C29.46 30 25 34.46 25 40V70C25 75.54 29.46 80 35 80C40.54 80 45 75.54 45 70V40C45 34.46 40.54 30 35 30ZM35 35C37.77 35 40 37.23 40 40V70C40 72.77 37.77 75 35 75C32.23 75 30 72.77 30 70V40C30 37.23 32.23 35 35 35Z" fill="black"/>
<path d="M345 510L350 503V496L345 503V460H340V510H345Z" fill="black"/>
<path d="M325 510C330.54 510 335 505.54 335 500V470C335 464.46 330.54 460 325 460C319.46 460 315 464.46 315 470V500C315 505.54 319.46 510 325 510ZM325 505C322.23 505 320 502.77 320 500V470C320 467.23 322.23 465 325 465C327.77 465 330 467.23 330 470V500C330 502.77 327.77 505 325 505Z" fill="black"/>
<path d="M32.5 118C33.5 120 36 123 38.5 123C43 123 45 119 45 114C45 109 43 104.5 38.5 104.5C36 104.5 34.5 107 33 108.5C32.5 109 32 108.5 32.5 108C34 106.5 36.5 102.5 36.5 99C36.5 95 34 90 30 90C26 90 23.5 95 23.5 99C23.5 102.5 26 106.5 27.5 108C28 108.5 27.5 109 27 108.5C25.5 107 24 104.5 21.5 104.5C17 104.5 15 109 15 114C15 119 17 123 21.5 123C24 123 26.5 120 27.5 118C28 117.5 28 118 28 118.5C27.5 122.5 27.5 123.5 27 126.5C26.5 129.5 25 135 25 135C27.5 134 32.5 134 35 135C35 135 33.5 129.5 33 126.5C32.5 123.5 32.5 122.5 32 118.5C32 118 32 117.5 32.5 118Z" fill="black"/>
<path d="M332.5 422C333.5 420 336 417 338.5 417C343 417 345 421 345 426C345 431 343 435.5 338.5 435.5C336 435.5 334.5 433 333 431.5C332.5 431 332 431.5 332.5 432C334 433.5 336.5 437.5 336.5 441C336.5 445 334 450 330 450C326 450 323.5 445 323.5 441C323.5 437.5 326 433.5 327.5 432C328 431.5 327.5 431 327 431.5C325.5 433 324 435.5 321.5 435.5C317 435.5 315 431 315 426C315 421 317 417 321.5 417C324 417 326.5 420 327.5 422C328 422.5 328 422 328 421.5C327.5 417.5 327.5 416.5 327 413.5C326.5 410.5 325 405 325 405C327.5 406 332.5 406 335 405C335 405 333.5 410.5 333 413.5C332.5 416.5 332.5 417.5 332 421.5C332 422 332 422.5 332.5 422Z" fill="black"/>
<path d="M95 101C97 105 102 111 107 111C116 111 120 103 120 93C120 83 116 74 107 74C102 74 99 79 96 82C95 83 94 82 95 81C98 78 103 70 103 63C103 55 98 45 90 45C82 45 77 55 77 63C77 70 82 78 85 81C86 82 85 83 84 82C81 79 78 74 73 74C64 74 60 83 60 93C60 103 64 111 73 111C78 111 83 105 85 101C86 100 86 101 86 102C85 110 85 112 84 118C83 124 80 135 80 135C85 133 95 133 100 135C100 135 97 124 96 118C95 112 95 110 94 102C94 101 94 100 95 101Z" fill="black"/>
<path d="M275 101C277 105 282 111 287 111C296 111 300 103 300 93C300 83 296 74 287 74C282 74 279 79 276 82C275 83 274 82 275 81C278 78 283 70 283 63C283 55 278 45 270 45C262 45 257 55 257 63C257 70 262 78 265 81C266 82 265 83 264 82C261 79 258 74 253 74C244 74 240 83 240 93C240 103 244 111 253 111C258 111 263 105 265 101C266 100 266 101 266 102C265 110 265 112 264 118C263 124 260 135 260 135C265 133 275 133 280 135C280 135 277 124 276 118C275 112 275 110 274 102C274 101 274 100 275 101Z" fill="black"/>
<path d="M185 161C187 165 192 171 197 171C206 171 210 163 210 153C210 143 206 134 197 134C192 134 189 139 186 142C185 143 184 142 185 141C188 138 193 130 193 123C193 115 188 105 180 105C172 105 167 115 167 123C167 130 172 138 175 141C176 142 175 143 174 142C171 139 168 134 163 134C154 134 150 143 150 153C150 163 154 171 163 171C168 171 173 165 175 161C176 160 176 161 176 162C175 170 175 172 174 178C173 184 170 195 170 195C175 193 185 193 190 195C190 195 187 184 186 178C185 172 185 170 184 162C184 161 184 160 185 161Z" fill="black"/>
<path d="M95 221C97 225 102 231 107 231C116 231 120 223 120 213C120 203 116 194 107 194C102 194 99 199 96 202C95 203 94 202 95 201C98 198 103 190 103 183C103 175 98 165 90 165C82 165 77 175 77 183C77 190 82 198 85 201C86 202 85 203 84 202C81 199 78 194 73 194C64 194 60 203 60 213C60 223 64 231 73 231C78 231 83 225 85 221C86 220 86 221 86 222C85 230 85 232 84 238C83 244 80 255 80 255C85 253 95 253 100 255C100 255 97 244 96 238C95 232 95 230 94 222C94 221 94 220 95 221Z" fill="black"/>
<path d="M275 221C277 225 282 231 287 231C296 231 300 223 300 213C300 203 296 194 287 194C282 194 279 199 276 202C275 203 274 202 275 201C278 198 283 190 283 183C283 175 278 165 270 165C262 165 257 175 257 183C257 190 262 198 265 201C266 202 265 203 264 202C261 199 258 194 253 194C244 194 240 203 240 213C240 223 244 231 253 231C258 231 263 225 265 221C266 220 266 221 266 222C265 230 265 232 264 238C263 244 260 255 260 255C265 253 275 253 280 255C280 255 277 244 276 238C275 232 275 230 274 222C274 221 274 220 275 221Z" fill="black"/>
<path d="M95 319C97 315 102 309 107 309C116 309 120 317 120 327C120 337 116 346 107 346C102 346 99 341 96 338C95 337 94 338 95 339C98 342 103 350 103 357C103 365 98 375 90 375C82 375 77 365 77 357C77 350 82 342 85 339C86 338 85 337 84 338C81 341 78 346 73 346C64 346 60 337 60 327C60 317 64 309 73 309C78 309 83 315 85 319C86 320 86 319 86 318C85 310 85 308 84 302C83 296 80 285 80 285C85 287 95 287 100 285C100 285 97 296 96 302C95 308 95 310 94 318C94 319 94 320 95 319Z" fill="black"/>
<path d="M275 319C277 315 282 309 287 309C296 309 300 317 300 327C300 337 296 346 287 346C282 346 279 341 276 338C275 337 274 338 275 339C278 342 283 350 283 357C283 365 278 375 270 375C262 375 257 365 257 357C257 350 262 342 265 339C266 338 265 337 264 338C261 341 258 346 253 346C244 346 240 337 240 327C240 317 244 309 253 309C258 309 263 315 265 319C266 320 266 319 266 318C265 310 265 308 264 302C263 296 260 285 260 285C265 287 275 287 280 285C280 285 277 296 276 302C275 308 275 310 274 318C274 319 274 320 275 319Z" fill="black"/>
<path d="M185 379C187 375 192 369 197 369C206 369 210 377 210 387C210 397 206 406 197 406C192 406 189 401 186 398C185 397 184 398 185 399C188 402 193 410 193 417C193 425 188 435 180 435C172 435 167 425 167 417C167 410 172 402 175 399C176 398 175 397 174 398C171 401 168 406 163 406C154 406 150 397 150 387C150 377 154 369 163 369C168 369 173 375 175 379C176 380 176 379 176 378C175 370 175 368 174 362C173 356 170 345 170 345C175 347 185 347 190 345C190 345 187 356 186 362C185 368 185 370 184 378C184 379 184 380 185 379Z" fill="black"/>
<path d="M95 439C97 435 102 429 107 429C116 429 120 437 120 447C120 457 116 466 107 466C102 466 99 461 96 458C95 457 94 458 95 459C98 462 103 470 103 477C103 485 98 495 90 495C82 495 77 485 77 477C77 470 82 462 85 459C86 458 85 457 84 458C81 461 78 466 73 466C64 466 60 457 60 447C60 437 64 429 73 429C78 429 83 435 85 439C86 440 86 439 86 438C85 430 85 428 84 422C83 416 80 405 80 405C85 407 95 407 100 405C100 405 97 416 96 422C95 428 95 430 94 438C94 439 94 440 95 439Z" fill="black"/>
<path d="M275 439C277 435 282 429 287 429C296 429 300 437 300 447C300 457 296 466 287 466C282 466 279 461 276 458C275 457 274 458 275 459C278 462 283 470 283 477C283 485 278 495 270 495C262 495 257 485 257 477C257 470 262 462 265 459C266 458 265 457 264 458C261 461 258 466 253 466C244 466 240 457 240 447C240 437 244 429 253 429C258 429 263 435 265 439C266 440 266 439 266 438C265 430 265 428 264 422C263 416 260 405 260 405C265 407 275 407 280 405C280 405 277 416 276 422C275 428 275 430 274 438C274 439 274 440 275 439Z" fill="black"/>
</svg>
