<svg width="360" height="540" viewBox="0 0 360 540" fill="none" xmlns="http://www.w3.org/2000/svg">
<path d="M329.556 0.5H30.4444C13.9066 0.5 0.5 13.9066 0.5 30.4445V509.556C0.5 526.093 13.9066 539.5 30.4444 539.5H329.556C346.093 539.5 359.5 526.093 359.5 509.556V30.4445C359.5 13.9066 346.093 0.5 329.556 0.5Z" fill="white" stroke="black"/>
<path d="M30 30C24.4772 30 20 34.4771 20 40V70C20 75.5229 24.4772 80 30 80C30.4337 80 30.8621 79.9598 31.2812 79.9063C32.9941 82.9558 36.2534 85.0001 40 85.0001V80.0001C38.3604 80.0001 36.9118 79.1881 36 77.9688C38.4244 76.144 40 73.2682 40 70.0001V40.0001C40 34.4772 35.5228 30.0001 30 30.0001V30ZM30 35C32.7614 35 35 37.2386 35 40V70C35 70.7157 34.8334 71.3844 34.5625 72C33.2878 67.9436 29.4772 65 25 65V40C25 37.2386 27.2386 35 30 35ZM25 70C27.7614 70 30 72.2386 30 75C27.2386 75 25 72.7614 25 70Z" fill="#FF5555"/>
<path d="M330 509.999C335.523 509.999 340 505.522 340 499.999V469.999C340 464.477 335.523 459.999 330 459.999C329.566 459.999 329.138 460.039 328.719 460.093C327.006 457.044 323.747 455 320 455V460C321.64 460 323.088 460.812 324 462.031C321.576 463.856 320 466.732 320 470V500C320 505.522 324.477 510 330 510V509.999ZM330 504.999C327.239 504.999 325 502.761 325 499.999V469.999C325 469.284 325.167 468.615 325.438 467.999C326.712 472.056 330.523 474.999 335 474.999V499.999C335 502.761 332.761 504.999 330 504.999ZM335 469.999C332.239 469.999 330 467.761 330 464.999C332.761 464.999 335 467.238 335 469.999Z" fill="#FF5555"/>
<path d="M60 30H330V390" stroke="#5555AA" stroke-width="2"/>
<path d="M30 150V510H300" stroke="#5555AA" stroke-width="2"/>
<path d="M145.061 197.625L147.011 190.021C147.011 190.021 155.634 193.288 160.074 194.505C165.323 195.944 170.701 196.882 176.062 197.82C179.231 198.374 182.409 198.924 185.616 199.185C192.095 199.71 198.614 199.702 205.113 199.574C211.688 199.445 218.255 198.984 224.806 198.405C228.13 198.111 231.446 197.713 234.749 197.235C238.535 196.686 246.058 195.285 246.058 195.285L233.189 207.763L209.013 207.958L196.534 239.154L215.642 240.519L211.937 261.576C211.937 261.576 197.231 260.896 189.905 260.212C183.123 259.578 176.361 258.709 169.628 257.677C165.318 257.016 161.057 256.072 156.759 255.337C153.516 254.783 147.011 253.777 147.011 253.777C147.011 253.777 144.33 246.808 142.721 243.444C140.2 238.17 134.337 228.041 134.337 228.041L152.08 232.33L161.829 203.279L145.061 197.625Z" fill="black"/>
<path d="M121.023 177.623C121.023 177.623 129.486 183.139 133.997 185.386C138.208 187.484 147.078 190.689 147.078 190.689L135.411 228.166C135.411 228.166 128.905 218.938 125.158 214.731C121.658 210.802 117.746 207.249 113.798 203.771C110.41 200.786 103.238 195.285 103.238 195.285L121.023 177.623Z" fill="#5555AA"/>
<path d="M123.39 244.429C123.39 244.429 127.858 257.925 128.693 264.935C129.572 272.309 129.608 279.893 128.34 287.209C127.213 293.709 124.759 299.967 121.976 305.948C119.477 311.317 116.623 316.642 112.784 321.15C109.476 325.033 105.266 328.085 101.116 331.05C95.8705 334.799 84.4993 340.949 84.4993 340.949L80.9637 337.767C80.9637 337.767 82.3222 323.535 83.7922 316.554C85.36 309.109 87.4357 301.739 90.1561 294.634C92.6816 288.038 96.023 281.773 99.3485 275.542C102.632 269.39 105.651 262.997 109.955 257.511C113.813 252.593 123.39 244.429 123.39 244.429V244.429Z" fill="#5555AA"/>
<path d="M117.026 251.147C117.026 251.147 121.277 263.941 121.622 270.592C122.004 277.95 120.788 285.42 118.794 292.513C116.838 299.47 113.961 306.296 109.955 312.312C106.905 316.892 102.871 320.813 98.6413 324.332C93.7918 328.368 82.7314 334.585 82.7314 334.585C82.7314 334.585 84.2299 319.911 85.5599 312.665C86.5661 307.183 87.6209 301.667 89.449 296.402C91.749 289.777 95.0395 283.525 98.2878 277.31C100.881 272.348 103.496 267.354 106.773 262.814C109.804 258.616 117.026 251.147 117.026 251.147V251.147Z" fill="#FF5555"/>
<path d="M47.7649 225.638L41.9615 238.63C41.9615 238.63 42.793 242.859 44.4972 243.614C45.5238 244.069 46.8187 243.487 47.7472 242.728C48.9341 241.757 50.2472 238.418 50.2472 238.418L55.2076 227.981" fill="#FFFF55"/>
<path d="M47.7649 225.638L41.9615 238.63C41.9615 238.63 42.793 242.859 44.4972 243.614C45.5238 244.069 46.8187 243.487 47.7472 242.728C48.9341 241.757 50.2472 238.418 50.2472 238.418L55.2076 227.981" stroke="#5555AA" stroke-width="1.78661" stroke-linecap="round" stroke-linejoin="round"/>
<path d="M42.9491 238.259C42.9491 238.259 45.4325 237.251 46.7472 237.165C47.7998 237.096 49.8759 237.64 49.8759 237.64" stroke="#5555AA" stroke-width="1.78661" stroke-linecap="round" stroke-linejoin="round"/>
<path d="M166.208 65.7819C166.208 65.7819 152.426 79.8282 147.129 88.0397C141.585 96.6334 137.426 106.15 134.138 115.834C131.286 124.232 129.782 133.055 128.398 141.816C127.577 147.012 127.297 152.281 126.887 157.526C126.495 162.555 125.981 172.631 125.981 172.631L170.996 130.94C170.996 130.94 168.28 121.767 167.672 117.042C167.068 112.347 167.421 107.577 167.37 102.843C167.303 96.4992 167.575 90.1512 167.37 83.8101C167.177 77.7913 166.208 65.7819 166.208 65.7819V65.7819Z" fill="black"/>
<path d="M299.778 174.369C294.711 176.961 287.712 180.444 281.531 183.162C275.698 185.727 269.817 188.221 263.775 190.246C258.692 191.949 253.467 193.2 248.264 194.489C243.442 195.683 238.628 196.978 233.716 197.723C228.637 198.493 223.479 198.612 218.356 198.989C214.236 199.293 210.119 199.714 205.988 199.792C200.985 199.886 195.977 199.674 190.982 199.386C186.393 199.122 181.787 198.887 177.246 198.175C172.127 197.372 167.099 196.053 162.089 194.737C157.772 193.604 153.505 192.285 149.262 190.901C144.61 189.383 139.91 187.953 135.421 186.003C130.158 183.717 123.682 179.829 120.146 178.061L165.438 136.012C165.438 136.012 168.18 136.521 169.542 136.819C172.131 137.385 171.989 137.766 177.272 138.677C179.767 139.715 181.437 142.248 183.917 143.322C186.94 144.63 190.294 145.36 193.587 145.352C199.877 145.338 207.454 143.655 212.035 141.391C214.418 141.389 216.52 140.991 218.762 140.775C221.872 140.475 224.992 140.252 228.087 139.829C231.413 139.374 234.777 139.017 238.011 138.118C240.777 137.35 243.402 136.134 246.037 134.994C248.928 133.743 254.565 130.923 254.565 130.923C258.547 137.562 263.603 146.426 272.157 154.528C276.434 158.579 281.433 164.266 285.707 167.511C289.982 170.756 296.778 172.778 299.778 174.369V174.369Z" fill="#FFFF58"/>
<path d="M167.193 103.658C167.193 103.658 161.098 113.391 158.609 118.553C156.822 122.259 155.222 126.082 154.077 130.033C153.175 133.147 152.563 136.36 152.26 139.588C152.002 142.332 152.265 147.858 152.265 147.858L171.298 130.94C171.298 130.94 168.654 122.367 167.975 117.949C167.25 113.233 167.193 103.658 167.193 103.658H167.193Z" fill="#FF5555"/>
<path d="M224 30L289.5 114.167L297.333 112.5L238 30H224Z" fill="black"/>
<path d="M307 30C305.328 39.8989 304.657 49.9667 305 60C305.348 70.168 306.751 80.3586 310 90C312.388 97.0861 315.764 103.838 320 110C316.671 109.78 313.329 109.78 310 110C305.62 110.289 301.265 110.959 297 112L238 30H307Z" fill="#FFFF55" stroke="#5555AA" stroke-width="2" stroke-linecap="round" stroke-linejoin="round"/>
<path d="M273.592 55.4703C273.988 56.4611 274.444 57.4523 275.11 58.28C275.99 59.3717 276.954 60.5926 278.302 61.0224C279.997 61.5626 282.294 61.7472 283.693 60.5722C285.056 59.427 285.483 57.1382 285.039 55.4666C284.527 53.5374 280.812 51.2831 280.812 51.2831C280.812 51.2831 285.54 49.7028 286.368 47.6705C287.145 45.7622 286.334 43.2176 284.928 41.7916C283.541 40.3848 281 39.4504 279.132 40.2728C277.034 41.1961 275.832 46.296 275.832 46.296C275.832 46.296 274.994 42.5429 273.781 41.1667C272.704 39.9445 271.154 38.75 269.491 38.7863C268.016 38.8185 266.314 39.7436 265.624 41.0654C264.539 43.1456 265.013 46.033 266.249 47.9439C267.489 49.8592 272.247 51.286 272.247 51.286C272.247 51.286 270.972 48.5827 273.229 47.0231C275.033 45.7765 278.275 47.2614 279.276 49.1307C280.123 50.713 279.676 53.7506 277.975 54.4787C274.581 55.9316 272.857 52.7568 272.857 52.7568C272.857 52.7568 273.246 54.6024 273.592 55.4703V55.4703Z" fill="black" stroke="#000100" stroke-width="2" stroke-linecap="round" stroke-linejoin="round"/>
<path d="M293.168 82.7082C293.521 83.6043 293.928 84.5007 294.523 85.2493C295.307 86.2366 296.168 87.3407 297.37 87.7294C298.883 88.218 300.932 88.3849 302.18 87.3222C303.397 86.2866 303.777 84.2166 303.382 82.7049C302.925 80.9601 299.61 78.9214 299.61 78.9214C299.61 78.9214 303.317 77.0944 303.9 75.3209C304.47 73.5889 303.911 71.2868 302.616 70.0041C301.52 68.9199 299.515 68.3296 298.111 68.9639C296.23 69.8133 295.166 74.4111 295.166 74.4111C295.166 74.4111 294.419 71.0169 293.337 69.7723C292.376 68.667 290.992 67.5867 289.509 67.6195C288.193 67.6486 286.674 68.4853 286.059 69.6807C285.091 71.562 285.513 74.1733 286.617 75.9015C287.723 77.6337 291.968 78.9241 291.968 78.9241C291.968 78.9241 290.831 76.4792 292.844 75.0687C294.454 73.9413 297.347 75.2842 298.239 76.9748C298.995 78.4058 298.597 81.153 297.079 81.8115C294.05 83.1254 292.512 80.2541 292.512 80.2541C292.512 80.2541 292.859 81.9233 293.168 82.7082V82.7082Z" fill="black" stroke="#000100" stroke-width="2" stroke-linecap="round" stroke-linejoin="round"/>
<path d="M247.333 31.6667C247.333 31.6667 247.921 42.8942 252.833 48.5C257.556 53.8889 263.111 54.1111 268 53.6667C268 53.6667 265.7 66.8064 270 72.1667C274.664 77.9808 290 82.5 290 82.5C290 82.5 286.42 92.5473 291.333 99.5C294.054 103.35 303.167 109 303.167 109" stroke="black" stroke-width="2" stroke-linecap="round" stroke-linejoin="round"/>
<path d="M252.094 30.6378C251.404 30.6398 250.754 31.1793 250.625 31.8566C250.625 31.8566 248.802 40.1899 254.687 46.0753C255.598 46.9857 256.905 47.7687 258.5 48.6378C260.095 49.5069 261.937 50.3978 263.687 51.2003C266.742 52.6006 268.837 53.4 269.5 53.6691C269.503 54.3758 269.477 55.9001 269.875 58.7003C270.354 62.0753 270.962 66.8605 273.198 70.0233C277.339 75.8813 282.085 78.3875 285.5 80.0753C287.735 81.1799 289.259 81.5658 290.281 81.7628C290.38 82.5319 290.559 84.1886 291.125 87.0441C291.808 90.4921 292.739 94.4129 294.312 96.9503C295.962 99.6096 299.241 102.447 302.187 104.794C305.134 107.141 307.75 108.919 307.75 108.919C308.404 109.361 309.402 109.168 309.844 108.513C310.286 107.858 306.759 105.361 306.104 104.919C306.104 104.919 303.748 101.556 303.229 98.117C300.377 95.8449 298.295 95.7948 296.677 93.7211C295.093 91.6905 294.721 89.7733 294.062 86.4503C293.404 83.1273 293.062 80.3253 293.062 80.3253C292.979 79.6443 292.372 79.0649 291.687 79.0128C291.687 79.0128 285.986 77.5785 283.844 75.7211C281.373 73.579 278.159 72.7606 278.802 67.3045C277.071 64.8558 273.29 61.4017 272.844 58.2628C272.398 55.124 272.406 52.7003 272.406 52.7003C272.425 52.0916 272.033 51.491 271.469 51.2628C271.469 51.2628 268.361 50.0199 264.937 48.4503C263.226 47.6656 261.137 47.4012 259.937 45.9816C258.47 44.2458 258.386 39.8576 257.979 39.4503C253.324 34.7948 253.562 32.4816 253.562 32.4816C253.77 31.6017 252.998 30.6327 252.094 30.6378Z" fill="black"/>
<path d="M211 30H224.333L330 168.667V201L211 30Z" fill="#FF5555" stroke="#5555AA" stroke-width="2"/>
<path d="M186.993 30C186.993 30 188.763 41.2957 201.645 52.1742C214.526 63.0527 236.003 67.4031 236.003 67.4031" stroke="#5555AA" stroke-width="2" stroke-linecap="round" stroke-linejoin="round"/>
<path d="M192.161 30C192.161 30 197.373 41.8302 204.589 47.8428C211.805 53.8554 232.121 60.9569 232.121 60.9569" stroke="#5555AA" stroke-width="2" stroke-linecap="round" stroke-linejoin="round"/>
<path d="M198.267 30C198.267 30 202.678 40.0588 208.059 44.6398C213.441 49.2208 227.984 55.1727 227.984 55.1727" stroke="#5555AA" stroke-width="2" stroke-linecap="round" stroke-linejoin="round"/>
<path d="M203.288 30C203.288 30 206.02 36.8319 210.318 40.3821C214.616 43.9324 223.209 47.7728 223.209 47.7728" stroke="#5555AA" stroke-width="2" stroke-linecap="round" stroke-linejoin="round"/>
<path d="M188.939 37.538C188.939 37.538 188.099 41.6234 182.795 50.4949C177.491 59.3665 167.048 63.1274 167.048 63.1274" stroke="#5555AA" stroke-width="2" stroke-linecap="round" stroke-linejoin="round"/>
<path d="M185.051 30C185.051 30 184.878 37.0485 180.054 44.5611C175.23 52.0737 167.113 55.8753 167.113 55.8753" stroke="#5555AA" stroke-width="2" stroke-linecap="round" stroke-linejoin="round"/>
<path d="M179.68 30C179.68 30 177.747 37.4579 175.171 42.0389C172.596 46.62 167.31 49.9371 167.31 49.9371" stroke="#5555AA" stroke-width="2" stroke-linecap="round" stroke-linejoin="round"/>
<path d="M173.554 30C173.554 30 173.735 34.4006 171.611 37.9509C169.488 41.5012 168.021 41.935 168.021 41.935" stroke="#5555AA" stroke-width="2" stroke-linecap="round" stroke-linejoin="round"/>
<path d="M186.405 83.4699C186.405 83.4699 186.995 86.0506 186.936 87.357C186.773 90.933 185.74 94.4544 184.527 97.8224C183.732 100.031 181.527 101.774 181.369 104.116C181.237 106.062 181.985 108.18 183.265 109.653C184.166 110.691 185.904 110.618 186.941 111.521C187.78 112.252 188.847 114.261 188.847 114.261" stroke="#5555AA" stroke-width="2" stroke-linecap="round" stroke-linejoin="round"/>
<path d="M198.748 102.781C198.748 102.781 202.073 106.34 201.607 108.385C201.303 109.72 199.693 110.667 198.339 110.876C196.56 111.15 194.94 109.687 193.257 109.048C191.664 108.442 190.13 106.617 188.51 107.146C187.859 107.359 187.093 108.288 187.421 108.89C187.956 109.874 189.663 108.876 190.782 108.943C194.176 109.147 198.22 112.061 200.926 110.004C201.797 109.342 201.706 107.835 201.471 106.766C201.125 105.195 198.748 102.781 198.748 102.781V102.781Z" fill="#5555AA" stroke="#5555AA" stroke-width="2" stroke-linecap="round" stroke-linejoin="round"/>
<path d="M232.201 79.7722C232.201 79.7722 222.993 73.4907 217.703 72.1227C213.541 71.0465 208.965 70.7546 204.81 71.8572C203.138 72.3007 200.359 74.5216 200.359 74.5216C200.359 74.5216 204.434 73.2104 206.547 72.9827C210.817 72.5229 215.261 72.3072 219.425 73.358C224.045 74.5241 232.201 79.7722 232.201 79.7722V79.7722Z" fill="#5555AA" stroke="#5555AA" stroke-width="2" stroke-linecap="round" stroke-linejoin="round"/>
<path d="M168.271 74.2507C168.271 74.2507 173.838 71.2708 176.811 71.597C180.515 72.0033 186.398 77.1227 186.398 77.1227C186.398 77.1227 180.157 72.8646 176.538 72.7533C173.501 72.6598 168.033 75.9051 168.033 75.9051L168.271 74.2507Z" fill="#5555AA" stroke="#5555AA" stroke-width="2" stroke-linecap="round" stroke-linejoin="round"/>
<path d="M203.94 122.971C203.94 122.971 199.236 121.095 196.786 120.926C194.946 120.799 193.14 121.623 191.298 121.712C189.197 121.813 187.041 120.858 184.993 121.42C183.873 121.727 181.963 123.356 181.963 123.356C181.963 123.356 184.049 122.896 185.1 122.959C187.236 123.087 189.237 124.525 191.376 124.527C193.737 124.531 195.926 123.071 198.306 122.815C200.176 122.614 203.94 122.971 203.94 122.971V122.971Z" fill="#5555AA" stroke="#5555AA" stroke-width="2" stroke-linecap="round" stroke-linejoin="round"/>
<path d="M197.578 127.833C197.578 127.833 193.635 129.204 191.588 129.248C189.834 129.286 186.414 128.258 186.414 128.258" stroke="#5555AA" stroke-width="2" stroke-linecap="round" stroke-linejoin="round"/>
<path d="M185.626 82.9C185.626 82.9 180.594 78.7942 175.977 78.6946C171.035 78.5879 168.082 81.2178 168.082 81.2178" stroke="#5555AA" stroke-width="2" stroke-linecap="round" stroke-linejoin="round"/>
<path d="M228.614 85.0458C228.614 85.0458 218.75 77.7202 213.087 77.8834C205.667 78.0973 200.126 83.4425 200.126 83.4425" stroke="#5555AA" stroke-width="2" stroke-linecap="round" stroke-linejoin="round"/>
<path d="M229.705 86.6213C223.853 85.8638 219.551 83.322 214.164 82.8619C209.545 82.4674 200.221 83.8983 200.221 83.8983" stroke="#5555AA" stroke-width="2" stroke-linecap="round" stroke-linejoin="round"/>
<path d="M167.453 86.6936C172.84 84.1519 171.686 83.3433 177.074 82.8832C181.693 82.4887 186.519 85.1091 186.519 85.1091" stroke="#5555AA" stroke-width="2" stroke-linecap="round" stroke-linejoin="round"/>
<path d="M226.469 87.0802C221.202 88.28 215.7 92.1616 209.741 92.4583C205.326 92.6782 200.59 89.6444 200.202 85.5611" stroke="#5555AA" stroke-width="2" stroke-linecap="round" stroke-linejoin="round"/>
<path d="M215.381 84.3956C216.318 89.4594 211.363 90.9547 207.803 90.5172C205.388 90.2203 203.149 87.2572 204.311 84.3633" stroke="#5555AA" stroke-width="2" stroke-linecap="round" stroke-linejoin="round"/>
<path d="M207.132 87.243C207.034 86.3259 207.878 85.063 208.838 85.0127C209.678 84.9686 210.562 85.9902 210.544 86.7969C210.525 87.6378 209.56 88.559 208.683 88.5811C207.988 88.5986 207.204 87.9062 207.132 87.243V87.243Z" fill="#5555AA" stroke="#5555AA" stroke-width="2" stroke-linecap="round" stroke-linejoin="round"/>
<path d="M178.558 87.5481C178.584 86.8311 177.711 85.9031 176.815 85.9224C176.032 85.9391 175.283 86.7849 175.357 87.4091C175.434 88.0599 176.395 88.7156 177.211 88.6796C177.859 88.6512 178.538 88.0666 178.558 87.5481V87.5481Z" fill="#5555AA" stroke="#5555AA" stroke-width="2" stroke-linecap="round" stroke-linejoin="round"/>
<path d="M184.968 91.4127C182.875 93.8726 182.724 96.056 178.389 98.1414" stroke="#5555AA" stroke-width="2" stroke-linecap="round" stroke-linejoin="round"/>
<path d="M199.941 83.9327C201.546 91.0543 203.39 95.2993 208.538 97.4544" stroke="#5555AA" stroke-width="2" stroke-linecap="round" stroke-linejoin="round"/>
<path d="M167.551 89.4142C170.406 91.2182 174.063 92.2834 178.726 92.1616C182.181 92.0713 185.694 89.6233 185.755 86.6652" stroke="#5555AA" stroke-width="2" stroke-linecap="round" stroke-linejoin="round"/>
<path d="M172.826 84.1032C171.714 89.0022 173.921 91.6391 177.969 91.5561C179.749 91.5196 183.391 87.5169 180.716 83.7115" stroke="#5555AA" stroke-width="2" stroke-linecap="round" stroke-linejoin="round"/>
<path d="M169 30C169 30 166.705 51.9704 166.5 63C166.339 71.6716 167.245 80.3307 167.5 89C167.74 97.1648 167.089 105.383 168 113.5C168.645 119.249 168.935 125.314 171.5 130.5C173.752 135.053 177.207 139.284 181.5 142C185.157 144.313 189.679 145.274 194 145.5C198.389 145.73 202.832 144.687 207 143.291C212.696 141.383 217.985 138.306 223 135C228.042 131.676 232.857 127.894 237 123.5C240.11 120.201 245 112.5 245 112.5" stroke="#5555AA" stroke-width="2" stroke-linecap="round" stroke-linejoin="round"/>
<path d="M166.353 136.442C171.022 138.849 175.169 139.274 178.303 139.633" stroke="#5555AA" stroke-width="2" stroke-linecap="round" stroke-linejoin="round"/>
<path d="M211.062 142.015C218.326 140.662 227.298 139.817 235.202 137.743C241.846 135.999 248.162 133.185 254.642 130.907" stroke="#5555AA" stroke-width="2" stroke-linecap="round" stroke-linejoin="round"/>
<path d="M242.893 116.807L248.874 132.616" stroke="#5555AA" stroke-width="2" stroke-linecap="round" stroke-linejoin="round"/>
<path d="M239.474 121.08L244.388 134.111" stroke="#5555AA" stroke-width="2" stroke-linecap="round" stroke-linejoin="round"/>
<path d="M235.629 125.78L238.834 135.179" stroke="#5555AA" stroke-width="2" stroke-linecap="round" stroke-linejoin="round"/>
<path d="M231.784 129.198L234.775 136.674" stroke="#5555AA" stroke-width="2" stroke-linecap="round" stroke-linejoin="round"/>
<path d="M227.725 132.616L230.502 138.811" stroke="#5555AA" stroke-width="2" stroke-linecap="round" stroke-linejoin="round"/>
<path d="M223.88 135.393L225.589 139.024" stroke="#5555AA" stroke-width="2" stroke-linecap="round" stroke-linejoin="round"/>
<path d="M244.815 80.0637C243.818 81.9151 242.59 83.6593 241.824 85.6179C240.781 88.2883 240.4 91.1722 239.688 93.9493" stroke="#5555AA" stroke-width="2" stroke-linecap="round" stroke-linejoin="round"/>
<path d="M248.874 86.0452C247.592 88.6087 245.964 91.0266 245.029 93.7357C243.867 97.1018 243.605 100.714 242.893 104.203" stroke="#5555AA" stroke-width="2" stroke-linecap="round" stroke-linejoin="round"/>
<path d="M252.506 91.3858C251.366 94.0917 249.915 96.6866 249.088 99.5036C247.804 103.873 247.521 108.476 246.738 112.962" stroke="#5555AA" stroke-width="2" stroke-linecap="round" stroke-linejoin="round"/>
<path d="M256.565 96.5128C255.212 100.002 253.285 103.32 252.506 106.98C251.304 112.629 251.936 118.516 251.651 124.284" stroke="#5555AA" stroke-width="2" stroke-linecap="round" stroke-linejoin="round"/>
<path d="M260.837 102.067C259.627 104.631 257.865 107 257.206 109.758C255.449 117.102 256.778 124.854 256.565 132.402" stroke="#5555AA" stroke-width="2" stroke-linecap="round" stroke-linejoin="round"/>
<path d="M265.11 107.621C263.828 110.826 261.77 114.844 261.264 118.73C260.279 126.307 262.404 133.969 262.973 141.588" stroke="#5555AA" stroke-width="2" stroke-linecap="round" stroke-linejoin="round"/>
<path d="M268.955 114.457C267.887 117.875 266.718 123.363 266.605 127.916C266.418 135.447 268.172 141.802 269.382 150.347" stroke="#5555AA" stroke-width="2" stroke-linecap="round" stroke-linejoin="round"/>
<path d="M273.655 121.08C272.943 125.851 272.744 130.055 273.014 134.538C273.526 143.045 275.15 151.557 277.286 159.746" stroke="#5555AA" stroke-width="2" stroke-linecap="round" stroke-linejoin="round"/>
<path d="M279.209 129.198C279.067 133.684 278.576 138.782 279.209 143.51C280.287 151.558 283.339 158.892 285.618 167.009" stroke="#5555AA" stroke-width="2" stroke-linecap="round" stroke-linejoin="round"/>
<path d="M286.045 139.024C285.76 142.3 285.762 146.92 286.472 150.774C287.794 157.949 289.819 164.303 293.522 171.495" stroke="#5555AA" stroke-width="2" stroke-linecap="round" stroke-linejoin="round"/>
<path d="M292.24 147.997C292.739 151.699 292.626 155.538 293.736 159.105C295.419 164.518 299.219 169.573 301.426 174.273" stroke="#5555AA" stroke-width="2" stroke-linecap="round" stroke-linejoin="round"/>
<path d="M89.7965 207.962C89.7965 207.962 85.392 202.753 82.9279 200.361C80.3343 197.842 77.636 195.38 74.6285 193.283C72.3112 191.668 69.9464 189.793 67.1875 189.09C65.5593 188.675 63.7033 188.527 62.1471 189.16C61.0035 189.626 59.728 190.505 59.4604 191.711C58.9518 194.002 60.5615 196.438 62.0361 198.264C63.5313 200.115 65.804 201.256 67.9818 202.215C69.2962 202.794 70.8969 203.118 72.1637 203.252C72.9928 205.853 70.5087 205.26 71.0366 210.39C71.1914 211.895 71.3985 213.959 71.3985 213.959" stroke="#5555AA" stroke-width="2" stroke-linecap="round" stroke-linejoin="round"/>
<path d="M63.4672 193.686C63.4672 193.686 63.9548 195.351 64.6119 195.905C65.2116 196.41 66.0945 196.683 66.9014 196.691C67.6927 196.699 69.1619 195.966 69.1619 195.966" stroke="#5555AA" stroke-width="2" stroke-linecap="round" stroke-linejoin="round"/>
<path d="M58.8881 190.924C58.8881 190.924 54.921 189.11 53.1643 189.876C51.3151 190.683 50.3097 192.98 50.3024 194.856C50.291 197.709 53.0798 199.973 54.5952 202.458C55.5165 203.968 56.1289 205.787 57.51 206.893C58.8631 207.976 60.6816 209.096 62.3752 208.728C63.6984 208.44 64.7616 207.112 65.2371 205.844C65.6614 204.713 65.8198 203.118 65.0045 202.226C63.9104 201.029 61.7817 201.136 60.1966 201.48C59.3497 201.663 58.5627 202.228 58.0232 202.906C57.4689 203.603 57.0971 205.412 57.0971 205.412" stroke="#5555AA" stroke-width="2" stroke-linecap="round" stroke-linejoin="round"/>
<path d="M49.4439 196.167C49.4439 196.167 46.6414 197.023 45.7234 198.002C44.7991 198.987 44.2332 200.374 44.2925 201.671C44.3888 203.781 45.8412 205.702 47.1543 207.438C48.6912 209.469 50.6991 211.285 52.8781 212.68C54.4945 213.715 56.2951 214.586 58.1872 214.907C59.6006 215.147 61.4977 215.689 62.48 214.645C63.3182 213.754 63.0859 212.038 62.48 210.976C62.0228 210.174 60.9816 209.829 60.0971 209.565C58.8963 209.207 57.3904 208.707 56.3415 209.393C55.4013 210.008 55.1324 212.539 55.1324 212.539" stroke="#5555AA" stroke-width="2" stroke-linecap="round" stroke-linejoin="round"/>
<path d="M44.8648 206.127C44.8648 206.127 41.3809 208.338 41.1444 210.059C40.9845 211.222 42.0501 212.298 42.8615 213.204C44.9303 215.516 47.8097 217.142 50.5886 218.709C52.2966 219.672 54.0208 221.046 56.0262 221.068C56.9657 221.078 58.1343 220.766 58.6019 220.019C59.0319 219.333 58.6899 218.373 58.3157 217.66C57.6144 216.324 56.4995 214.466 54.8815 214.515C53.8679 214.546 53.2775 215.758 52.8781 216.612C52.4632 217.499 52.5919 219.495 52.5919 219.495" stroke="#5555AA" stroke-width="2" stroke-linecap="round" stroke-linejoin="round"/>
<path d="M43.1476 215.301C43.1476 215.301 41.8912 217.346 42.0029 218.447C42.1847 220.238 43.4871 221.882 44.8648 223.165C46.6508 224.827 49.0382 226.006 51.4818 226.662C52.7537 227.004 54.4427 227.619 55.4538 226.834C56.6993 225.867 56.78 223.705 56.0261 222.378C55.3759 221.234 53.6977 220.346 52.3057 220.544C51.2551 220.692 50.5817 221.779 50.0856 222.641C49.5858 223.508 49.4438 225.524 49.4438 225.524" stroke="#5555AA" stroke-width="2" stroke-linecap="round" stroke-linejoin="round"/>
<path d="M54.7373 228.272C54.7373 228.272 55.6108 229.636 56.2149 230.158C56.7833 230.649 57.4845 230.973 58.1716 231.277C59.536 231.881 62.4292 232.66 62.4292 232.66" stroke="#5555AA" stroke-width="2" stroke-linecap="round" stroke-linejoin="round"/>
<path d="M63.6686 190.716C63.6686 190.716 58.1514 191.922 55.3595 191.816C53.2321 191.736 51.0382 191.403 49.1094 190.502C47.0176 189.524 45.128 188.005 43.6666 186.218C42.0306 184.217 40.1776 179.293 40.1776 179.293C40.1776 179.293 44.5318 180.221 46.7451 180.38C49.1316 180.551 51.5417 179.981 53.9215 180.229C55.6961 180.413 57.4535 180.844 59.1352 181.439C60.482 181.916 61.8463 182.458 62.9897 183.314C64.1076 184.152 65.0349 185.253 65.8073 186.417C66.4525 187.389 67.2806 189.591 67.2806 189.591L63.6686 190.716Z" fill="#FFFF55" stroke="#5555AA" stroke-width="2" stroke-linecap="round" stroke-linejoin="round"/>
<path d="M48.623 185.02C48.623 185.02 51.5566 186.544 53.1355 186.994C55.5215 187.673 58.0562 187.639 60.5027 188.051C62.3273 188.359 65.9526 189.105 65.9526 189.105" stroke="#5555AA" stroke-width="2" stroke-linecap="round" stroke-linejoin="round"/>
<path d="M66.5265 188.146L67.4143 177.826L70.4818 175.12L73.135 177.799L72.5435 191.559L66.5265 188.146Z" fill="#FFFF55" stroke="#5555AA" stroke-width="2" stroke-linecap="round" stroke-linejoin="round"/>
<path d="M74.2903 191.346C74.2903 191.346 76.0947 187.446 77.6491 185.941C79.4512 184.196 81.8403 182.966 84.2568 182.039C86.5132 181.174 89.1142 181.329 91.4163 180.572C93.5688 179.864 97.5376 177.73 97.5376 177.73C97.5376 177.73 97.1101 182.418 96.0446 184.451C94.9108 186.614 93.1355 188.529 91.0667 189.826C88.2741 191.578 84.8586 192.162 81.6092 192.717C80.1536 192.966 78.6168 193.228 77.183 192.902C76.098 192.656 74.2903 191.346 74.2903 191.346V191.346Z" fill="#FFFF55" stroke="#5555AA" stroke-width="2.31353" stroke-linecap="round" stroke-linejoin="round"/>
<path d="M75.3555 191.257C75.3555 191.257 78.5964 188.741 80.4923 188.047C82.7097 187.234 85.305 187.892 87.504 187.031C89.1147 186.4 91.7791 184.09 91.7791 184.09" stroke="#5555AA" stroke-width="2.31353" stroke-linecap="round" stroke-linejoin="round"/>
<path d="M80.3993 159.689L86.2419 155.552L91.8576 158.679L86.2137 163.338L80.3993 159.689Z" fill="#5555AA" stroke="#5555AA" stroke-width="2" stroke-linecap="round" stroke-linejoin="round"/>
<path d="M66.6412 151.508L62.3616 145.757L66.3376 140.02L70.6437 145.679L66.6412 151.508Z" fill="#5555AA" stroke="#5555AA" stroke-width="2" stroke-linecap="round" stroke-linejoin="round"/>
<path d="M50.8284 160.367L45.3538 164.843L52.0291 167.925L56.0908 163.509L50.8284 160.367Z" fill="#5555AA" stroke="#5555AA" stroke-width="2" stroke-linecap="round" stroke-linejoin="round"/>
<path d="M53.6872 165.722C52.5619 167.937 51.0187 170.296 51.2253 172.757C51.3812 174.613 52.5201 176.428 53.9434 177.71C55.7981 179.381 58.4291 180.294 60.9272 180.739C62.142 180.956 63.4882 181.015 64.623 180.53C66.8755 179.568 69.9966 175.518 69.9966 175.518C69.9966 175.518 72.9087 178.096 74.7224 178.578C77.53 179.323 80.8679 179.475 83.4235 178.094C85.2112 177.128 86.4609 175.135 87.0418 173.188C87.6723 171.075 87.3345 168.686 86.6739 166.582C86.2643 165.278 85.4807 164.064 84.5202 163.091C83.0999 161.653 79.4 159.84 79.4 159.84C79.4 159.84 83.5752 156.912 84.8162 154.774C85.6623 153.317 86.1539 151.532 85.9839 149.856C85.8157 148.197 85.0127 146.573 83.8755 145.321C82.5633 143.876 80.7717 142.512 78.7758 142.261C76.2857 141.949 73.6343 142.957 71.5733 144.376C70.4753 145.131 69.8624 146.43 69.1513 147.558C68.2158 149.041 66.7465 152.237 66.7465 152.237C66.7465 152.237 64.0006 148.716 62.1272 147.597C59.7526 146.177 56.9296 144.868 54.174 145.226C52.4402 145.451 50.729 146.505 49.7702 147.938C48.5965 149.692 48.5343 152.089 48.7578 154.188C48.9694 156.174 49.7036 158.2 50.9407 159.769C52.1488 161.301 55.7442 163.111 55.7442 163.111C55.3342 164.495 54.4179 164.55 53.6872 165.722V165.722Z" fill="#FFFF55" stroke="#5555AA" stroke-width="2" stroke-linecap="round" stroke-linejoin="round"/>
<path d="M66.487 156.199C63.472 156.595 60.3731 160.216 60.6875 163.241C61.0074 166.319 64.8661 169.423 67.9368 169.04C71.1157 168.644 74.2194 164.544 73.7363 161.377C73.2885 158.441 69.4312 155.811 66.487 156.199V156.199Z" fill="#FF5555" stroke="#5555AA" stroke-width="2" stroke-linecap="round" stroke-linejoin="round"/>
<path d="M57.5806 154.542L61.7231 158.063Z" fill="black"/>
<path d="M57.5806 154.542L61.7231 158.063" stroke="#5555AA" stroke-width="2" stroke-linecap="round" stroke-linejoin="round"/>
<path d="M75.8075 152.677L71.665 157.856Z" fill="black"/>
<path d="M75.8075 152.677L71.665 157.856" stroke="#5555AA" stroke-width="2" stroke-linecap="round" stroke-linejoin="round"/>
<path d="M72.9077 165.726L77.8787 169.454Z" fill="black"/>
<path d="M72.9077 165.726L77.8787 169.454" stroke="#5555AA" stroke-width="2" stroke-linecap="round" stroke-linejoin="round"/>
<path d="M64.2085 168.005L59.8589 173.597Z" fill="black"/>
<path d="M64.2085 168.005L59.8589 173.597" stroke="#5555AA" stroke-width="2" stroke-linecap="round" stroke-linejoin="round"/>
<path d="M182.718 166.766L180.242 179.94L193.302 181.156L194.469 168.232L182.718 166.766ZM188.094 170.882L191.281 174.062L187.75 176.906L184.656 173.719L188.094 170.882Z" fill="black"/>
<path d="M173.5 153.106L169.689 165.253L182.646 167.907L185.149 155.086L173.5 153.106ZM177.849 156.401L181.037 159.581L177.505 162.425L174.412 159.237L177.849 156.401Z" fill="black"/>
<path d="M158.883 160.813L153.741 172.761L166.814 177.167L170.547 164.435L158.883 160.813ZM163.588 165.924L165.891 169.794L161.766 171.677L159.556 167.823L163.588 165.924Z" fill="black"/>
<path d="M142.287 167.581L137.581 178.335L149.473 183.87L154.575 172.531L142.287 167.581ZM148.021 172.443L149.954 176.51L145.673 178.001L143.83 173.959L148.021 172.443Z" fill="black"/>
<path d="M155.594 146.262L150.467 150.486L147.394 156.354L159.181 161.081L163.707 150.671L155.594 146.262ZM157.115 150.328L158.9 154.462L154.568 155.798L152.872 151.692L157.115 150.328Z" fill="black"/>
<path d="M166.709 176.525L163.25 187.856L177.593 190.976L180.37 179.336L166.709 176.525ZM172.242 180.831L175.314 184.123L171.683 186.839L168.706 183.543L172.242 180.831Z" fill="black"/>
<path d="M195.885 156.087L194.18 168.81L207.37 168.951L208.069 156.205L195.885 156.087ZM201.782 159.541L205.055 162.633L201.602 165.572L198.423 162.47L201.782 159.541Z" fill="black"/>
<path d="M192.967 180.481L191.401 192.419L205.735 193.142L206.291 180.899L192.967 180.481ZM199.45 184.246L202.778 187.278L199.38 190.279L196.145 187.236L199.45 184.246Z" fill="black"/>
<path d="M206.834 168.634L205.875 181.341L219.503 180.95L218.624 168.696L206.834 168.634ZM212.712 171.818L216.131 174.748L212.824 177.851L209.499 174.906L212.712 171.818Z" fill="black"/>
<path d="M217.977 156.2L218.691 168.987L231.254 166.743L229.72 155.254L217.977 156.2ZM223.972 159.45L227.652 162.045L224.653 165.446L221.064 162.827L223.972 159.45Z" fill="black"/>
<path d="M219.3 180.513L220.035 191.763L233.605 189.544L232.26 178.198L219.3 180.513ZM225.639 182.521L229.612 184.309L227.059 187.472L223.173 185.655L225.639 182.521Z" fill="black"/>
<path d="M246.391 175.148L249.078 187.322L263.162 183.049L258.529 171.086L246.391 175.148ZM253.552 176.437L257.525 178.225L254.972 181.387L251.086 179.57L253.552 176.437Z" fill="black"/>
<path d="M270.946 167.393L274.439 178.186L286.665 173.65L281.27 163.413L270.946 167.393ZM277.546 168.205L281.78 169.235L279.85 172.812L275.697 171.738L277.546 168.205Z" fill="black"/>
<path d="M254.91 160.226L258.333 171.316L271.059 167.359L266.454 155.39L254.91 160.226ZM260.691 161.018L264.928 162.034L263.008 165.617L258.852 164.556L260.691 161.018Z" fill="black"/>
<path d="M240.047 152.289L242.824 163.977L255.112 159.987L250.92 148.322L240.047 152.289ZM246.543 153.714L250.662 155.135L248.405 158.516L244.371 157.059L246.543 153.714Z" fill="black"/>
<path d="M230.981 166.518L232.436 178.282L246.622 175.55L243.222 163.587L230.981 166.518ZM237.32 169.04L241.294 170.828L238.74 173.991L234.854 172.174L237.32 169.04Z" fill="black"/>
<path d="M142.593 167.801L147.626 156.089L145.777 155.37L135.196 164.513L142.593 167.801Z" fill="black"/>
<path d="M260.837 144.378L266.282 155.37L270.802 153.521L262.789 143.35L260.837 144.378Z" fill="black"/>
<path d="M156.271 146.142C166.938 152.581 179.157 154.648 191.155 156.28C199.764 157.451 208.576 156.859 217.217 155.956C225.787 155.061 234.31 153.377 242.571 150.93C249.131 148.987 255.434 146.228 261.63 143.313" stroke="#5555AA" stroke-width="2" stroke-linecap="round" stroke-linejoin="round"/>
<path d="M289.914 171.244C284.846 173.837 279.93 176.749 274.711 179.022C270.917 180.675 266.976 181.976 263.044 183.265C258.26 184.833 253.437 186.305 248.548 187.507C243.88 188.655 239.164 189.649 234.406 190.336C229.722 191.012 224.67 191.698 219.956 192.115C215.36 192.523 211.085 192.609 206.475 192.811C201.883 193.011 197.277 193.039 192.687 192.811C187.955 192.575 183.23 192.097 178.544 191.396C173.79 190.685 169.058 189.765 164.402 188.568C159.854 187.399 155.393 185.896 150.967 184.325C146.43 182.716 141.929 180.984 137.532 179.022C133.923 177.411 130.461 175.486 126.926 173.719" stroke="#5555AA" stroke-width="2" stroke-linecap="round" stroke-linejoin="round"/>
<path d="M257.631 135.53C257.631 135.53 244.883 141.39 238.187 143.406C231.308 145.477 224.197 146.843 217.062 147.688C210.086 148.513 203.007 148.939 196 148.438C188.683 147.914 181.424 146.448 174.344 144.531C170.126 143.389 162.031 140.031 162.031 140.031L159.772 142.434C159.772 142.434 168.844 146.137 173.562 147.406C180.831 149.361 188.241 150.895 195.781 151.438C203.021 151.959 210.265 151.511 217.437 150.656C224.742 149.786 232.019 148.374 239.062 146.25C246.027 144.15 259.291 138.059 259.291 138.059L257.631 135.53Z" fill="black"/>
<path d="M238.714 70.0774C238.714 70.0774 237.809 84.7895 239 92C240.142 98.9163 242.788 105.536 245.5 112C248.989 120.318 253.174 128.38 258 136C261.246 141.125 265.012 145.928 269 150.5C274.422 156.717 279.707 163.319 286.5 168C290.861 171.006 296.082 172.533 301 174.5C305.709 176.384 315.345 179.568 315.345 179.568" stroke="#5555AA" stroke-width="2" stroke-linecap="round" stroke-linejoin="round"/>
<path d="M103.406 195.594C103.406 195.594 117.258 205.707 123 212C128.329 217.84 136.5 231.5 136.5 231.5C136.5 231.5 121.707 243.739 115.5 251C108.321 259.398 102.18 268.742 97 278.5C92.6177 286.756 88.995 295.492 86.5 304.5C84.7885 310.679 84.3302 317.142 83.5 323.5C82.8709 328.318 82 338 82 338L30 288V262.5" fill="#FFFF58"/>
<path d="M103.406 195.594C103.406 195.594 117.258 205.707 123 212C128.329 217.84 136.5 231.5 136.5 231.5C136.5 231.5 121.707 243.739 115.5 251C108.321 259.398 102.18 268.742 97 278.5C92.6177 286.756 88.995 295.492 86.5 304.5C84.7885 310.679 84.3302 317.142 83.5 323.5C82.8709 328.318 82 338 82 338L30 288V262.5" stroke="black" stroke-width="2" stroke-linecap="round" stroke-linejoin="round"/>
<path d="M37 266L105 203.5C105 203.5 113.806 211.102 117.579 215.5C121.152 219.665 127 229 127 229C127 229 115.184 240.578 110 247C103.525 255.022 97.552 263.514 92.5 272.5C88.9174 278.873 85.9192 285.601 83.5 292.5C81.5069 298.184 79.948 304.052 79 310C78.1851 315.113 78 325.5 78 325.5L37.5 285L37 266Z" fill="black" stroke="black" stroke-width="2" stroke-linecap="round" stroke-linejoin="round"/>
<path d="M91.2966 221.979C91.2374 220.352 92.4465 217.231 92.4465 217.231C92.4465 217.231 95.3129 218.724 96.5246 219.771C97.7849 220.86 99.7533 223.585 99.7533 223.585C99.7533 223.585 101.047 220.669 101.993 219.402C103.058 217.974 105.789 215.643 105.789 215.643C105.789 215.643 107.241 218.811 107.416 220.514C107.622 222.518 106.706 226.517 106.706 226.517C106.706 226.517 110.099 224.872 111.931 224.536C113.667 224.219 117.226 224.538 117.226 224.538C117.226 224.538 115.464 228.169 114.192 229.711C112.895 231.284 109.602 233.751 109.602 233.751C109.602 233.751 111.958 234.578 112.885 235.373C113.957 236.29 115.32 238.834 115.32 238.834C115.32 238.834 112.727 240.382 111.278 240.708C110.01 240.993 107.378 240.74 107.378 240.74C107.378 240.74 108.215 243.536 108.227 244.976C108.241 246.554 107.378 249.636 107.378 249.636C107.378 249.636 104.918 248.467 103.935 247.555C102.843 246.543 101.342 243.917 101.342 243.917C101.342 243.917 100.204 247.879 99.1214 249.601C97.8803 251.575 94.3526 254.719 94.3526 254.719C94.3526 254.719 93.645 249.881 93.662 247.446C93.6761 245.435 94.3164 241.448 94.3164 241.448C94.3164 241.448 91.2368 243.085 89.5701 243.549C87.8275 244.035 84.1867 244.235 84.1867 244.235C84.1867 244.235 85.1284 240.374 86.1774 238.727C87.3603 236.871 90.8581 234.069 90.8581 234.069C90.8581 234.069 87.9091 233.349 86.5521 232.695C84.8939 231.895 81.9629 229.621 81.9629 229.621C81.9629 229.621 85.231 227.086 87.1874 226.67C89.0841 226.267 92.9783 227.223 92.9783 227.223C91.5743 226.043 91.3634 223.814 91.2966 221.979V221.979Z" fill="#FFFF58"/>
<path d="M99.0312 226.719C97.4638 226.844 95.9604 227.868 94.9375 229.063C93.9143 230.257 93.1931 231.897 93.25 233.469C93.3156 235.285 94.2839 237.115 95.5625 238.406C96.8309 239.688 98.6344 240.759 100.437 240.75C102.156 240.741 103.882 239.718 105.062 238.469C106.252 237.21 107.184 235.417 107.094 233.688C106.996 231.797 105.776 229.957 104.344 228.719C102.912 227.482 100.917 226.568 99.0312 226.719ZM99.1875 228.719C100.572 228.606 102.013 229.34 103.062 230.25C104.095 231.146 105.027 232.447 105.094 233.813C105.152 235.009 104.449 236.224 103.625 237.094C102.795 237.97 101.613 238.75 100.406 238.75C99.1297 238.75 97.8929 237.912 97 237C96.068 236.048 95.2995 234.738 95.25 233.406C95.2091 232.308 95.7564 231.18 96.4687 230.344C97.1532 229.54 98.1352 228.804 99.1875 228.719Z" fill="black"/>
<path d="M57.1835 268.379V259.801C57.1835 259.801 63.4862 259.1 65.4433 256.942C67.2721 254.925 67.3494 249 67.3494 249H79.4215L57.1835 268.379Z" fill="#FFFF58"/>
<path d="M71.904 262.267C70.6301 263.556 71.1848 266.463 72.5393 267.667C73.8846 268.864 76.667 268.94 77.94 267.667C79.0632 266.544 79.0028 264.083 77.94 262.902C76.5864 261.399 73.3258 260.827 71.904 262.267Z" fill="#FFFF58"/>
<path d="M90.8581 259.801L74.0208 280.768L83.2336 278.862C83.2336 278.862 82.9922 273.511 84.5044 271.556C86.0697 269.531 91.4935 268.379 91.4935 268.379L90.8581 259.801Z" fill="#FFFF58"/>
<path d="M41.6168 285.851C44.9928 286.55 48.4942 286.622 51.1474 290.934C51.5375 283.7 55.4009 279.939 59.0895 276.003C61.1569 281.192 62.2577 286.381 59.0895 291.57C64.8257 286.556 69.629 289.005 74.6561 289.664C72.2995 294.27 69.2629 298.423 63.5371 300.783C67.4634 304.008 68.9567 308.451 69.8908 313.172C67.9847 312.727 66.0786 312.477 64.1725 310.949L44.1583 290.934C43.0372 289.24 42.3836 287.546 41.6168 285.851V285.851Z" fill="#FFFF58"/>
<path d="M55.4375 292.5C54.1064 292.102 52.5785 292.645 51.3438 293.281C50.1389 293.903 49.0111 294.902 48.4062 296.094L50.0062 297.181C50.3522 296.499 51.361 295.539 52.2812 295.063C53.1411 294.617 54.1996 294.184 55.125 294.469C56.6598 294.942 57.8678 296.448 58.4688 297.938C59.0456 299.367 58.6328 301.03 58.4688 302.563C58.3588 303.59 57.8125 305.594 57.8125 305.594L59.7241 307.006C59.7241 307.006 60.3298 304.268 60.4375 302.875C60.5821 301.005 61.0897 298.971 60.3438 297.25C59.4382 295.162 57.6185 293.152 55.4375 292.5Z" fill="black"/>
<path d="M137.24 232.48C137.24 232.48 145.024 247.494 147.089 255.618C148.689 261.916 149.118 268.528 148.942 275.023C148.702 283.823 147.6 292.724 145.006 301.136C142.396 309.599 138.407 317.716 133.481 325.077C128.614 332.349 115.955 344.623 115.955 344.623" stroke="black" stroke-width="2" stroke-linecap="round" stroke-linejoin="round"/>
<path d="M133.746 235.339C133.746 235.339 139.822 247.735 141.37 254.401C143.268 262.573 143.711 271.119 143.276 279.498C142.896 286.818 141.56 294.147 139.349 301.136C137.13 308.15 133.987 314.932 130.084 321.167C125.958 327.757 120.945 333.856 115.32 339.223C112.362 342.044 105.472 346.529 105.472 346.529" stroke="black" stroke-width="2" stroke-linecap="round" stroke-linejoin="round"/>
<path d="M129.933 238.834C129.933 238.834 134.641 250.29 135.969 256.307C137.439 262.962 138.304 269.836 138.052 276.647C137.763 284.455 136.26 292.261 133.949 299.724C131.771 306.755 128.892 313.692 124.85 319.844C120.529 326.422 114.849 332.087 108.966 337.317C104.2 341.553 93.3995 348.436 93.3995 348.436" stroke="black" stroke-width="2" stroke-linecap="round" stroke-linejoin="round"/>
<path d="M126.174 241.225C126.174 241.225 129.781 250.299 130.887 255.036C132.174 260.554 132.959 266.226 133.084 271.891C133.232 278.627 132.921 285.476 131.354 292.029C129.613 299.31 126.753 306.409 122.944 312.855C119.192 319.205 114.382 325.002 108.966 330.01C102.82 335.694 88.3167 344.306 88.3167 344.306" stroke="black" stroke-width="2" stroke-linecap="round" stroke-linejoin="round"/>
<path d="M171.288 131.101L155.798 145.362L125.896 172.979L90.8505 206.12L60.9479 234.88L30 263.258" fill="black"/>
<path d="M171.288 131.101L155.798 145.362L125.896 172.979L90.8505 206.12L60.9479 234.88L30 263.258" stroke="#5555AA" stroke-width="2" stroke-linecap="round" stroke-linejoin="round"/>
<path d="M142.128 206.246L159.453 210.842L152.428 232.224L135.134 227.981L142.128 206.246Z" fill="#FF5555"/>
<path d="M180.773 199.851C178.56 200.527 176.346 201.204 174.133 201.88C175.424 203.048 176.715 204.217 178.006 205.385C176.223 206.184 174.44 206.983 172.657 207.783C173.825 209.074 174.994 210.365 176.162 211.656C174.01 212.517 171.858 213.378 169.706 214.239C170.812 215.653 171.919 217.067 173.026 218.482C170.874 219.158 168.722 219.834 166.57 220.511C167.922 221.986 169.275 223.462 170.628 224.938C168.66 225.614 166.693 226.29 164.725 226.967C165.586 228.504 166.447 230.041 167.308 231.578C165.832 232.685 164.161 233.792 162.686 234.899C169.818 236.067 177.146 237.235 184.278 238.404C183.417 236.805 182.557 235.206 181.696 233.608C183.11 232.87 184.524 232.132 185.938 231.394C185.139 229.549 184.34 227.705 183.54 225.86C185.631 225.061 187.721 224.261 189.812 223.462C188.89 221.494 187.967 219.527 187.045 217.559C189.013 217.19 190.98 216.821 192.948 216.453C191.657 214.792 190.365 213.132 189.074 211.472C191.042 210.98 193.009 210.488 194.977 209.996C193.932 208.582 192.886 207.168 191.841 205.754C193.809 204.954 195.776 204.155 197.744 203.356C196.107 202.566 194.499 201.676 192.844 200.948C188.821 200.582 184.797 200.217 180.773 199.851V199.851Z" fill="#FFFF55"/>
<path d="M182.423 200.037C180.052 205.601 177.089 211.469 174.726 217.314C172.169 223.641 169.861 230.724 167.721 236.551" stroke="black" stroke-width="2" stroke-linecap="round" stroke-linejoin="round"/>
<path d="M191.616 201.116C188.818 207.174 186.222 213.261 183.912 219.487C181.758 225.295 179.862 231.208 178.183 237.167" stroke="black" stroke-width="2" stroke-linecap="round" stroke-linejoin="round"/>
<path d="M186.075 200.866C185.321 200.969 184.535 201.968 184.724 202.705C184.914 203.439 186.081 203.931 186.789 203.659C187.355 203.441 187.654 202.572 187.503 201.985C187.353 201.399 186.674 200.783 186.075 200.866V200.866Z" fill="black"/>
<path d="M183.418 207.248C182.662 207.352 181.867 208.347 182.054 209.087C182.243 209.832 183.428 210.339 184.145 210.061C184.717 209.839 185.011 208.954 184.855 208.36C184.7 207.775 184.018 207.165 183.418 207.248V207.248Z" fill="black"/>
<path d="M180.467 213.798C179.699 213.921 178.906 214.972 179.136 215.716C179.365 216.456 180.604 216.869 181.307 216.544C181.843 216.296 182.068 215.439 181.897 214.873C181.725 214.302 181.056 213.703 180.467 213.798Z" fill="black"/>
<path d="M178.18 220.305C177.422 220.402 176.625 221.398 176.806 222.14C176.987 222.885 178.156 223.406 178.875 223.141C179.451 222.928 179.763 222.049 179.616 221.453C179.469 220.858 178.788 220.227 178.18 220.305Z" fill="black"/>
<path d="M175.869 226.74C175.083 226.88 174.249 227.965 174.517 228.717C174.787 229.473 176.131 229.791 176.83 229.395C177.327 229.113 177.457 228.272 177.262 227.735C177.067 227.199 176.43 226.641 175.869 226.74V226.74Z" fill="black"/>
<path d="M173.483 233.188C172.714 233.309 171.913 234.354 172.14 235.099C172.367 235.841 173.612 236.256 174.317 235.929C174.852 235.68 175.071 234.822 174.9 234.258C174.728 233.691 174.068 233.096 173.483 233.188V233.188Z" fill="black"/>
<path d="M205.408 216.416L225.266 216.723L215.512 240.835L196.464 239.322L205.408 216.416Z" fill="#FF5555"/>
<path d="M214.939 342.375L212.989 349.979C212.989 349.979 204.366 346.712 199.926 345.495C194.677 344.056 189.299 343.118 183.938 342.18C180.769 341.626 177.591 341.076 174.384 340.815C167.905 340.29 161.386 340.298 154.887 340.426C148.312 340.555 141.745 341.016 135.194 341.595C131.87 341.889 128.554 342.287 125.251 342.765C121.465 343.314 113.942 344.715 113.942 344.715L126.811 332.237L150.987 332.042L163.466 300.846L144.358 299.481L148.063 278.424C148.063 278.424 162.769 279.104 170.095 279.788C176.877 280.422 183.639 281.291 190.372 282.323C194.682 282.984 198.943 283.928 203.241 284.663C206.484 285.217 212.989 286.223 212.989 286.223C212.989 286.223 215.67 293.192 217.279 296.556C219.8 301.83 225.663 311.959 225.663 311.959L207.92 307.67L198.171 336.721L214.939 342.375Z" fill="black"/>
<path d="M238.977 362.377C238.977 362.377 230.514 356.861 226.003 354.614C221.792 352.516 212.922 349.311 212.922 349.311L224.589 311.834C224.589 311.834 231.095 321.062 234.842 325.269C238.342 329.198 242.254 332.751 246.202 336.229C249.59 339.214 256.762 344.715 256.762 344.715L238.977 362.377Z" fill="#5555AA"/>
<path d="M236.61 295.571C236.61 295.571 232.142 282.075 231.307 275.065C230.428 267.691 230.392 260.107 231.66 252.791C232.787 246.291 235.241 240.033 238.024 234.052C240.523 228.683 243.377 223.358 247.216 218.85C250.524 214.967 254.734 211.915 258.884 208.95C264.129 205.201 275.501 199.051 275.501 199.051L279.036 202.233C279.036 202.233 277.678 216.465 276.208 223.446C274.64 230.891 272.564 238.261 269.844 245.366C267.318 251.962 263.977 258.227 260.651 264.458C257.368 270.61 254.349 277.003 250.045 282.489C246.187 287.407 236.61 295.571 236.61 295.571V295.571Z" fill="#5555AA"/>
<path d="M242.974 288.853C242.974 288.853 238.723 276.059 238.378 269.408C237.996 262.05 239.212 254.58 241.206 247.487C243.162 240.53 246.039 233.704 250.045 227.688C253.095 223.108 257.129 219.187 261.359 215.668C266.208 211.632 277.269 205.415 277.269 205.415C277.269 205.415 275.77 220.089 274.44 227.335C273.434 232.817 272.379 238.333 270.551 243.598C268.251 250.223 264.96 256.475 261.712 262.69C259.119 267.652 256.504 272.646 253.227 277.186C250.196 281.384 242.974 288.853 242.974 288.853V288.853Z" fill="#FF5555"/>
<path d="M312.235 314.362L318.038 301.37C318.038 301.37 317.207 297.141 315.503 296.386C314.476 295.931 313.181 296.513 312.253 297.272C311.066 298.243 309.753 301.582 309.753 301.582L304.792 312.019" fill="#FFFF55"/>
<path d="M312.235 314.362L318.038 301.37C318.038 301.37 317.207 297.141 315.503 296.386C314.476 295.931 313.181 296.513 312.253 297.272C311.066 298.243 309.753 301.582 309.753 301.582L304.792 312.019" stroke="#5555AA" stroke-width="1.78661" stroke-linecap="round" stroke-linejoin="round"/>
<path d="M317.051 301.741C317.051 301.741 314.568 302.749 313.253 302.835C312.2 302.904 310.124 302.36 310.124 302.36" stroke="#5555AA" stroke-width="1.78661" stroke-linecap="round" stroke-linejoin="round"/>
<path d="M193.792 474.218C193.792 474.218 207.574 460.172 212.871 451.96C218.415 443.367 222.574 433.85 225.862 424.166C228.714 415.768 230.218 406.945 231.602 398.184C232.423 392.988 232.703 387.719 233.113 382.474C233.505 377.445 234.019 367.369 234.019 367.369L189.004 409.06C189.004 409.06 191.72 418.233 192.328 422.958C192.932 427.653 192.579 432.423 192.63 437.157C192.697 443.501 192.425 449.849 192.63 456.19C192.823 462.209 193.792 474.218 193.792 474.218V474.218Z" fill="black"/>
<path d="M60.2215 365.631C65.2891 363.039 72.2884 359.556 78.4689 356.838C84.3022 354.273 90.1831 351.779 96.2254 349.754C101.308 348.051 106.533 346.8 111.736 345.511C116.558 344.317 121.372 343.022 126.284 342.277C131.363 341.507 136.521 341.388 141.644 341.011C145.764 340.707 149.881 340.286 154.012 340.208C159.015 340.114 164.023 340.326 169.018 340.614C173.607 340.878 178.213 341.113 182.754 341.825C187.873 342.628 192.901 343.947 197.911 345.263C202.228 346.396 206.495 347.715 210.738 349.099C215.39 350.617 220.09 352.047 224.579 353.997C229.842 356.283 236.318 360.171 239.854 361.939L194.562 403.988C194.562 403.988 191.82 403.479 190.458 403.181C187.869 402.615 188.011 402.234 182.728 401.323C180.233 400.285 178.563 397.752 176.083 396.678C173.06 395.37 169.706 394.64 166.413 394.648C160.123 394.662 152.546 396.345 147.965 398.609C145.582 398.611 143.48 399.009 141.238 399.225C138.128 399.525 135.008 399.748 131.913 400.171C128.587 400.626 125.223 400.983 121.989 401.882C119.223 402.65 116.598 403.866 113.963 405.006C111.072 406.257 105.435 409.077 105.435 409.077C101.453 402.438 96.3972 393.574 87.8431 385.472C83.5661 381.421 78.5667 375.734 74.2925 372.489C70.0183 369.244 63.2216 367.222 60.2215 365.631V365.631Z" fill="#FFFF58"/>
<path d="M192.807 436.342C192.807 436.342 198.902 426.609 201.391 421.447C203.178 417.741 204.778 413.918 205.923 409.967C206.825 406.853 207.437 403.64 207.74 400.412C207.998 397.668 207.735 392.142 207.735 392.142L188.702 409.06C188.702 409.06 191.346 417.633 192.025 422.051C192.75 426.767 192.807 436.342 192.807 436.342H192.807Z" fill="#FF5555"/>
<path d="M136 510L70.5 425.833L62.6667 427.5L122 510H136Z" fill="black"/>
<path d="M53 510C54.6721 500.101 55.3433 490.033 55 480C54.6521 469.832 53.2485 459.641 50 450C47.6125 442.914 44.2364 436.162 40 430C43.3285 430.22 46.6715 430.22 50 430C54.3803 429.711 58.7354 429.041 63 428L122 510H53Z" fill="#FFFF55" stroke="#5555AA" stroke-width="2" stroke-linecap="round" stroke-linejoin="round"/>
<path d="M86.4077 484.53C86.0123 483.539 85.5562 482.548 84.8896 481.72C84.0103 480.628 83.046 479.407 81.6981 478.978C80.0033 478.437 77.706 478.253 76.3071 479.428C74.9439 480.573 74.5171 482.862 74.9606 484.533C75.4725 486.463 79.1885 488.717 79.1885 488.717C79.1885 488.717 74.4604 490.297 73.6324 492.33C72.8549 494.238 73.6659 496.782 75.0721 498.208C76.4593 499.615 79.0004 500.55 80.8683 499.727C82.9656 498.804 84.1683 493.704 84.1683 493.704C84.1683 493.704 85.0063 497.457 86.2189 498.833C87.2958 500.056 88.8463 501.25 90.5091 501.214C91.9843 501.182 93.6862 500.256 94.3758 498.935C95.4611 496.854 94.9871 493.967 93.7506 492.056C92.5111 490.141 87.7528 488.714 87.7528 488.714C87.7528 488.714 89.0277 491.417 86.7706 492.977C84.9666 494.224 81.7246 492.739 80.7241 490.869C79.8771 489.287 80.3237 486.249 82.0248 485.521C85.4193 484.068 87.1428 487.243 87.1428 487.243C87.1428 487.243 86.754 485.398 86.4077 484.53V484.53Z" fill="black" stroke="#000100" stroke-width="2" stroke-linecap="round" stroke-linejoin="round"/>
<path d="M66.8317 457.292C66.4789 456.396 66.072 455.499 65.4772 454.751C64.6927 453.763 63.8323 452.659 62.6296 452.271C61.1175 451.782 59.0677 451.615 57.8197 452.678C56.6034 453.713 56.2225 455.783 56.6183 457.295C57.075 459.04 60.3905 461.079 60.3905 461.079C60.3905 461.079 56.6832 462.906 56.0998 464.679C55.5301 466.411 56.0886 468.713 57.3844 469.996C58.4796 471.08 60.4847 471.67 61.8893 471.036C63.7704 470.187 64.8337 465.589 64.8337 465.589C64.8337 465.589 65.5813 468.983 66.6632 470.228C67.6241 471.333 69.0075 472.413 70.4911 472.38C71.8073 472.351 73.3258 471.515 73.9411 470.319C74.9094 468.438 74.4865 465.827 73.3832 464.099C72.2773 462.366 68.0319 461.076 68.0319 461.076C68.0319 461.076 69.1693 463.521 67.1555 464.931C65.5459 466.059 62.6533 464.716 61.7606 463.025C61.0049 461.594 61.4033 458.847 62.9211 458.189C65.9498 456.875 67.4875 459.746 67.4875 459.746C67.4875 459.746 67.1406 458.077 66.8317 457.292V457.292Z" fill="black" stroke="#000100" stroke-width="2" stroke-linecap="round" stroke-linejoin="round"/>
<path d="M112.667 508.333C112.667 508.333 112.079 497.106 107.167 491.5C102.444 486.111 96.8888 485.889 92 486.333C92 486.333 94.2999 473.194 90 467.833C85.3361 462.019 70 457.5 70 457.5C70 457.5 73.58 447.453 68.6666 440.5C65.946 436.65 56.8333 431 56.8333 431" stroke="black" stroke-width="2" stroke-linecap="round" stroke-linejoin="round"/>
<path d="M107.906 509.362C108.596 509.36 109.246 508.821 109.375 508.143C109.375 508.143 111.198 499.81 105.313 493.925C104.402 493.014 103.095 492.231 101.5 491.362C99.9054 490.493 98.063 489.602 96.3125 488.8C93.2581 487.399 91.1634 486.6 90.5 486.331C90.497 485.624 90.5227 484.1 90.125 481.3C89.6457 477.925 89.0377 473.14 86.8021 469.977C82.6614 464.119 77.9153 461.613 74.5 459.925C72.265 458.82 70.7408 458.434 69.7188 458.237C69.6203 457.468 69.4407 455.811 68.875 452.956C68.192 449.508 67.2609 445.587 65.6875 443.05C64.0385 440.39 60.7592 437.553 57.8125 435.206C54.8658 432.859 52.25 431.081 52.25 431.081C51.5955 430.639 50.5978 430.832 50.156 431.487C49.7141 432.142 53.2412 434.639 53.8959 435.081C53.8959 435.081 56.2519 438.444 56.7709 441.883C59.6232 444.155 61.7051 444.205 63.3229 446.279C64.9072 448.31 65.2793 450.227 65.9375 453.55C66.5958 456.873 66.9375 459.675 66.9375 459.675C67.0214 460.356 67.6283 460.935 68.3125 460.987C68.3125 460.987 74.0138 462.422 76.1563 464.279C78.6274 466.421 81.8414 467.239 81.1979 472.695C82.9288 475.144 86.7105 478.598 87.1563 481.737C87.602 484.876 87.5938 487.3 87.5938 487.3C87.5749 487.908 87.9666 488.509 88.5313 488.737C88.5313 488.737 91.6389 489.98 95.0625 491.55C96.7743 492.334 98.8626 492.599 100.063 494.018C101.53 495.754 101.614 500.142 102.021 500.55C106.676 505.205 106.438 507.518 106.438 507.518C106.23 508.398 107.002 509.367 107.906 509.362Z" fill="black"/>
<path d="M149 510H135.667L30 371.333V339L149 510Z" fill="#FF5555" stroke="#5555AA" stroke-width="2"/>
<path d="M173.007 510C173.007 510 171.237 498.704 158.355 487.826C145.474 476.947 123.997 472.597 123.997 472.597" stroke="#5555AA" stroke-width="2" stroke-linecap="round" stroke-linejoin="round"/>
<path d="M167.839 510C167.839 510 162.627 498.17 155.411 492.157C148.195 486.145 127.879 479.043 127.879 479.043" stroke="#5555AA" stroke-width="2" stroke-linecap="round" stroke-linejoin="round"/>
<path d="M161.733 510C161.733 510 157.322 499.941 151.941 495.36C146.559 490.779 132.016 484.827 132.016 484.827" stroke="#5555AA" stroke-width="2" stroke-linecap="round" stroke-linejoin="round"/>
<path d="M156.712 510C156.712 510 153.98 503.168 149.682 499.618C145.384 496.068 136.791 492.227 136.791 492.227" stroke="#5555AA" stroke-width="2" stroke-linecap="round" stroke-linejoin="round"/>
<path d="M171.061 502.462C171.061 502.462 171.901 498.377 177.205 489.505C182.509 480.634 192.952 476.873 192.952 476.873" stroke="#5555AA" stroke-width="2" stroke-linecap="round" stroke-linejoin="round"/>
<path d="M174.949 510C174.949 510 175.122 502.951 179.946 495.439C184.77 487.926 192.887 484.125 192.887 484.125" stroke="#5555AA" stroke-width="2" stroke-linecap="round" stroke-linejoin="round"/>
<path d="M180.32 510C180.32 510 182.253 502.542 184.829 497.961C187.404 493.38 192.69 490.063 192.69 490.063" stroke="#5555AA" stroke-width="2" stroke-linecap="round" stroke-linejoin="round"/>
<path d="M186.446 510C186.446 510 186.265 505.599 188.389 502.049C190.512 498.499 191.979 498.065 191.979 498.065" stroke="#5555AA" stroke-width="2" stroke-linecap="round" stroke-linejoin="round"/>
<path d="M173.595 456.707C173.595 456.707 172.999 454.008 173.064 452.643C173.237 449.067 174.26 445.546 175.473 442.178C176.268 439.969 178.473 438.226 178.631 435.884C178.763 433.938 178.015 431.82 176.735 430.347C175.834 429.309 174.096 429.382 173.059 428.479C172.22 427.748 171.153 425.739 171.153 425.739" stroke="#5555AA" stroke-width="2" stroke-linecap="round" stroke-linejoin="round"/>
<path d="M161.252 437.219C161.252 437.219 157.927 433.66 158.393 431.615C158.697 430.28 160.307 429.333 161.661 429.124C163.44 428.85 165.06 430.313 166.743 430.952C168.336 431.558 169.87 433.383 171.49 432.854C172.141 432.641 172.907 431.712 172.579 431.11C172.044 430.126 170.337 431.124 169.218 431.057C165.824 430.853 161.78 427.939 159.074 429.996C158.203 430.658 158.294 432.165 158.529 433.234C158.875 434.805 161.252 437.219 161.252 437.219V437.219Z" fill="#5555AA" stroke="#5555AA" stroke-width="2" stroke-linecap="round" stroke-linejoin="round"/>
<path d="M127.799 460.228C127.799 460.228 137.007 466.509 142.297 467.877C146.459 468.954 151.035 469.245 155.19 468.143C156.862 467.699 159.641 465.478 159.641 465.478C159.641 465.478 155.566 466.79 153.453 467.017C149.183 467.477 144.739 467.693 140.575 466.642C135.955 465.476 127.799 460.228 127.799 460.228V460.228Z" fill="#5555AA" stroke="#5555AA" stroke-width="2" stroke-linecap="round" stroke-linejoin="round"/>
<path d="M191.729 465.749C191.729 465.749 186.162 468.729 183.189 468.403C179.485 467.997 173.602 462.877 173.602 462.877C173.602 462.877 179.843 467.135 183.462 467.247C186.499 467.34 191.967 464.095 191.967 464.095L191.729 465.749Z" fill="#5555AA" stroke="#5555AA" stroke-width="2" stroke-linecap="round" stroke-linejoin="round"/>
<path d="M156.06 417.029C156.06 417.029 160.764 418.905 163.214 419.074C165.054 419.201 166.86 418.377 168.702 418.288C170.803 418.187 172.959 419.142 175.007 418.58C176.127 418.273 178.037 416.644 178.037 416.644C178.037 416.644 175.951 417.104 174.9 417.041C172.764 416.913 170.763 415.475 168.624 415.473C166.263 415.469 164.074 416.929 161.694 417.185C159.824 417.386 156.06 417.029 156.06 417.029V417.029Z" fill="#5555AA" stroke="#5555AA" stroke-width="2" stroke-linecap="round" stroke-linejoin="round"/>
<path d="M162.422 412.167C162.422 412.167 166.365 410.796 168.412 410.752C170.166 410.714 173.586 411.742 173.586 411.742" stroke="#5555AA" stroke-width="2" stroke-linecap="round" stroke-linejoin="round"/>
<path d="M174.374 457.1C174.374 457.1 179.406 461.206 184.023 461.305C188.965 461.412 191.918 458.782 191.918 458.782" stroke="#5555AA" stroke-width="2" stroke-linecap="round" stroke-linejoin="round"/>
<path d="M131.386 454.954C131.386 454.954 141.25 462.28 146.913 462.117C154.333 461.903 159.874 456.557 159.874 456.557" stroke="#5555AA" stroke-width="2" stroke-linecap="round" stroke-linejoin="round"/>
<path d="M130.295 453.379C136.147 454.136 140.449 456.678 145.836 457.138C150.455 457.533 159.779 456.102 159.779 456.102" stroke="#5555AA" stroke-width="2" stroke-linecap="round" stroke-linejoin="round"/>
<path d="M192.547 453.306C187.16 455.848 188.314 456.657 182.926 457.117C178.307 457.511 173.481 454.891 173.481 454.891" stroke="#5555AA" stroke-width="2" stroke-linecap="round" stroke-linejoin="round"/>
<path d="M133.531 452.92C138.798 451.72 144.3 447.838 150.259 447.542C154.674 447.322 159.41 450.356 159.798 454.439" stroke="#5555AA" stroke-width="2" stroke-linecap="round" stroke-linejoin="round"/>
<path d="M144.619 455.604C143.682 450.541 148.637 449.045 152.197 449.483C154.612 449.78 156.851 452.743 155.689 455.637" stroke="#5555AA" stroke-width="2" stroke-linecap="round" stroke-linejoin="round"/>
<path d="M152.868 452.757C152.966 453.674 152.122 454.937 151.162 454.987C150.322 455.031 149.438 454.01 149.456 453.203C149.475 452.362 150.44 451.441 151.317 451.419C152.012 451.401 152.796 452.094 152.868 452.757V452.757Z" fill="#5555AA" stroke="#5555AA" stroke-width="2" stroke-linecap="round" stroke-linejoin="round"/>
<path d="M181.442 452.452C181.416 453.169 182.289 454.097 183.185 454.078C183.968 454.061 184.717 453.215 184.643 452.591C184.566 451.94 183.605 451.284 182.789 451.32C182.141 451.349 181.462 451.933 181.442 452.452V452.452Z" fill="#5555AA" stroke="#5555AA" stroke-width="2" stroke-linecap="round" stroke-linejoin="round"/>
<path d="M175.032 448.587C177.125 446.127 177.276 443.944 181.611 441.859" stroke="#5555AA" stroke-width="2" stroke-linecap="round" stroke-linejoin="round"/>
<path d="M160.485 455.641C158.88 448.52 156.61 444.701 151.462 442.546" stroke="#5555AA" stroke-width="2" stroke-linecap="round" stroke-linejoin="round"/>
<path d="M192.449 450.586C189.594 448.782 185.937 447.717 181.274 447.838C177.819 447.929 174.306 450.377 174.245 453.335" stroke="#5555AA" stroke-width="2" stroke-linecap="round" stroke-linejoin="round"/>
<path d="M187.174 455.897C188.286 450.998 186.079 448.361 182.031 448.444C180.251 448.48 176.609 452.483 179.284 456.288" stroke="#5555AA" stroke-width="2" stroke-linecap="round" stroke-linejoin="round"/>
<path d="M191 510C191 510 193.295 488.03 193.5 477C193.661 468.328 192.755 459.669 192.5 451C192.26 442.835 192.911 434.617 192 426.5C191.355 420.751 191.065 414.686 188.5 409.5C186.248 404.947 182.793 400.716 178.5 398C174.843 395.687 170.321 394.726 166 394.5C161.611 394.27 157.168 395.313 153 396.709C147.304 398.617 142.015 401.694 137 405C131.958 408.324 127.143 412.106 123 416.5C119.89 419.799 115 427.5 115 427.5" stroke="#5555AA" stroke-width="2" stroke-linecap="round" stroke-linejoin="round"/>
<path d="M193.647 403.558C188.978 401.151 184.831 400.726 181.697 400.367" stroke="#5555AA" stroke-width="2" stroke-linecap="round" stroke-linejoin="round"/>
<path d="M148.938 397.985C141.674 399.338 132.702 400.183 124.798 402.257C118.154 404.001 111.838 406.815 105.358 409.093" stroke="#5555AA" stroke-width="2" stroke-linecap="round" stroke-linejoin="round"/>
<path d="M117.107 423.193L111.126 407.384" stroke="#5555AA" stroke-width="2" stroke-linecap="round" stroke-linejoin="round"/>
<path d="M120.526 418.92L115.612 405.889" stroke="#5555AA" stroke-width="2" stroke-linecap="round" stroke-linejoin="round"/>
<path d="M124.371 414.22L121.166 404.821" stroke="#5555AA" stroke-width="2" stroke-linecap="round" stroke-linejoin="round"/>
<path d="M128.216 410.802L125.225 403.326" stroke="#5555AA" stroke-width="2" stroke-linecap="round" stroke-linejoin="round"/>
<path d="M132.275 407.384L129.498 401.189" stroke="#5555AA" stroke-width="2" stroke-linecap="round" stroke-linejoin="round"/>
<path d="M136.12 404.607L134.411 400.976" stroke="#5555AA" stroke-width="2" stroke-linecap="round" stroke-linejoin="round"/>
<path d="M115.185 459.936C116.182 458.085 117.41 456.341 118.176 454.382C119.219 451.712 119.6 448.828 120.312 446.051" stroke="#5555AA" stroke-width="2" stroke-linecap="round" stroke-linejoin="round"/>
<path d="M111.126 453.955C112.408 451.391 114.036 448.973 114.971 446.264C116.133 442.898 116.395 439.286 117.107 435.797" stroke="#5555AA" stroke-width="2" stroke-linecap="round" stroke-linejoin="round"/>
<path d="M107.494 448.614C108.634 445.908 110.085 443.313 110.912 440.496C112.196 436.127 112.479 431.524 113.262 427.038" stroke="#5555AA" stroke-width="2" stroke-linecap="round" stroke-linejoin="round"/>
<path d="M103.435 443.487C104.788 439.998 106.715 436.68 107.494 433.02C108.696 427.371 108.064 421.484 108.349 415.716" stroke="#5555AA" stroke-width="2" stroke-linecap="round" stroke-linejoin="round"/>
<path d="M99.1629 437.933C100.373 435.369 102.135 433 102.794 430.242C104.551 422.898 103.222 415.146 103.435 407.598" stroke="#5555AA" stroke-width="2" stroke-linecap="round" stroke-linejoin="round"/>
<path d="M94.8904 432.379C96.1721 429.174 98.2303 425.156 98.7356 421.27C99.7209 413.693 97.5963 406.031 97.0266 398.412" stroke="#5555AA" stroke-width="2" stroke-linecap="round" stroke-linejoin="round"/>
<path d="M91.0451 425.543C92.1132 422.125 93.2819 416.637 93.395 412.084C93.5821 404.553 91.8284 398.198 90.6179 389.653" stroke="#5555AA" stroke-width="2" stroke-linecap="round" stroke-linejoin="round"/>
<path d="M86.3453 418.92C87.0574 414.149 87.2562 409.945 86.9862 405.462C86.4738 396.955 84.85 388.443 82.7137 380.254" stroke="#5555AA" stroke-width="2" stroke-linecap="round" stroke-linejoin="round"/>
<path d="M80.7911 410.802C80.9335 406.316 81.4243 401.218 80.7911 396.49C79.7134 388.442 76.661 381.108 74.3823 372.991" stroke="#5555AA" stroke-width="2" stroke-linecap="round" stroke-linejoin="round"/>
<path d="M73.955 400.976C74.2398 397.7 74.2376 393.08 73.5277 389.226C72.2062 382.051 70.1809 375.697 66.4781 368.505" stroke="#5555AA" stroke-width="2" stroke-linecap="round" stroke-linejoin="round"/>
<path d="M67.7599 392.003C67.2614 388.301 67.3741 384.462 66.2645 380.895C64.581 375.482 60.7814 370.427 58.574 365.727" stroke="#5555AA" stroke-width="2" stroke-linecap="round" stroke-linejoin="round"/>
<path d="M270.204 332.038C270.204 332.038 274.608 337.247 277.072 339.639C279.666 342.158 282.364 344.62 285.372 346.717C287.689 348.332 290.054 350.207 292.812 350.91C294.441 351.325 296.297 351.473 297.853 350.84C298.997 350.374 300.272 349.495 300.54 348.289C301.048 345.998 299.439 343.562 297.964 341.736C296.469 339.885 294.196 338.744 292.018 337.785C290.704 337.206 289.103 336.882 287.836 336.748C287.007 334.147 289.491 334.74 288.963 329.61C288.809 328.105 288.602 326.041 288.602 326.041" stroke="#5555AA" stroke-width="2" stroke-linecap="round" stroke-linejoin="round"/>
<path d="M296.533 346.314C296.533 346.314 296.045 344.649 295.388 344.095C294.788 343.59 293.905 343.317 293.099 343.309C292.307 343.301 290.838 344.034 290.838 344.034" stroke="#5555AA" stroke-width="2" stroke-linecap="round" stroke-linejoin="round"/>
<path d="M301.112 349.076C301.112 349.076 305.079 350.89 306.836 350.124C308.685 349.317 309.69 347.02 309.698 345.144C309.709 342.291 306.92 340.027 305.405 337.542C304.483 336.032 303.871 334.213 302.49 333.107C301.137 332.024 299.318 330.904 297.625 331.272C296.302 331.56 295.238 332.888 294.763 334.156C294.339 335.287 294.18 336.882 294.995 337.774C296.09 338.971 298.218 338.864 299.803 338.52C300.65 338.337 301.437 337.772 301.977 337.094C302.531 336.397 302.903 334.588 302.903 334.588" stroke="#5555AA" stroke-width="2" stroke-linecap="round" stroke-linejoin="round"/>
<path d="M310.556 343.833C310.556 343.833 313.359 342.977 314.277 341.998C315.201 341.013 315.767 339.626 315.708 338.329C315.611 336.219 314.159 334.298 312.846 332.562C311.309 330.531 309.301 328.715 307.122 327.32C305.506 326.285 303.705 325.414 301.813 325.093C300.399 324.853 298.502 324.311 297.52 325.355C296.682 326.246 296.914 327.962 297.52 329.024C297.977 329.826 299.018 330.171 299.903 330.435C301.104 330.793 302.61 331.293 303.659 330.607C304.599 329.992 304.868 327.461 304.868 327.461" stroke="#5555AA" stroke-width="2" stroke-linecap="round" stroke-linejoin="round"/>
<path d="M315.135 333.873C315.135 333.873 318.619 331.662 318.856 329.941C319.015 328.778 317.95 327.702 317.138 326.796C315.07 324.484 312.19 322.858 309.411 321.291C307.703 320.328 305.979 318.954 303.974 318.932C303.034 318.922 301.866 319.234 301.398 319.981C300.968 320.667 301.31 321.627 301.684 322.34C302.386 323.676 303.501 325.534 305.119 325.485C306.132 325.454 306.723 324.242 307.122 323.388C307.537 322.501 307.408 320.505 307.408 320.505" stroke="#5555AA" stroke-width="2" stroke-linecap="round" stroke-linejoin="round"/>
<path d="M316.852 324.699C316.852 324.699 318.109 322.654 317.997 321.553C317.815 319.762 316.513 318.118 315.135 316.835C313.349 315.173 310.962 313.994 308.518 313.338C307.246 312.996 305.557 312.381 304.546 313.166C303.301 314.133 303.22 316.295 303.974 317.622C304.624 318.766 306.302 319.654 307.694 319.456C308.745 319.308 309.418 318.221 309.914 317.359C310.414 316.492 310.556 314.476 310.556 314.476" stroke="#5555AA" stroke-width="2" stroke-linecap="round" stroke-linejoin="round"/>
<path d="M305.263 311.728C305.263 311.728 304.389 310.364 303.785 309.842C303.217 309.351 302.515 309.027 301.828 308.723C300.464 308.119 297.571 307.34 297.571 307.34" stroke="#5555AA" stroke-width="2" stroke-linecap="round" stroke-linejoin="round"/>
<path d="M296.331 349.284C296.331 349.284 301.849 348.078 304.64 348.184C306.768 348.264 308.962 348.597 310.891 349.498C312.982 350.476 314.872 351.995 316.333 353.782C317.969 355.783 319.822 360.707 319.822 360.707C319.822 360.707 315.468 359.779 313.255 359.62C310.868 359.449 308.458 360.019 306.078 359.771C304.304 359.587 302.547 359.156 300.865 358.561C299.518 358.084 298.154 357.542 297.01 356.686C295.892 355.848 294.965 354.747 294.193 353.583C293.548 352.611 292.719 350.409 292.719 350.409L296.331 349.284Z" fill="#FFFF55" stroke="#5555AA" stroke-width="2" stroke-linecap="round" stroke-linejoin="round"/>
<path d="M311.377 354.98C311.377 354.98 308.443 353.456 306.865 353.006C304.478 352.327 301.944 352.361 299.497 351.949C297.673 351.641 294.047 350.895 294.047 350.895" stroke="#5555AA" stroke-width="2" stroke-linecap="round" stroke-linejoin="round"/>
<path d="M293.474 351.854L292.586 362.174L289.518 364.88L286.865 362.201L287.457 348.441L293.474 351.854Z" fill="#FFFF55" stroke="#5555AA" stroke-width="2" stroke-linecap="round" stroke-linejoin="round"/>
<path d="M285.71 348.654C285.71 348.654 283.905 352.554 282.351 354.059C280.549 355.804 278.16 357.034 275.743 357.961C273.487 358.826 270.886 358.671 268.584 359.428C266.431 360.136 262.462 362.27 262.462 362.27C262.462 362.27 262.89 357.582 263.955 355.549C265.089 353.386 266.865 351.471 268.933 350.174C271.726 348.422 275.141 347.838 278.391 347.283C279.846 347.034 281.383 346.772 282.817 347.098C283.902 347.344 285.71 348.654 285.71 348.654V348.654Z" fill="#FFFF55" stroke="#5555AA" stroke-width="2.31353" stroke-linecap="round" stroke-linejoin="round"/>
<path d="M284.645 348.743C284.645 348.743 281.404 351.259 279.508 351.953C277.29 352.766 274.695 352.108 272.496 352.969C270.885 353.6 268.221 355.91 268.221 355.91" stroke="#5555AA" stroke-width="2.31353" stroke-linecap="round" stroke-linejoin="round"/>
<path d="M279.601 380.311L273.758 384.448L268.142 381.321L273.786 376.662L279.601 380.311Z" fill="#5555AA" stroke="#5555AA" stroke-width="2" stroke-linecap="round" stroke-linejoin="round"/>
<path d="M293.359 388.492L297.638 394.243L293.662 399.98L289.356 394.321L293.359 388.492Z" fill="#5555AA" stroke="#5555AA" stroke-width="2" stroke-linecap="round" stroke-linejoin="round"/>
<path d="M309.172 379.633L314.646 375.157L307.971 372.075L303.909 376.491L309.172 379.633Z" fill="#5555AA" stroke="#5555AA" stroke-width="2" stroke-linecap="round" stroke-linejoin="round"/>
<path d="M306.313 374.278C307.438 372.063 308.981 369.704 308.775 367.243C308.619 365.387 307.48 363.572 306.057 362.29C304.202 360.619 301.571 359.706 299.073 359.261C297.858 359.044 296.512 358.985 295.377 359.47C293.124 360.432 290.003 364.482 290.003 364.482C290.003 364.482 287.091 361.904 285.278 361.422C282.47 360.677 279.132 360.525 276.577 361.906C274.789 362.872 273.539 364.865 272.958 366.812C272.328 368.925 272.665 371.314 273.326 373.418C273.736 374.722 274.519 375.936 275.48 376.909C276.9 378.347 280.6 380.16 280.6 380.16C280.6 380.16 276.425 383.088 275.184 385.226C274.338 386.683 273.846 388.468 274.016 390.144C274.184 391.803 274.987 393.427 276.124 394.679C277.437 396.124 279.228 397.488 281.224 397.739C283.714 398.051 286.366 397.043 288.427 395.624C289.525 394.869 290.138 393.57 290.849 392.442C291.784 390.959 293.254 387.763 293.254 387.763C293.254 387.763 295.999 391.284 297.873 392.403C300.247 393.823 303.07 395.132 305.826 394.774C307.56 394.549 309.271 393.495 310.23 392.062C311.403 390.308 311.466 387.911 311.242 385.812C311.031 383.826 310.296 381.8 309.059 380.231C307.851 378.699 304.256 376.889 304.256 376.889C304.666 375.505 305.582 375.45 306.313 374.278V374.278Z" fill="#FFFF55" stroke="#5555AA" stroke-width="2" stroke-linecap="round" stroke-linejoin="round"/>
<path d="M293.513 383.801C296.528 383.405 299.627 379.784 299.313 376.759C298.993 373.681 295.134 370.577 292.063 370.96C288.884 371.356 285.781 375.456 286.264 378.623C286.711 381.559 290.569 384.189 293.513 383.801V383.801Z" fill="#FF5555" stroke="#5555AA" stroke-width="2" stroke-linecap="round" stroke-linejoin="round"/>
<path d="M302.419 385.458L298.277 381.937Z" fill="black"/>
<path d="M302.419 385.458L298.277 381.937" stroke="#5555AA" stroke-width="2" stroke-linecap="round" stroke-linejoin="round"/>
<path d="M284.192 387.323L288.335 382.144Z" fill="black"/>
<path d="M284.192 387.323L288.335 382.144" stroke="#5555AA" stroke-width="2" stroke-linecap="round" stroke-linejoin="round"/>
<path d="M287.092 374.274L282.121 370.546Z" fill="black"/>
<path d="M287.092 374.274L282.121 370.546" stroke="#5555AA" stroke-width="2" stroke-linecap="round" stroke-linejoin="round"/>
<path d="M295.792 371.995L300.141 366.403Z" fill="black"/>
<path d="M295.792 371.995L300.141 366.403" stroke="#5555AA" stroke-width="2" stroke-linecap="round" stroke-linejoin="round"/>
<path d="M177.282 373.234L179.758 360.06L166.698 358.844L165.531 371.768L177.282 373.234ZM171.906 369.118L168.719 365.938L172.25 363.094L175.344 366.281L171.906 369.118Z" fill="black"/>
<path d="M186.5 386.894L190.311 374.747L177.354 372.093L174.851 384.914L186.5 386.894ZM182.151 383.599L178.963 380.419L182.495 377.575L185.588 380.763L182.151 383.599Z" fill="black"/>
<path d="M201.117 379.187L206.259 367.239L193.186 362.833L189.453 375.565L201.117 379.187ZM196.412 374.076L194.109 370.206L198.234 368.323L200.444 372.177L196.412 374.076Z" fill="black"/>
<path d="M217.713 372.419L222.419 361.665L210.527 356.13L205.425 367.469L217.713 372.419ZM211.979 367.557L210.046 363.49L214.327 361.999L216.17 366.041L211.979 367.557Z" fill="black"/>
<path d="M204.406 393.738L209.533 389.514L212.606 383.646L200.819 378.919L196.293 389.329L204.406 393.738ZM202.885 389.672L201.1 385.538L205.432 384.202L207.128 388.308L202.885 389.672Z" fill="black"/>
<path d="M193.291 363.475L196.75 352.144L182.407 349.024L179.63 360.664L193.291 363.475ZM187.758 359.169L184.686 355.877L188.317 353.161L191.294 356.457L187.758 359.169Z" fill="black"/>
<path d="M164.115 383.913L165.82 371.19L152.63 371.049L151.931 383.795L164.115 383.913ZM158.218 380.459L154.945 377.367L158.398 374.428L161.577 377.53L158.218 380.459Z" fill="black"/>
<path d="M167.033 359.519L168.599 347.581L154.265 346.858L153.709 359.101L167.033 359.519ZM160.55 355.754L157.222 352.722L160.62 349.721L163.855 352.764L160.55 355.754Z" fill="black"/>
<path d="M153.166 371.366L154.125 358.659L140.497 359.05L141.376 371.304L153.166 371.366ZM147.288 368.182L143.869 365.252L147.176 362.149L150.501 365.094L147.288 368.182Z" fill="black"/>
<path d="M142.023 383.8L141.309 371.013L128.746 373.257L130.28 384.746L142.023 383.8ZM136.028 380.55L132.348 377.955L135.347 374.554L138.936 377.173L136.028 380.55Z" fill="black"/>
<path d="M140.7 359.487L139.965 348.237L126.395 350.456L127.74 361.802L140.7 359.487ZM134.361 357.479L130.388 355.691L132.941 352.528L136.827 354.345L134.361 357.479Z" fill="black"/>
<path d="M113.609 364.852L110.922 352.678L96.8383 356.951L101.471 368.914L113.609 364.852ZM106.448 363.563L102.475 361.775L105.028 358.613L108.914 360.43L106.448 363.563Z" fill="black"/>
<path d="M89.0536 372.607L85.5614 361.814L73.3351 366.35L78.7301 376.587L89.0536 372.607ZM82.4535 371.795L78.2196 370.765L80.1504 367.188L84.3034 368.262L82.4535 371.795Z" fill="black"/>
<path d="M105.09 379.774L101.667 368.684L88.9411 372.641L93.5463 384.61L105.09 379.774ZM99.3089 378.982L95.0719 377.966L96.9917 374.383L101.148 375.444L99.3089 378.982Z" fill="black"/>
<path d="M119.953 387.711L117.176 376.023L104.888 380.013L109.08 391.678L119.953 387.711ZM113.457 386.286L109.338 384.865L111.595 381.484L115.629 382.941L113.457 386.286Z" fill="black"/>
<path d="M129.019 373.482L127.564 361.718L113.378 364.45L116.778 376.413L129.019 373.482ZM122.68 370.96L118.706 369.172L121.26 366.009L125.146 367.826L122.68 370.96Z" fill="black"/>
<path d="M217.407 372.199L212.374 383.911L214.223 384.63L224.804 375.487L217.407 372.199Z" fill="black"/>
<path d="M99.1626 395.622L93.7178 384.63L89.1976 386.479L97.2107 396.65L99.1626 395.622Z" fill="black"/>
<path d="M203.729 393.858C193.062 387.419 180.843 385.352 168.845 383.72C160.236 382.549 151.424 383.141 142.783 384.044C134.213 384.939 125.69 386.623 117.429 389.07C110.869 391.013 104.566 393.772 98.3705 396.687" stroke="#5555AA" stroke-width="2" stroke-linecap="round" stroke-linejoin="round"/>
<path d="M70.0862 368.756C75.1538 366.163 80.0704 363.251 85.289 360.978C89.0829 359.325 93.0239 358.024 96.9563 356.735C101.74 355.167 106.563 353.695 111.452 352.493C116.12 351.345 120.836 350.351 125.594 349.664C130.278 348.988 135.33 348.302 140.044 347.885C144.64 347.477 148.915 347.391 153.525 347.189C158.117 346.989 162.723 346.961 167.313 347.189C172.045 347.425 176.77 347.903 181.456 348.604C186.21 349.315 190.942 350.235 195.598 351.432C200.146 352.601 204.607 354.104 209.033 355.675C213.57 357.284 218.071 359.016 222.468 360.978C226.077 362.589 229.539 364.514 233.074 366.281" stroke="#5555AA" stroke-width="2" stroke-linecap="round" stroke-linejoin="round"/>
<path d="M102.369 404.47C102.369 404.47 115.117 398.61 121.813 396.594C128.692 394.523 135.803 393.157 142.938 392.312C149.914 391.487 156.993 391.061 164 391.562C171.317 392.086 178.576 393.552 185.656 395.469C189.874 396.611 197.969 399.969 197.969 399.969L200.228 397.566C200.228 397.566 191.156 393.863 186.438 392.594C179.169 390.639 171.759 389.105 164.219 388.562C156.979 388.041 149.735 388.489 142.563 389.344C135.258 390.214 127.981 391.626 120.938 393.75C113.973 395.85 100.709 401.941 100.709 401.941L102.369 404.47Z" fill="black"/>
<path d="M121.286 469.923C121.286 469.923 122.191 455.211 121 448C119.858 441.084 117.212 434.464 114.5 428C111.011 419.682 106.826 411.62 102 404C98.7539 398.875 94.9876 394.072 91.0001 389.5C85.5778 383.283 80.2928 376.681 73.5001 372C69.1387 368.994 63.9179 367.467 59.0001 365.5C54.2914 363.616 44.6548 360.432 44.6548 360.432" stroke="#5555AA" stroke-width="2" stroke-linecap="round" stroke-linejoin="round"/>
<path d="M256.594 344.406C256.594 344.406 242.742 334.293 237 328C231.671 322.16 223.5 308.5 223.5 308.5C223.5 308.5 238.293 296.261 244.5 289C251.679 280.602 257.82 271.258 263 261.5C267.382 253.244 271.005 244.508 273.5 235.5C275.212 229.321 275.67 222.858 276.5 216.5C277.129 211.682 278 202 278 202L330 252V277.5" fill="#FFFF58"/>
<path d="M256.594 344.406C256.594 344.406 242.742 334.293 237 328C231.671 322.16 223.5 308.5 223.5 308.5C223.5 308.5 238.293 296.261 244.5 289C251.679 280.602 257.82 271.258 263 261.5C267.382 253.244 271.005 244.508 273.5 235.5C275.212 229.321 275.67 222.858 276.5 216.5C277.129 211.682 278 202 278 202L330 252V277.5" stroke="black" stroke-width="2" stroke-linecap="round" stroke-linejoin="round"/>
<path d="M323 274L255 336.5C255 336.5 246.194 328.898 242.421 324.5C238.848 320.335 233 311 233 311C233 311 244.816 299.422 250 293C256.475 284.978 262.448 276.486 267.5 267.5C271.083 261.127 274.081 254.399 276.5 247.5C278.493 241.816 280.052 235.948 281 230C281.815 224.887 282 214.5 282 214.5L322.5 255L323 274Z" fill="black" stroke="black" stroke-width="2" stroke-linecap="round" stroke-linejoin="round"/>
<path d="M268.703 318.021C268.763 319.648 267.553 322.769 267.553 322.769C267.553 322.769 264.687 321.276 263.475 320.229C262.215 319.14 260.247 316.415 260.247 316.415C260.247 316.415 258.953 319.331 258.007 320.598C256.942 322.026 254.211 324.357 254.211 324.357C254.211 324.357 252.759 321.189 252.584 319.486C252.378 317.482 253.294 313.483 253.294 313.483C253.294 313.483 249.901 315.128 248.069 315.464C246.333 315.781 242.774 315.462 242.774 315.462C242.774 315.462 244.536 311.831 245.808 310.289C247.105 308.716 250.398 306.249 250.398 306.249C250.398 306.249 248.042 305.422 247.115 304.627C246.043 303.71 244.68 301.166 244.68 301.166C244.68 301.166 247.273 299.618 248.722 299.292C249.99 299.007 252.622 299.26 252.622 299.26C252.622 299.26 251.785 296.464 251.773 295.024C251.759 293.446 252.622 290.364 252.622 290.364C252.622 290.364 255.082 291.533 256.065 292.445C257.157 293.457 258.658 296.083 258.658 296.083C258.658 296.083 259.796 292.121 260.879 290.399C262.12 288.425 265.647 285.281 265.647 285.281C265.647 285.281 266.355 290.119 266.338 292.554C266.324 294.565 265.684 298.552 265.684 298.552C265.684 298.552 268.763 296.915 270.43 296.451C272.173 295.965 275.813 295.765 275.813 295.765C275.813 295.765 274.872 299.626 273.823 301.273C272.64 303.129 269.142 305.931 269.142 305.931C269.142 305.931 272.091 306.651 273.448 307.305C275.106 308.105 278.037 310.379 278.037 310.379C278.037 310.379 274.769 312.914 272.813 313.33C270.916 313.733 267.022 312.777 267.022 312.777C268.426 313.957 268.637 316.186 268.703 318.021V318.021Z" fill="#FFFF58"/>
<path d="M260.969 313.281C262.536 313.156 264.04 312.132 265.063 310.937C266.086 309.743 266.807 308.103 266.75 306.531C266.684 304.715 265.716 302.885 264.438 301.594C263.169 300.312 261.366 299.241 259.563 299.25C257.844 299.259 256.118 300.282 254.938 301.531C253.748 302.79 252.816 304.583 252.906 306.312C253.004 308.203 254.224 310.043 255.656 311.281C257.088 312.518 259.083 313.432 260.969 313.281ZM260.813 311.281C259.428 311.394 257.987 310.66 256.938 309.75C255.905 308.854 254.973 307.553 254.906 306.187C254.848 304.991 255.551 303.776 256.375 302.906C257.205 302.03 258.387 301.25 259.594 301.25C260.87 301.25 262.107 302.088 263 303C263.932 303.952 264.7 305.262 264.75 306.594C264.791 307.692 264.244 308.82 263.531 309.656C262.847 310.46 261.865 311.196 260.813 311.281Z" fill="black"/>
<path d="M302.817 271.621V280.199C302.817 280.199 296.514 280.9 294.557 283.058C292.728 285.075 292.651 291 292.651 291H280.579L302.817 271.621Z" fill="#FFFF58"/>
<path d="M288.096 277.733C289.37 276.444 288.815 273.537 287.461 272.333C286.115 271.136 283.333 271.06 282.06 272.333C280.937 273.456 280.997 275.917 282.06 277.098C283.414 278.601 286.674 279.173 288.096 277.733Z" fill="#FFFF58"/>
<path d="M269.142 280.199L285.979 259.232L276.766 261.138C276.766 261.138 277.008 266.489 275.496 268.444C273.93 270.469 268.507 271.621 268.507 271.621L269.142 280.199Z" fill="#FFFF58"/>
<path d="M318.383 254.149C315.007 253.45 311.506 253.378 308.853 249.066C308.463 256.3 304.599 260.061 300.91 263.997C298.843 258.808 297.742 253.619 300.91 248.43C295.174 253.444 290.371 250.995 285.344 250.336C287.7 245.73 290.737 241.577 296.463 239.217C292.537 235.992 291.043 231.549 290.109 226.828C292.015 227.273 293.921 227.523 295.827 229.051L315.842 249.066C316.963 250.76 317.616 252.454 318.383 254.149V254.149Z" fill="#FFFF58"/>
<path d="M304.562 247.5C305.894 247.898 307.422 247.355 308.656 246.719C309.861 246.097 310.989 245.098 311.594 243.906L309.994 242.819C309.648 243.501 308.639 244.461 307.719 244.937C306.859 245.383 305.8 245.816 304.875 245.531C303.34 245.058 302.132 243.552 301.531 242.062C300.954 240.633 301.367 238.97 301.531 237.437C301.641 236.41 302.188 234.406 302.188 234.406L300.276 232.994C300.276 232.994 299.67 235.732 299.562 237.125C299.418 238.995 298.91 241.029 299.656 242.75C300.562 244.838 302.381 246.848 304.562 247.5Z" fill="black"/>
<path d="M222.76 307.52C222.76 307.52 214.976 292.506 212.911 284.382C211.311 278.084 210.882 271.472 211.058 264.977C211.298 256.177 212.4 247.276 214.994 238.864C217.604 230.401 221.593 222.284 226.519 214.923C231.386 207.651 244.045 195.377 244.045 195.377" stroke="black" stroke-width="2" stroke-linecap="round" stroke-linejoin="round"/>
<path d="M226.254 304.661C226.254 304.661 220.178 292.265 218.63 285.599C216.732 277.427 216.289 268.881 216.724 260.502C217.104 253.182 218.44 245.853 220.651 238.864C222.87 231.85 226.013 225.068 229.916 218.833C234.042 212.243 239.055 206.144 244.68 200.777C247.638 197.956 254.528 193.471 254.528 193.471" stroke="black" stroke-width="2" stroke-linecap="round" stroke-linejoin="round"/>
<path d="M230.067 301.166C230.067 301.166 225.359 289.71 224.031 283.693C222.561 277.038 221.696 270.164 221.948 263.353C222.237 255.545 223.74 247.739 226.051 240.276C228.229 233.245 231.108 226.308 235.15 220.156C239.471 213.578 245.151 207.913 251.034 202.683C255.8 198.447 266.6 191.564 266.6 191.564" stroke="black" stroke-width="2" stroke-linecap="round" stroke-linejoin="round"/>
<path d="M233.826 298.775C233.826 298.775 230.219 289.701 229.113 284.964C227.826 279.446 227.041 273.774 226.916 268.109C226.768 261.373 227.079 254.524 228.646 247.971C230.387 240.69 233.247 233.591 237.056 227.145C240.808 220.795 245.618 214.998 251.034 209.99C257.18 204.306 271.683 195.694 271.683 195.694" stroke="black" stroke-width="2" stroke-linecap="round" stroke-linejoin="round"/>
<path d="M188.712 408.899L204.202 394.638L234.104 367.021L269.15 333.88L299.052 305.12L330 276.742" fill="black"/>
<path d="M188.712 408.899L204.202 394.638L234.104 367.021L269.15 333.88L299.052 305.12L330 276.742" stroke="#5555AA" stroke-width="2" stroke-linecap="round" stroke-linejoin="round"/>
<path d="M217.872 333.754L200.547 329.158L207.572 307.776L224.866 312.019L217.872 333.754Z" fill="#FF5555"/>
<path d="M179.227 340.149C181.44 339.473 183.654 338.796 185.867 338.12C184.576 336.952 183.285 335.783 181.994 334.615C183.777 333.816 185.56 333.017 187.343 332.217C186.175 330.926 185.006 329.635 183.838 328.344C185.99 327.483 188.142 326.622 190.294 325.761C189.188 324.347 188.081 322.933 186.974 321.518C189.126 320.842 191.278 320.166 193.43 319.489C192.078 318.014 190.725 316.538 189.372 315.062C191.34 314.386 193.307 313.71 195.275 313.033C194.414 311.496 193.553 309.959 192.692 308.422C194.168 307.315 195.839 306.208 197.314 305.101C190.182 303.933 182.854 302.765 175.722 301.596C176.583 303.195 177.443 304.794 178.304 306.392C176.89 307.13 175.476 307.868 174.062 308.606C174.861 310.451 175.66 312.295 176.46 314.14C174.369 314.939 172.279 315.739 170.188 316.538C171.11 318.506 172.033 320.473 172.955 322.441C170.987 322.81 169.02 323.179 167.052 323.547C168.343 325.208 169.635 326.868 170.926 328.528C168.958 329.02 166.991 329.512 165.023 330.004C166.068 331.418 167.114 332.832 168.159 334.246C166.191 335.046 164.224 335.845 162.256 336.644C163.893 337.434 165.501 338.324 167.156 339.052C171.179 339.418 175.203 339.783 179.227 340.149V340.149Z" fill="#FFFF55"/>
<path d="M177.577 339.963C179.948 334.399 182.911 328.531 185.274 322.686C187.831 316.359 190.139 309.276 192.279 303.449" stroke="black" stroke-width="2" stroke-linecap="round" stroke-linejoin="round"/>
<path d="M168.384 338.884C171.182 332.826 173.778 326.739 176.088 320.513C178.242 314.705 180.138 308.792 181.817 302.833" stroke="black" stroke-width="2" stroke-linecap="round" stroke-linejoin="round"/>
<path d="M173.925 339.134C174.679 339.031 175.465 338.032 175.276 337.295C175.086 336.561 173.919 336.069 173.211 336.341C172.645 336.559 172.346 337.428 172.497 338.015C172.647 338.601 173.326 339.217 173.925 339.134V339.134Z" fill="black"/>
<path d="M176.582 332.752C177.338 332.648 178.133 331.653 177.946 330.913C177.757 330.168 176.572 329.661 175.855 329.939C175.283 330.161 174.989 331.046 175.145 331.64C175.3 332.225 175.982 332.835 176.582 332.752V332.752Z" fill="black"/>
<path d="M179.533 326.202C180.301 326.079 181.094 325.028 180.864 324.284C180.635 323.544 179.396 323.131 178.693 323.456C178.157 323.704 177.932 324.561 178.103 325.127C178.275 325.698 178.944 326.297 179.533 326.202Z" fill="black"/>
<path d="M181.82 319.695C182.578 319.598 183.375 318.602 183.194 317.86C183.013 317.115 181.844 316.594 181.125 316.859C180.549 317.072 180.237 317.951 180.384 318.547C180.531 319.142 181.212 319.773 181.82 319.695Z" fill="black"/>
<path d="M184.131 313.26C184.917 313.12 185.751 312.035 185.483 311.283C185.213 310.527 183.869 310.209 183.17 310.605C182.673 310.887 182.543 311.728 182.738 312.265C182.933 312.801 183.57 313.359 184.131 313.26V313.26Z" fill="black"/>
<path d="M186.517 306.812C187.286 306.691 188.087 305.646 187.86 304.901C187.633 304.159 186.388 303.744 185.683 304.071C185.148 304.32 184.929 305.178 185.1 305.742C185.272 306.309 185.932 306.904 186.517 306.812V306.812Z" fill="black"/>
<path d="M154.592 323.584L135.795 323.321C140.301 316.078 143.95 308.327 146.46 299.558L163.536 300.678L154.592 323.584Z" fill="#FF5555"/>
<path d="M147.574 253.7C147.574 253.7 149.361 262.874 149.715 267.523C149.992 271.162 149.697 278.472 149.697 278.472C149.697 278.472 160.488 279.125 165.871 279.6C171.137 280.065 176.397 280.611 181.641 281.286C186.401 281.898 191.142 282.658 195.88 283.427C201.436 284.328 212.513 286.324 212.513 286.324C212.513 286.324 210.747 278.241 210.363 274.133C209.961 269.817 210.213 261.131 210.213 261.131C210.213 261.131 199.468 260.831 194.111 260.424C189.201 260.05 184.306 259.48 179.424 258.831C173.841 258.089 168.294 257.101 162.734 256.204C157.678 255.388 147.574 253.7 147.574 253.7H147.574Z" fill="#FF5555"/>
<path d="M265.626 190.674L280.499 184.448L330 234V251L265.626 190.674Z" fill="black"/>
<path d="M280.499 184.448L299.521 175.11L314.394 179.26L330 201.05V234.253L280.499 184.448Z" fill="#5555AA"/>
<path d="M94.3738 349.281L79.5015 355.507L30 305.955V288.955L94.3738 349.281Z" fill="black"/>
<path d="M79.5015 355.507L60.4788 364.845L45.6065 360.695L30 338.905V305.702L79.5015 355.507Z" fill="#5555AA"/>
<path d="M90 45C90 45 96 60 103 70C110 80 120 90 120 90C120 90 110 100 103 110C96 120 90 135 90 135C90 135 84 120 77 110C70 100 60 90 60 90C60 90 70 80 77 70C84 60 90 45 90 45Z" fill="#FF5555"/>
<path d="M30 90C30 90 33 97.5 36.5 102.5C40 107.5 45 112.5 45 112.5C45 112.5 40 117.5 36.5 122.5C33 127.5 30 135 30 135C30 135 27 127.5 23.5 122.5C20 117.5 15 112.5 15 112.5C15 112.5 20 107.5 23.5 102.5C27 97.5 30 90 30 90Z" fill="#FF5555"/>
<path d="M270 495C270 495 264 480 257 470C250 460 240 450 240 450C240 450 250 440 257 430C264 420 270 405 270 405C270 405 276 420 283 430C290 440 300 450 300 450C300 450 290 460 283 470C276 480 270 495 270 495Z" fill="#FF5555"/>
<path d="M330 450C330 450 327 442.5 323.5 437.5C320 432.5 315 427.5 315 427.5C315 427.5 320 422.5 323.5 417.5C327 412.5 330 405 330 405C330 405 333 412.5 336.5 417.5C340 422.5 345 427.5 345 427.5C345 427.5 340 432.5 336.5 437.5C333 442.5 330 450 330 450Z" fill="#FF5555"/>
</svg>
