<svg width="360" height="540" viewBox="0 0 360 540" fill="none" xmlns="http://www.w3.org/2000/svg">
<path d="M329.556 0.5H30.4444C13.9066 0.5 0.5 13.9066 0.5 30.4445V509.556C0.5 526.093 13.9066 539.5 30.4444 539.5H329.556C346.093 539.5 359.5 526.093 359.5 509.556V30.4445C359.5 13.9066 346.093 0.5 329.556 0.5Z" fill="white" stroke="black"/>
<path d="M30 29.9999C24.46 29.9999 20 34.4599 20 39.9999V44.9999H25V39.9999C25 37.2299 27.23 34.9999 30 34.9999C32.77 34.9999 35 37.2299 35 39.9999V44.9999C35 46.1274 34.6249 48.0653 34 48.8999C29.5367 58.0041 24.7218 66.0285 20 74.9999V79.9999H30H40V74.9999V69.9999H35V74.9999H30H25.5C29.9887 67.0844 33.7183 59.4281 38 51.3999C39.2501 49.7306 40 47.2551 40 44.9999V39.9999C40 34.4599 35.54 29.9999 30 29.9999Z" fill="#FF5555"/>
<path d="M330 510C335.54 510 340 505.54 340 500V495H335V500C335 502.77 332.77 505 330 505C327.23 505 325 502.77 325 500V495C325 493.872 325.375 491.935 326 491.1C330.463 481.996 335.278 473.971 340 465V460H330H320V465V470H325V465H330H334.5C330.011 472.916 326.282 480.572 322 488.6C320.75 490.269 320 492.745 320 495V500C320 505.54 324.46 510 330 510Z" fill="#FF5555"/>
<path d="M29.5 99C29.5 93.4771 26.6421 90 22.5 90C18.3579 90 15 94.4771 15 100C15.0174 100.478 15.0091 100.946 15 101.406C15 105.055 16.3384 108.595 17.5 111.906C18.6945 115.312 20.4168 118.297 22.0312 121.344C24.5319 126.063 30 135 30 135C30 135 35.4681 126.063 37.9688 121.344C39.5832 118.297 41.3055 115.312 42.5 111.906C43.6616 108.595 45 105.055 45 101.406C44.9858 100.919 44.9907 100.449 45 100C45 94.4771 41.6421 90 37.5 90C33.3579 90 30.5 93.4771 30.5 99C30.5 100 29.5 100 29.5 99Z" fill="#FF5555"/>
<path d="M329.5 441C329.5 446.523 326.642 450 322.5 450C318.358 450 315 445.523 315 440C315.017 439.522 315.009 439.054 315 438.594C315 434.945 316.338 431.405 317.5 428.094C318.695 424.688 320.417 421.703 322.031 418.656C324.532 413.937 330 405 330 405C330 405 335.468 413.937 337.969 418.656C339.583 421.703 341.305 424.688 342.5 428.094C343.662 431.405 345 434.945 345 438.594C344.986 439.081 344.991 439.551 345 440C345 445.523 341.642 450 337.5 450C333.358 450 330.5 446.523 330.5 441C330.5 440 329.5 440 329.5 441Z" fill="#FF5555"/>
<path d="M179 63C179 51.9543 173.284 45 165 45C156.716 45 150 53.9543 150 65C150.035 65.9556 150.018 66.8912 150 67.8125C150 75.111 152.677 82.1893 155 88.8125C157.389 95.6235 160.834 101.593 164.062 107.688C169.064 117.127 180 135 180 135C180 135 190.936 117.127 195.938 107.688C199.166 101.593 202.611 95.6235 205 88.8125C207.323 82.1893 210 75.111 210 67.8125C209.972 66.8381 209.981 65.8979 210 65C210 53.9543 203.284 45 195 45C186.716 45 181 51.9543 181 63C181 65 179 65 179 63Z" fill="#FF5555"/>
<path d="M179 477C179 488.046 173.284 495 165 495C156.716 495 150 486.046 150 475C150.035 474.044 150.018 473.109 150 472.188C150 464.889 152.677 457.811 155 451.188C157.389 444.377 160.834 438.407 164.062 432.312C169.064 422.873 180 405 180 405C180 405 190.936 422.873 195.938 432.312C199.166 438.407 202.611 444.377 205 451.188C207.323 457.811 210 464.889 210 472.188C209.972 473.162 209.981 474.102 210 475C210 486.046 203.284 495 195 495C186.716 495 181 488.046 181 477C181 475 179 475 179 477V477Z" fill="#FF5555"/>
</svg>
