<svg width="360" height="540" viewBox="0 0 360 540" fill="none" xmlns="http://www.w3.org/2000/svg">
<path d="M329.556 0.5H30.4444C13.9066 0.5 0.5 13.9066 0.5 30.4445V509.556C0.5 526.093 13.9066 539.5 30.4444 539.5H329.556C346.093 539.5 359.5 526.093 359.5 509.556V30.4445C359.5 13.9066 346.093 0.5 329.556 0.5Z" fill="white" stroke="black"/>
<path d="M30 29.9999C24.46 29.9999 20 34.4599 20 39.9999V44.9999H25V39.9999C25 37.2299 27.23 34.9999 30 34.9999C32.77 34.9999 35 37.2299 35 39.9999V44.9999C35 46.1274 34.6249 48.0653 34 48.8999C29.5367 58.0041 24.7218 66.0285 20 74.9999V79.9999H30H40V74.9999V69.9999H35V74.9999H30H25.5C29.9887 67.0844 33.7183 59.4281 38 51.3999C39.2501 49.7306 40 47.2551 40 44.9999V39.9999C40 34.4599 35.54 29.9999 30 29.9999Z" fill="#FF5555"/>
<path d="M330 510C335.54 510 340 505.54 340 500V495H335V500C335 502.77 332.77 505 330 505C327.23 505 325 502.77 325 500V495C325 493.872 325.375 491.935 326 491.1C330.463 481.996 335.278 473.971 340 465V460H330H320V465V470H325V465H330H334.5C330.011 472.916 326.282 480.572 322 488.6C320.75 490.269 320 492.745 320 495V500C320 505.54 324.46 510 330 510Z" fill="#FF5555"/>
<path d="M180 45C180 45 186 60 193 70C200 80 210 90 210 90C210 90 200 100 193 110C186 120 180 135 180 135C180 135 174 120 167 110C160 100 150 90 150 90C150 90 160 80 167 70C174 60 180 45 180 45Z" fill="#FF5555"/>
<path d="M180 405C180 405 186 420 193 430C200 440 210 450 210 450C210 450 200 460 193 470C186 480 180 495 180 495C180 495 174 480 167 470C160 460 150 450 150 450C150 450 160 440 167 430C174 420 180 405 180 405Z" fill="#FF5555"/>
<path d="M30 90C30 90 33 97.5 36.5 102.5C40 107.5 45 112.5 45 112.5C45 112.5 40 117.5 36.5 122.5C33 127.5 30 135 30 135C30 135 27 127.5 23.5 122.5C20 117.5 15 112.5 15 112.5C15 112.5 20 107.5 23.5 102.5C27 97.5 30 90 30 90Z" fill="#FF5555"/>
<path d="M330 405C330 405 333 412.5 336.5 417.5C340 422.5 345 427.5 345 427.5C345 427.5 340 432.5 336.5 437.5C333 442.5 330 450 330 450C330 450 327 442.5 323.5 437.5C320 432.5 315 427.5 315 427.5C315 427.5 320 422.5 323.5 417.5C327 412.5 330 405 330 405Z" fill="#FF5555"/>
</svg>
