<svg width="360" height="540" viewBox="0 0 360 540" fill="none" xmlns="http://www.w3.org/2000/svg">
<path d="M329.556 0.5H30.4444C13.9066 0.5 0.5 13.9066 0.5 30.4445V509.556C0.5 526.093 13.9066 539.5 30.4444 539.5H329.556C346.093 539.5 359.5 526.093 359.5 509.556V30.4445C359.5 13.9066 346.093 0.5 329.556 0.5Z" fill="white" stroke="black"/>
<path d="M30 29.9999C24.46 29.9999 20 34.4599 20 39.9999V44.9999H25V39.9999C25 37.2299 27.23 34.9999 30 34.9999C32.77 34.9999 35 37.2299 35 39.9999V44.9999C35 46.1274 34.6249 48.0653 34 48.8999C29.5367 58.0041 24.7218 66.0285 20 74.9999V79.9999H30H40V74.9999V69.9999H35V74.9999H30H25.5C29.9887 67.0844 33.7183 59.4281 38 51.3999C39.2501 49.7306 40 47.2551 40 44.9999V39.9999C40 34.4599 35.54 29.9999 30 29.9999Z" fill="black"/>
<path d="M330 510C335.54 510 340 505.54 340 500V495H335V500C335 502.77 332.77 505 330 505C327.23 505 325 502.77 325 500V495C325 493.872 325.375 491.935 326 491.1C330.463 481.996 335.278 473.971 340 465V460H330H320V465V470H325V465H330H334.5C330.011 472.916 326.282 480.572 322 488.6C320.75 490.269 320 492.745 320 495V500C320 505.54 324.46 510 330 510Z" fill="black"/>
<path d="M32.5 118C33.5 120 36 123 38.5 123C43 123 45 119 45 114C45 109 43 104.5 38.5 104.5C36 104.5 34.5 107 33 108.5C32.5 109 32 108.5 32.5 108C34 106.5 36.5 102.5 36.5 99C36.5 95 34 90 30 90C26 90 23.5 95 23.5 99C23.5 102.5 26 106.5 27.5 108C28 108.5 27.5 109 27 108.5C25.5 107 24 104.5 21.5 104.5C17 104.5 15 109 15 114C15 119 17 123 21.5 123C24 123 26.5 120 27.5 118C28 117.5 28 118 28 118.5C27.5 122.5 27.5 123.5 27 126.5C26.5 129.5 25 135 25 135C27.5 134 32.5 134 35 135C35 135 33.5 129.5 33 126.5C32.5 123.5 32.5 122.5 32 118.5C32 118 32 117.5 32.5 118Z" fill="black"/>
<path d="M332.5 422C333.5 420 336 417 338.5 417C343 417 345 421 345 426C345 431 343 435.5 338.5 435.5C336 435.5 334.5 433 333 431.5C332.5 431 332 431.5 332.5 432C334 433.5 336.5 437.5 336.5 441C336.5 445 334 450 330 450C326 450 323.5 445 323.5 441C323.5 437.5 326 433.5 327.5 432C328 431.5 327.5 431 327 431.5C325.5 433 324 435.5 321.5 435.5C317 435.5 315 431 315 426C315 421 317 417 321.5 417C324 417 326.5 420 327.5 422C328 422.5 328 422 328 421.5C327.5 417.5 327.5 416.5 327 413.5C326.5 410.5 325 405 325 405C327.5 406 332.5 406 335 405C335 405 333.5 410.5 333 413.5C332.5 416.5 332.5 417.5 332 421.5C332 422 332 422.5 332.5 422Z" fill="black"/>
<path d="M185 101C187 105 192 111 197 111C206 111 210 103 210 93C210 83 206 74 197 74C192 74 189 79 186 82C185 83 184 82 185 81C188 78 193 70 193 63C193 55 188 45 180 45C172 45 167 55 167 63C167 70 172 78 175 81C176 82 175 83 174 82C171 79 168 74 163 74C154 74 150 83 150 93C150 103 154 111 163 111C168 111 173 105 175 101C176 100 176 101 176 102C175 110 175 112 174 118C173 124 170 135 170 135C175 133 185 133 190 135C190 135 187 124 186 118C185 112 185 110 184 102C184 101 184 100 185 101Z" fill="black"/>
<path d="M185 439C187 435 192 429 197 429C206 429 210 437 210 447C210 457 206 466 197 466C192 466 189 461 186 458C185 457 184 458 185 459C188 462 193 470 193 477C193 485 188 495 180 495C172 495 167 485 167 477C167 470 172 462 175 459C176 458 175 457 174 458C171 461 168 466 163 466C154 466 150 457 150 447C150 437 154 429 163 429C168 429 173 435 175 439C176 440 176 439 176 438C175 430 175 428 174 422C173 416 170 405 170 405C175 407 185 407 190 405C190 405 187 416 186 422C185 428 185 430 184 438C184 439 184 440 185 439Z" fill="black"/>
</svg>
