<svg width="360" height="540" viewBox="0 0 360 540" fill="none" xmlns="http://www.w3.org/2000/svg">
<path d="M329.556 0.5H30.4444C13.9066 0.5 0.5 13.9066 0.5 30.4445V509.556C0.5 526.093 13.9066 539.5 30.4444 539.5H329.556C346.093 539.5 359.5 526.093 359.5 509.556V30.4445C359.5 13.9066 346.093 0.5 329.556 0.5Z" fill="white" stroke="black"/>
<path d="M30 29.9999C24.46 29.9999 20 34.4599 20 39.9999V44.9999H25V39.9999C25 37.2299 27.23 34.9999 30 34.9999C32.77 34.9999 35 37.2299 35 39.9999V44.9999C35 47.7699 32.77 49.9999 30 49.9999H25V54.9999H30C32.77 54.9999 35 57.2299 35 59.9999V69.9999C35 72.7699 32.77 74.9999 30 74.9999C27.23 74.9999 25 72.7699 25 69.9999V64.9999H20V69.9999C20 75.5399 24.46 79.9999 30 79.9999C35.54 79.9999 40 75.5399 40 69.9999V59.9999C40 56.9963 38.6771 54.3299 36.5938 52.4999C38.6771 50.6699 40 48.0035 40 44.9999V39.9999C40 34.4599 35.54 29.9999 30 29.9999Z" fill="#FF5555"/>
<path d="M330 510C335.54 510 340 505.54 340 500V495H335V500C335 502.77 332.77 505 330 505C327.23 505 325 502.77 325 500V495C325 492.23 327.23 490 330 490H335V485H330C327.23 485 325 482.77 325 480V470C325 467.23 327.23 465 330 465C332.77 465 335 467.23 335 470V475H340V470C340 464.46 335.54 460 330 460C324.46 460 320 464.46 320 470V480C320 483.004 321.323 485.67 323.406 487.5C321.323 489.33 320 491.996 320 495V500C320 505.54 324.46 510 330 510V510Z" fill="#FF5555"/>
<path d="M179 63C179 51.9543 173.284 45 165 45C156.716 45 150 53.9543 150 65C150.035 65.9556 150.018 66.8912 150 67.8125C150 75.111 152.677 82.1893 155 88.8125C157.389 95.6235 160.834 101.593 164.062 107.688C169.064 117.127 180 135 180 135C180 135 190.936 117.127 195.938 107.688C199.166 101.593 202.611 95.6235 205 88.8125C207.323 82.1893 210 75.111 210 67.8125C209.972 66.8381 209.981 65.8979 210 65C210 53.9543 203.284 45 195 45C186.716 45 181 51.9543 181 63C181 65 179 65 179 63Z" fill="#FF5555"/>
<path d="M179 243C179 231.954 173.284 225 165 225C156.716 225 150 233.954 150 245C150.035 245.956 150.018 246.891 150 247.812C150 255.111 152.677 262.189 155 268.812C157.389 275.623 160.834 281.593 164.062 287.688C169.064 297.127 180 315 180 315C180 315 190.936 297.127 195.938 287.688C199.166 281.593 202.611 275.623 205 268.812C207.323 262.189 210 255.111 210 247.812C209.972 246.838 209.981 245.898 210 245C210 233.954 203.284 225 195 225C186.716 225 181 231.954 181 243C181 245 179 245 179 243Z" fill="#FF5555"/>
<path d="M179 477C179 488.046 173.284 495 165 495C156.716 495 150 486.046 150 475C150.035 474.044 150.018 473.109 150 472.188C150 464.889 152.677 457.811 155 451.188C157.389 444.377 160.834 438.407 164.062 432.312C169.064 422.873 180 405 180 405C180 405 190.936 422.873 195.938 432.312C199.166 438.407 202.611 444.377 205 451.188C207.323 457.811 210 464.889 210 472.188C209.972 473.162 209.981 474.102 210 475C210 486.046 203.284 495 195 495C186.716 495 181 488.046 181 477C181 475 179 475 179 477V477Z" fill="#FF5555"/>
<path d="M29.5 99C29.5 93.4771 26.6421 90 22.5 90C18.3579 90 15 94.4771 15 100C15.0174 100.478 15.0091 100.946 15 101.406C15 105.055 16.3384 108.595 17.5 111.906C18.6945 115.312 20.4168 118.297 22.0312 121.344C24.5319 126.063 30 135 30 135C30 135 35.4681 126.063 37.9688 121.344C39.5832 118.297 41.3055 115.312 42.5 111.906C43.6616 108.595 45 105.055 45 101.406C44.9858 100.919 44.9907 100.449 45 100C45 94.4771 41.6421 90 37.5 90C33.3579 90 30.5 93.4771 30.5 99C30.5 100 29.5 100 29.5 99Z" fill="#FF5555"/>
<path d="M329.5 441C329.5 446.523 326.642 450 322.5 450C318.358 450 315 445.523 315 440C315.017 439.522 315.009 439.054 315 438.594C315 434.945 316.338 431.405 317.5 428.094C318.695 424.688 320.417 421.703 322.031 418.656C324.532 413.937 330 405 330 405C330 405 335.468 413.937 337.969 418.656C339.583 421.703 341.305 424.688 342.5 428.094C343.662 431.405 345 434.945 345 438.594C344.986 439.081 344.991 439.551 345 440C345 445.523 341.642 450 337.5 450C333.358 450 330.5 446.523 330.5 441C330.5 440 329.5 440 329.5 441Z" fill="#FF5555"/>
</svg>
