<svg width="360" height="540" viewBox="0 0 360 540" fill="none" xmlns="http://www.w3.org/2000/svg">
<path d="M329.556 0.5H30.4444C13.9066 0.5 0.5 13.9066 0.5 30.4445V509.556C0.5 526.093 13.9066 539.5 30.4444 539.5H329.556C346.093 539.5 359.5 526.093 359.5 509.556V30.4445C359.5 13.9066 346.093 0.5 329.556 0.5Z" fill="white" stroke="black"/>
<path d="M30 29.9999C24.46 29.9999 20 34.4599 20 39.9999V44.9999H25V39.9999C25 37.2299 27.23 34.9999 30 34.9999C32.77 34.9999 35 37.2299 35 39.9999V44.9999C35 47.7699 32.77 49.9999 30 49.9999H25V54.9999H30C32.77 54.9999 35 57.2299 35 59.9999V69.9999C35 72.7699 32.77 74.9999 30 74.9999C27.23 74.9999 25 72.7699 25 69.9999V64.9999H20V69.9999C20 75.5399 24.46 79.9999 30 79.9999C35.54 79.9999 40 75.5399 40 69.9999V59.9999C40 56.9963 38.6771 54.3299 36.5938 52.4999C38.6771 50.6699 40 48.0035 40 44.9999V39.9999C40 34.4599 35.54 29.9999 30 29.9999Z" fill="#FF5555"/>
<path d="M330 510C335.54 510 340 505.54 340 500V495H335V500C335 502.77 332.77 505 330 505C327.23 505 325 502.77 325 500V495C325 492.23 327.23 490 330 490H335V485H330C327.23 485 325 482.77 325 480V470C325 467.23 327.23 465 330 465C332.77 465 335 467.23 335 470V475H340V470C340 464.46 335.54 460 330 460C324.46 460 320 464.46 320 470V480C320 483.004 321.323 485.67 323.406 487.5C321.323 489.33 320 491.996 320 495V500C320 505.54 324.46 510 330 510V510Z" fill="#FF5555"/>
<path d="M30 90C30 90 33 97.5 36.5 102.5C40 107.5 45 112.5 45 112.5C45 112.5 40 117.5 36.5 122.5C33 127.5 30 135 30 135C30 135 27 127.5 23.5 122.5C20 117.5 15 112.5 15 112.5C15 112.5 20 107.5 23.5 102.5C27 97.5 30 90 30 90Z" fill="#FF5555"/>
<path d="M330 405C330 405 333 412.5 336.5 417.5C340 422.5 345 427.5 345 427.5C345 427.5 340 432.5 336.5 437.5C333 442.5 330 450 330 450C330 450 327 442.5 323.5 437.5C320 432.5 315 427.5 315 427.5C315 427.5 320 422.5 323.5 417.5C327 412.5 330 405 330 405Z" fill="#FF5555"/>
<path d="M180 45C180 45 186 60 193 70C200 80 210 90 210 90C210 90 200 100 193 110C186 120 180 135 180 135C180 135 174 120 167 110C160 100 150 90 150 90C150 90 160 80 167 70C174 60 180 45 180 45Z" fill="#FF5555"/>
<path d="M180 225C180 225 186 240 193 250C200 260 210 270 210 270C210 270 200 280 193 290C186 300 180 315 180 315C180 315 174 300 167 290C160 280 150 270 150 270C150 270 160 260 167 250C174 240 180 225 180 225Z" fill="#FF5555"/>
<path d="M180 405C180 405 186 420 193 430C200 440 210 450 210 450C210 450 200 460 193 470C186 480 180 495 180 495C180 495 174 480 167 470C160 460 150 450 150 450C150 450 160 440 167 430C174 420 180 405 180 405Z" fill="#FF5555"/>
</svg>
