<svg width="360" height="540" viewBox="0 0 360 540" fill="none" xmlns="http://www.w3.org/2000/svg">
<path d="M329.556 0.5H30.4444C13.9066 0.5 0.5 13.9066 0.5 30.4445V509.556C0.5 526.093 13.9066 539.5 30.4444 539.5H329.556C346.093 539.5 359.5 526.093 359.5 509.556V30.4445C359.5 13.9066 346.093 0.5 329.556 0.5Z" fill="white" stroke="black"/>
<path d="M30 29.9999C24.46 29.9999 20 34.4599 20 39.9999V44.9999H25V39.9999C25 37.2299 27.23 34.9999 30 34.9999C32.77 34.9999 35 37.2299 35 39.9999V44.9999C35 47.7699 32.77 49.9999 30 49.9999H25V54.9999H30C32.77 54.9999 35 57.2299 35 59.9999V69.9999C35 72.7699 32.77 74.9999 30 74.9999C27.23 74.9999 25 72.7699 25 69.9999V64.9999H20V69.9999C20 75.5399 24.46 79.9999 30 79.9999C35.54 79.9999 40 75.5399 40 69.9999V59.9999C40 56.9963 38.6771 54.3299 36.5938 52.4999C38.6771 50.6699 40 48.0035 40 44.9999V39.9999C40 34.4599 35.54 29.9999 30 29.9999Z" fill="black"/>
<path d="M330 510C335.54 510 340 505.54 340 500V495H335V500C335 502.77 332.77 505 330 505C327.23 505 325 502.77 325 500V495C325 492.23 327.23 490 330 490H335V485H330C327.23 485 325 482.77 325 480V470C325 467.23 327.23 465 330 465C332.77 465 335 467.23 335 470V475H340V470C340 464.46 335.54 460 330 460C324.46 460 320 464.46 320 470V480C320 483.004 321.323 485.67 323.406 487.5C321.323 489.33 320 491.996 320 495V500C320 505.54 324.46 510 330 510V510Z" fill="black"/>
<path d="M185 101C186 105 190 115 197 115C206 115 210 107 210 97C210 90 207.421 85.3877 205 80C202.422 74.2633 198.621 69.1426 195 64C190.355 57.4021 180 45 180 45C180 45 169.645 57.4021 165 64C161.379 69.1426 157.578 74.2633 155 80C152.579 85.3877 150 90 150 97C150 107 154 115 163 115C170 115 174 105 175 101C176 100 176 101 176 102C175 110 175 112 174 118C173 124 170 135 170 135C175 133 185 133 190 135C190 135 187 124 186 118C185 112 185 110 184 102C184 101 184 100 185 101Z" fill="black"/>
<path d="M185 281C186 285 190 295 197 295C206 295 210 287 210 277C210 270 207.421 265.388 205 260C202.422 254.263 198.621 249.143 195 244C190.355 237.402 180 225 180 225C180 225 169.645 237.402 165 244C161.379 249.143 157.578 254.263 155 260C152.579 265.388 150 270 150 277C150 287 154 295 163 295C170 295 174 285 175 281C176 280 176 281 176 282C175 290 175 292 174 298C173 304 170 315 170 315C175 313 185 313 190 315C190 315 187 304 186 298C185 292 185 290 184 282C184 281 184 280 185 281Z" fill="black"/>
<path d="M185 439C186 435 190 425 197 425C206 425 210 433 210 443C210 450 207.421 454.612 205 460C202.422 465.737 198.621 470.857 195 476C190.355 482.598 180 495 180 495C180 495 169.645 482.598 165 476C161.379 470.857 157.578 465.737 155 460C152.579 454.612 150 450 150 443C150 433 154 425 163 425C170 425 174 435 175 439C176 440 176 439 176 438C175 430 175 428 174 422C173 416 170 405 170 405C175 407 185 407 190 405C190 405 187 416 186 422C185 428 185 430 184 438C184 439 184 440 185 439Z" fill="black"/>
<path d="M32.5 118C33 120 35 125 38.5 125C43 125 45 121 45 116C45 112.5 43.7105 110.194 42.5 107.5C41.2111 104.632 39.3103 102.071 37.5 99.5C35.1774 96.2011 30 90 30 90C30 90 24.8226 96.2011 22.5 99.5C20.6897 102.071 18.7889 104.632 17.5 107.5C16.2895 110.194 15 112.5 15 116C15 121 17 125 21.5 125C25 125 27 120 27.5 118C28 117.5 28 118 28 118.5C27.5 122.5 27.5 123.5 27 126.5C26.5 129.5 25 135 25 135C27.5 134 32.5 134 35 135C35 135 33.5 129.5 33 126.5C32.5 123.5 32.5 122.5 32 118.5C32 118 32 117.5 32.5 118Z" fill="black"/>
<path d="M332.5 422C333 420 335 415 338.5 415C343 415 345 419 345 424C345 427.5 343.711 429.806 342.5 432.5C341.211 435.368 339.31 437.929 337.5 440.5C335.177 443.799 330 450 330 450C330 450 324.823 443.799 322.5 440.5C320.69 437.929 318.789 435.368 317.5 432.5C316.289 429.806 315 427.5 315 424C315 419 317 415 321.5 415C325 415 327 420 327.5 422C328 422.5 328 422 328 421.5C327.5 417.5 327.5 416.5 327 413.5C326.5 410.5 325 405 325 405C327.5 406 332.5 406 335 405C335 405 333.5 410.5 333 413.5C332.5 416.5 332.5 417.5 332 421.5C332 422 332 422.5 332.5 422Z" fill="black"/>
</svg>
