<svg width="360" height="540" viewBox="0 0 360 540" fill="none" xmlns="http://www.w3.org/2000/svg">
<path d="M329.556 0.5H30.4444C13.9066 0.5 0.5 13.9066 0.5 30.4445V509.556C0.5 526.093 13.9066 539.5 30.4444 539.5H329.556C346.093 539.5 359.5 526.093 359.5 509.556V30.4445C359.5 13.9066 346.093 0.5 329.556 0.5Z" fill="white" stroke="black"/>
<path d="M30 29.9999L20 64.9999V69.9999H32V79.9999H37V69.9999H40V64.9999H37V49.9999H32V64.9999H25.2L35.2 29.9999H30Z" fill="#FF5555"/>
<path d="M330 510L340 475V470H328V460H323V470H320V475H323V490H328V475H334.8L324.8 510H330Z" fill="#FF5555"/>
<path d="M90 45C90 45 96 60 103 70C110 80 120 90 120 90C120 90 110 100 103 110C96 120 90 135 90 135C90 135 84 120 77 110C70 100 60 90 60 90C60 90 70 80 77 70C84 60 90 45 90 45Z" fill="#FF5555"/>
<path d="M270 45C270 45 276 60 283 70C290 80 300 90 300 90C300 90 290 100 283 110C276 120 270 135 270 135C270 135 264 120 257 110C250 100 240 90 240 90C240 90 250 80 257 70C264 60 270 45 270 45Z" fill="#FF5555"/>
<path d="M90 405C90 405 96 420 103 430C110 440 120 450 120 450C120 450 110 460 103 470C96 480 90 495 90 495C90 495 84 480 77 470C70 460 60 450 60 450C60 450 70 440 77 430C84 420 90 405 90 405Z" fill="#FF5555"/>
<path d="M270 405C270 405 276 420 283 430C290 440 300 450 300 450C300 450 290 460 283 470C276 480 270 495 270 495C270 495 264 480 257 470C250 460 240 450 240 450C240 450 250 440 257 430C264 420 270 405 270 405Z" fill="#FF5555"/>
<path d="M30 90C30 90 33 97.5 36.5 102.5C40 107.5 45 112.5 45 112.5C45 112.5 40 117.5 36.5 122.5C33 127.5 30 135 30 135C30 135 27 127.5 23.5 122.5C20 117.5 15 112.5 15 112.5C15 112.5 20 107.5 23.5 102.5C27 97.5 30 90 30 90Z" fill="#FF5555"/>
<path d="M330 405C330 405 333 412.5 336.5 417.5C340 422.5 345 427.5 345 427.5C345 427.5 340 432.5 336.5 437.5C333 442.5 330 450 330 450C330 450 327 442.5 323.5 437.5C320 432.5 315 427.5 315 427.5C315 427.5 320 422.5 323.5 417.5C327 412.5 330 405 330 405Z" fill="#FF5555"/>
</svg>
