<svg width="360" height="540" viewBox="0 0 360 540" fill="none" xmlns="http://www.w3.org/2000/svg">
<path d="M329.556 0.5H30.4444C13.9066 0.5 0.5 13.9066 0.5 30.4445V509.556C0.5 526.093 13.9066 539.5 30.4444 539.5H329.556C346.093 539.5 359.5 526.093 359.5 509.556V30.4445C359.5 13.9066 346.093 0.5 329.556 0.5Z" fill="white" stroke="black"/>
<path d="M30 29.9999L20 64.9999V69.9999H32V79.9999H37V69.9999H40V64.9999H37V49.9999H32V64.9999H25.2L35.2 29.9999H30Z" fill="black"/>
<path d="M330 510L340 475V470H328V460H323V470H320V475H323V490H328V475H334.8L324.8 510H330Z" fill="black"/>
<path d="M32.5 118C33 120 35 125 38.5 125C43 125 45 121 45 116C45 112.5 43.7105 110.194 42.5 107.5C41.2111 104.632 39.3103 102.071 37.5 99.5C35.1774 96.2011 30 90 30 90C30 90 24.8226 96.2011 22.5 99.5C20.6897 102.071 18.7889 104.632 17.5 107.5C16.2895 110.194 15 112.5 15 116C15 121 17 125 21.5 125C25 125 27 120 27.5 118C28 117.5 28 118 28 118.5C27.5 122.5 27.5 123.5 27 126.5C26.5 129.5 25 135 25 135C27.5 134 32.5 134 35 135C35 135 33.5 129.5 33 126.5C32.5 123.5 32.5 122.5 32 118.5C32 118 32 117.5 32.5 118Z" fill="black"/>
<path d="M332.5 422C333 420 335 415 338.5 415C343 415 345 419 345 424C345 427.5 343.711 429.806 342.5 432.5C341.211 435.368 339.31 437.929 337.5 440.5C335.177 443.799 330 450 330 450C330 450 324.823 443.799 322.5 440.5C320.69 437.929 318.789 435.368 317.5 432.5C316.289 429.806 315 427.5 315 424C315 419 317 415 321.5 415C325 415 327 420 327.5 422C328 422.5 328 422 328 421.5C327.5 417.5 327.5 416.5 327 413.5C326.5 410.5 325 405 325 405C327.5 406 332.5 406 335 405C335 405 333.5 410.5 333 413.5C332.5 416.5 332.5 417.5 332 421.5C332 422 332 422.5 332.5 422Z" fill="black"/>
<path d="M95.0079 100.984C96 104.988 100.004 115.016 106.984 115.016C115.984 115.016 119.988 107.008 119.988 97.0157C119.988 90 117.437 85.3937 114.992 80.0079C112.406 74.2677 108.614 69.1299 105 63.9921C100.358 57.4016 90.0118 45 90.0118 45C90.0118 45 79.6299 57.4016 74.9882 63.9921C71.374 69.1299 67.5827 74.2677 64.9961 80.0079C62.5866 85.3937 60 90 60 97.0157C60 107.008 64.0039 115.016 73.0039 115.016C79.9843 115.016 83.9882 104.988 85.0157 100.984C86.0079 99.9921 86.0079 100.984 86.0079 102.012C85.0157 109.984 85.0157 112.004 83.9882 117.992C82.9961 124.016 79.9843 135 79.9843 135C85.0157 133.016 95.0079 133.016 100.004 135C100.004 135 96.9921 124.016 96 117.992C95.0079 112.004 95.0079 109.984 94.0157 102.012C94.0157 100.984 94.0157 99.9921 95.0079 100.984V100.984Z" fill="black"/>
<path d="M275.008 100.984C276 104.988 280.004 115.016 286.984 115.016C295.984 115.016 299.988 107.008 299.988 97.0157C299.988 90 297.437 85.3937 294.992 80.0079C292.406 74.2677 288.614 69.1299 285 63.9921C280.358 57.4016 270.012 45 270.012 45C270.012 45 259.63 57.4016 254.988 63.9921C251.374 69.1299 247.583 74.2677 244.996 80.0079C242.587 85.3937 240 90 240 97.0157C240 107.008 244.004 115.016 253.004 115.016C259.984 115.016 263.988 104.988 265.016 100.984C266.008 99.9921 266.008 100.984 266.008 102.012C265.016 109.984 265.016 112.004 263.988 117.992C262.996 124.016 259.984 135 259.984 135C265.016 133.016 275.008 133.016 280.004 135C280.004 135 276.992 124.016 276 117.992C275.008 112.004 275.008 109.984 274.016 102.012C274.016 100.984 274.016 99.9921 275.008 100.984V100.984Z" fill="black"/>
<path d="M95.0079 439.016C96 435.012 100.004 424.984 106.984 424.984C115.984 424.984 119.988 432.992 119.988 442.984C119.988 450 117.437 454.606 114.992 459.992C112.406 465.732 108.614 470.87 105 476.008C100.358 482.598 90.0118 495 90.0118 495C90.0118 495 79.6299 482.598 74.9882 476.008C71.374 470.87 67.5827 465.732 64.9961 459.992C62.5866 454.606 60 450 60 442.984C60 432.992 64.0039 424.984 73.0039 424.984C79.9843 424.984 83.9882 435.012 85.0157 439.016C86.0079 440.008 86.0079 439.016 86.0079 437.988C85.0157 430.016 85.0157 427.996 83.9882 422.008C82.9961 415.984 79.9843 405 79.9843 405C85.0157 406.984 95.0079 406.984 100.004 405C100.004 405 96.9921 415.984 96 422.008C95.0079 427.996 95.0079 430.016 94.0157 437.988C94.0157 439.016 94.0157 440.008 95.0079 439.016V439.016Z" fill="black"/>
<path d="M275.008 439.016C276 435.012 280.004 424.984 286.984 424.984C295.984 424.984 299.988 432.992 299.988 442.984C299.988 450 297.437 454.606 294.992 459.992C292.406 465.732 288.614 470.87 285 476.008C280.358 482.598 270.012 495 270.012 495C270.012 495 259.63 482.598 254.988 476.008C251.374 470.87 247.583 465.732 244.996 459.992C242.587 454.606 240 450 240 442.984C240 432.992 244.004 424.984 253.004 424.984C259.984 424.984 263.988 435.012 265.016 439.016C266.008 440.008 266.008 439.016 266.008 437.988C265.016 430.016 265.016 427.996 263.988 422.008C262.996 415.984 259.984 405 259.984 405C265.016 406.984 275.008 406.984 280.004 405C280.004 405 276.992 415.984 276 422.008C275.008 427.996 275.008 430.016 274.016 437.988C274.016 439.016 274.016 440.008 275.008 439.016V439.016Z" fill="black"/>
</svg>
