<svg width="361" height="540" viewBox="0 0 361 540" fill="none" xmlns="http://www.w3.org/2000/svg">
<path d="M329.92 0.5H30.8085C14.2706 0.5 0.864014 13.9066 0.864014 30.4445V509.556C0.864014 526.093 14.2706 539.5 30.8085 539.5H329.92C346.457 539.5 359.864 526.093 359.864 509.556V30.4445C359.864 13.9066 346.457 0.5 329.92 0.5Z" fill="white" stroke="black"/>
<path d="M20.364 29.9999V44.9999V49.9999H30.364C33.134 49.9999 35.364 52.2299 35.364 54.9999V69.9999C35.364 72.7699 33.134 74.9999 30.364 74.9999C27.594 74.9999 25.364 72.7699 25.364 69.9999V64.9999H20.364V69.9999C20.364 75.5399 24.824 79.9999 30.364 79.9999C35.904 79.9999 40.364 75.5399 40.364 69.9999V54.9999C40.364 49.4599 35.904 44.9999 30.364 44.9999H25.364V34.9999H30.364H40.364V29.9999H30.364H25.364H20.364Z" fill="#FF5555"/>
<path d="M340.364 510V495V490H330.364C327.594 490 325.364 487.77 325.364 485V470C325.364 467.23 327.594 465 330.364 465C333.134 465 335.364 467.23 335.364 470V475H340.364V470C340.364 464.46 335.904 460 330.364 460C324.824 460 320.364 464.46 320.364 470V485C320.364 490.54 324.824 495 330.364 495H335.364V505H330.364H320.364V510H330.364H335.364H340.364Z" fill="#FF5555"/>
<path d="M30.364 90C30.364 90 33.364 97.5 36.864 102.5C40.364 107.5 45.364 112.5 45.364 112.5C45.364 112.5 40.364 117.5 36.864 122.5C33.364 127.5 30.364 135 30.364 135C30.364 135 27.364 127.5 23.864 122.5C20.364 117.5 15.364 112.5 15.364 112.5C15.364 112.5 20.364 107.5 23.864 102.5C27.364 97.5 30.364 90 30.364 90Z" fill="#FF5555"/>
<path d="M330.364 405C330.364 405 333.364 412.5 336.864 417.5C340.364 422.5 345.364 427.5 345.364 427.5C345.364 427.5 340.364 432.5 336.864 437.5C333.364 442.5 330.364 450 330.364 450C330.364 450 327.364 442.5 323.864 437.5C320.364 432.5 315.364 427.5 315.364 427.5C315.364 427.5 320.364 422.5 323.864 417.5C327.364 412.5 330.364 405 330.364 405Z" fill="#FF5555"/>
<path d="M90.364 45C90.364 45 96.364 60 103.364 70C110.364 80 120.364 90 120.364 90C120.364 90 110.364 100 103.364 110C96.364 120 90.364 135 90.364 135C90.364 135 84.364 120 77.364 110C70.364 100 60.364 90 60.364 90C60.364 90 70.364 80 77.364 70C84.364 60 90.364 45 90.364 45Z" fill="#FF5555"/>
<path d="M270.364 45C270.364 45 276.364 60 283.364 70C290.364 80 300.364 90 300.364 90C300.364 90 290.364 100 283.364 110C276.364 120 270.364 135 270.364 135C270.364 135 264.364 120 257.364 110C250.364 100 240.364 90 240.364 90C240.364 90 250.364 80 257.364 70C264.364 60 270.364 45 270.364 45Z" fill="#FF5555"/>
<path d="M180.364 225C180.364 225 186.364 240 193.364 250C200.364 260 210.364 270 210.364 270C210.364 270 200.364 280 193.364 290C186.364 300 180.364 315 180.364 315C180.364 315 174.364 300 167.364 290C160.364 280 150.364 270 150.364 270C150.364 270 160.364 260 167.364 250C174.364 240 180.364 225 180.364 225Z" fill="#FF5555"/>
<path d="M90.364 405C90.364 405 96.364 420 103.364 430C110.364 440 120.364 450 120.364 450C120.364 450 110.364 460 103.364 470C96.364 480 90.364 495 90.364 495C90.364 495 84.364 480 77.364 470C70.364 460 60.364 450 60.364 450C60.364 450 70.364 440 77.364 430C84.364 420 90.364 405 90.364 405Z" fill="#FF5555"/>
<path d="M270.364 405C270.364 405 276.364 420 283.364 430C290.364 440 300.364 450 300.364 450C300.364 450 290.364 460 283.364 470C276.364 480 270.364 495 270.364 495C270.364 495 264.364 480 257.364 470C250.364 460 240.364 450 240.364 450C240.364 450 250.364 440 257.364 430C264.364 420 270.364 405 270.364 405Z" fill="#FF5555"/>
</svg>
