<svg width="360" height="540" viewBox="0 0 360 540" fill="none" xmlns="http://www.w3.org/2000/svg">
<path d="M329.556 0.5H30.4444C13.9066 0.5 0.5 13.9066 0.5 30.4445V509.556C0.5 526.093 13.9066 539.5 30.4444 539.5H329.556C346.093 539.5 359.5 526.093 359.5 509.556V30.4445C359.5 13.9066 346.093 0.5 329.556 0.5Z" fill="white" stroke="black"/>
<path d="M20 29.9999V34.9999V39.9999H25V34.9999H35L25 79.9999H30L40 34.9999V29.9999H20Z" fill="black"/>
<path d="M340 510V505V500H335V505H325L335 460H330L320 505V510H340Z" fill="black"/>
<path d="M32.5 118C33.5 120 36 123 38.5 123C43 123 45 119 45 114C45 109 43 104.5 38.5 104.5C36 104.5 34.5 107 33 108.5C32.5 109 32 108.5 32.5 108C34 106.5 36.5 102.5 36.5 99C36.5 95 34 90 30 90C26 90 23.5 95 23.5 99C23.5 102.5 26 106.5 27.5 108C28 108.5 27.5 109 27 108.5C25.5 107 24 104.5 21.5 104.5C17 104.5 15 109 15 114C15 119 17 123 21.5 123C24 123 26.5 120 27.5 118C28 117.5 28 118 28 118.5C27.5 122.5 27.5 123.5 27 126.5C26.5 129.5 25 135 25 135C27.5 134 32.5 134 35 135C35 135 33.5 129.5 33 126.5C32.5 123.5 32.5 122.5 32 118.5C32 118 32 117.5 32.5 118Z" fill="black"/>
<path d="M332.5 422C333.5 420 336 417 338.5 417C343 417 345 421 345 426C345 431 343 435.5 338.5 435.5C336 435.5 334.5 433 333 431.5C332.5 431 332 431.5 332.5 432C334 433.5 336.5 437.5 336.5 441C336.5 445 334 450 330 450C326 450 323.5 445 323.5 441C323.5 437.5 326 433.5 327.5 432C328 431.5 327.5 431 327 431.5C325.5 433 324 435.5 321.5 435.5C317 435.5 315 431 315 426C315 421 317 417 321.5 417C324 417 326.5 420 327.5 422C328 422.5 328 422 328 421.5C327.5 417.5 327.5 416.5 327 413.5C326.5 410.5 325 405 325 405C327.5 406 332.5 406 335 405C335 405 333.5 410.5 333 413.5C332.5 416.5 332.5 417.5 332 421.5C332 422 332 422.5 332.5 422Z" fill="black"/>
<path d="M95 101C97 105 102 111 107 111C116 111 120 103 120 93C120 83 116 74 107 74C102 74 99 79 96 82C95 83 94 82 95 81C98 78 103 70 103 63C103 55 98 45 90 45C82 45 77 55 77 63C77 70 82 78 85 81C86 82 85 83 84 82C81 79 78 74 73 74C64 74 60 83 60 93C60 103 64 111 73 111C78 111 83 105 85 101C86 100 86 101 86 102C85 110 85 112 84 118C83 124 80 135 80 135C85 133 95 133 100 135C100 135 97 124 96 118C95 112 95 110 94 102C94 101 94 100 95 101Z" fill="black"/>
<path d="M275 101C277 105 282 111 287 111C296 111 300 103 300 93C300 83 296 74 287 74C282 74 279 79 276 82C275 83 274 82 275 81C278 78 283 70 283 63C283 55 278 45 270 45C262 45 257 55 257 63C257 70 262 78 265 81C266 82 265 83 264 82C261 79 258 74 253 74C244 74 240 83 240 93C240 103 244 111 253 111C258 111 263 105 265 101C266 100 266 101 266 102C265 110 265 112 264 118C263 124 260 135 260 135C265 133 275 133 280 135C280 135 277 124 276 118C275 112 275 110 274 102C274 101 274 100 275 101Z" fill="black"/>
<path d="M185 191C187 195 192 201 197 201C206 201 210 193 210 183C210 173 206 164 197 164C192 164 189 169 186 172C185 173 184 172 185 171C188 168 193 160 193 153C193 145 188 135 180 135C172 135 167 145 167 153C167 160 172 168 175 171C176 172 175 173 174 172C171 169 168 164 163 164C154 164 150 173 150 183C150 193 154 201 163 201C168 201 173 195 175 191C176 190 176 191 176 192C175 200 175 202 174 208C173 214 170 225 170 225C175 223 185 223 190 225C190 225 187 214 186 208C185 202 185 200 184 192C184 191 184 190 185 191Z" fill="black"/>
<path d="M95 281C97 285 102 291 107 291C116 291 120 283 120 273C120 263 116 254 107 254C102 254 99 259 96 262C95 263 94 262 95 261C98 258 103 250 103 243C103 235 98 225 90 225C82 225 77 235 77 243C77 250 82 258 85 261C86 262 85 263 84 262C81 259 78 254 73 254C64 254 60 263 60 273C60 283 64 291 73 291C78 291 83 285 85 281C86 280 86 281 86 282C85 290 85 292 84 298C83 304 80 315 80 315C85 313 95 313 100 315C100 315 97 304 96 298C95 292 95 290 94 282C94 281 94 280 95 281Z" fill="black"/>
<path d="M275 281C277 285 282 291 287 291C296 291 300 283 300 273C300 263 296 254 287 254C282 254 279 259 276 262C275 263 274 262 275 261C278 258 283 250 283 243C283 235 278 225 270 225C262 225 257 235 257 243C257 250 262 258 265 261C266 262 265 263 264 262C261 259 258 254 253 254C244 254 240 263 240 273C240 283 244 291 253 291C258 291 263 285 265 281C266 280 266 281 266 282C265 290 265 292 264 298C263 304 260 315 260 315C265 313 275 313 280 315C280 315 277 304 276 298C275 292 275 290 274 282C274 281 274 280 275 281Z" fill="black"/>
<path d="M95 439C97 435 102 429 107 429C116 429 120 437 120 447C120 457 116 466 107 466C102 466 99 461 96 458C95 457 94 458 95 459C98 462 103 470 103 477C103 485 98 495 90 495C82 495 77 485 77 477C77 470 82 462 85 459C86 458 85 457 84 458C81 461 78 466 73 466C64 466 60 457 60 447C60 437 64 429 73 429C78 429 83 435 85 439C86 440 86 439 86 438C85 430 85 428 84 422C83 416 80 405 80 405C85 407 95 407 100 405C100 405 97 416 96 422C95 428 95 430 94 438C94 439 94 440 95 439Z" fill="black"/>
<path d="M275 439C277 435 282 429 287 429C296 429 300 437 300 447C300 457 296 466 287 466C282 466 279 461 276 458C275 457 274 458 275 459C278 462 283 470 283 477C283 485 278 495 270 495C262 495 257 485 257 477C257 470 262 462 265 459C266 458 265 457 264 458C261 461 258 466 253 466C244 466 240 457 240 447C240 437 244 429 253 429C258 429 263 435 265 439C266 440 266 439 266 438C265 430 265 428 264 422C263 416 260 405 260 405C265 407 275 407 280 405C280 405 277 416 276 422C275 428 275 430 274 438C274 439 274 440 275 439Z" fill="black"/>
</svg>
