<svg width="360" height="540" viewBox="0 0 360 540" fill="none" xmlns="http://www.w3.org/2000/svg">
<path d="M329.556 0.5H30.4444C13.9066 0.5 0.5 13.9066 0.5 30.4445V509.556C0.5 526.093 13.9066 539.5 30.4444 539.5H329.556C346.093 539.5 359.5 526.093 359.5 509.556V30.4445C359.5 13.9066 346.093 0.5 329.556 0.5Z" fill="white" stroke="black"/>
<path d="M30 29.9999C24.46 29.9999 20 34.4599 20 39.9999V44.9999C20 48.0035 21.323 50.6699 23.4063 52.4999C21.323 54.3299 20 56.9963 20 59.9999V69.9999C20 75.5399 24.46 79.9999 30 79.9999C35.54 79.9999 40 75.5399 40 69.9999V59.9999C40 56.9963 38.677 54.3299 36.5938 52.4999C38.677 50.6699 40 48.0035 40 44.9999V39.9999C40 34.4599 35.54 29.9999 30 29.9999ZM30 34.9999C32.77 34.9999 35 37.2299 35 39.9999V44.9999C35 47.7699 32.77 49.9999 30 49.9999C27.23 49.9999 25 47.7699 25 44.9999V39.9999C25 37.2299 27.23 34.9999 30 34.9999ZM30 54.9999C32.77 54.9999 35 57.2299 35 59.9999V69.9999C35 72.7699 32.77 74.9999 30 74.9999C27.23 74.9999 25 72.7699 25 69.9999V59.9999C25 57.2299 27.23 54.9999 30 54.9999Z" fill="#FF5555"/>
<path d="M330 510C324.46 510 320 505.54 320 500V495C320 491.996 321.323 489.33 323.406 487.5C321.323 485.67 320 483.003 320 480V470C320 464.46 324.46 460 330 460C335.54 460 340 464.46 340 470V480C340 483.003 338.677 485.67 336.594 487.5C338.677 489.33 340 491.996 340 495V500C340 505.54 335.54 510 330 510V510ZM330 505C332.77 505 335 502.77 335 500V495C335 492.23 332.77 490 330 490C327.23 490 325 492.23 325 495V500C325 502.77 327.23 505 330 505ZM330 485C332.77 485 335 482.77 335 480V470C335 467.23 332.77 465 330 465C327.23 465 325 467.23 325 470V480C325 482.77 327.23 485 330 485Z" fill="#FF5555"/>
<path d="M329.5 441C329.5 446.523 326.642 450 322.5 450C318.358 450 315 445.523 315 440C315.017 439.522 315.009 439.054 315 438.594C315 434.945 316.338 431.405 317.5 428.094C318.695 424.688 320.417 421.703 322.031 418.656C324.532 413.937 330 405 330 405C330 405 335.468 413.937 337.969 418.656C339.583 421.703 341.305 424.688 342.5 428.094C343.662 431.405 345 434.945 345 438.594C344.986 439.081 344.991 439.551 345 440C345 445.523 341.642 450 337.5 450C333.358 450 330.5 446.523 330.5 441C330.5 440 329.5 440 329.5 441Z" fill="#FF5555"/>
<path d="M89 63C89 51.9543 83.2843 45 75 45C66.7157 45 60 53.9543 60 65C60.0349 65.9556 60.0182 66.8912 60 67.8125C60 75.111 62.6769 82.1893 65 88.8125C67.389 95.6235 70.8336 101.593 74.0625 107.688C79.0637 117.127 90 135 90 135C90 135 100.936 117.127 105.938 107.688C109.166 101.593 112.611 95.6235 115 88.8125C117.323 82.1893 120 75.111 120 67.8125C119.972 66.8381 119.981 65.8979 120 65C120 53.9543 113.284 45 105 45C96.7157 45 91 51.9543 91 63C91 65 89 65 89 63Z" fill="#FF5555"/>
<path d="M269 63C269 51.9543 263.284 45 255 45C246.716 45 240 53.9543 240 65C240.035 65.9556 240.018 66.8912 240 67.8125C240 75.111 242.677 82.1893 245 88.8125C247.389 95.6235 250.834 101.593 254.062 107.688C259.064 117.127 270 135 270 135C270 135 280.936 117.127 285.938 107.688C289.166 101.593 292.611 95.6235 295 88.8125C297.323 82.1893 300 75.111 300 67.8125C299.972 66.8381 299.981 65.8979 300 65C300 53.9543 293.284 45 285 45C276.716 45 271 51.9543 271 63C271 65 269 65 269 63Z" fill="#FF5555"/>
<path d="M179 153C179 141.954 173.284 135 165 135C156.716 135 150 143.954 150 155C150.035 155.956 150.018 156.891 150 157.812C150 165.111 152.677 172.189 155 178.812C157.389 185.623 160.834 191.593 164.062 197.688C169.064 207.127 180 225 180 225C180 225 190.936 207.127 195.938 197.688C199.166 191.593 202.611 185.623 205 178.812C207.323 172.189 210 165.111 210 157.812C209.972 156.838 209.981 155.898 210 155C210 143.954 203.284 135 195 135C186.716 135 181 141.954 181 153C181 155 179 155 179 153Z" fill="#FF5555"/>
<path d="M89 243C89 231.954 83.2843 225 75 225C66.7157 225 60 233.954 60 245C60.0349 245.956 60.0182 246.891 60 247.812C60 255.111 62.6769 262.189 65 268.812C67.389 275.623 70.8336 281.593 74.0625 287.688C79.0637 297.127 90 315 90 315C90 315 100.936 297.127 105.938 287.688C109.166 281.593 112.611 275.623 115 268.812C117.323 262.189 120 255.111 120 247.812C119.972 246.838 119.981 245.898 120 245C120 233.954 113.284 225 105 225C96.7157 225 91 231.954 91 243C91 245 89 245 89 243Z" fill="#FF5555"/>
<path d="M269 243C269 231.954 263.284 225 255 225C246.716 225 240 233.954 240 245C240.035 245.956 240.018 246.891 240 247.812C240 255.111 242.677 262.189 245 268.812C247.389 275.623 250.834 281.593 254.062 287.688C259.064 297.127 270 315 270 315C270 315 280.936 297.127 285.938 287.688C289.166 281.593 292.611 275.623 295 268.812C297.323 262.189 300 255.111 300 247.812C299.972 246.838 299.981 245.898 300 245C300 233.954 293.284 225 285 225C276.716 225 271 231.954 271 243C271 245 269 245 269 243Z" fill="#FF5555"/>
<path d="M179 387C179 398.046 173.284 405 165 405C156.716 405 150 396.046 150 385C150.035 384.044 150.018 383.109 150 382.188C150 374.889 152.677 367.811 155 361.188C157.389 354.377 160.834 348.407 164.062 342.312C169.064 332.873 180 315 180 315C180 315 190.936 332.873 195.938 342.312C199.166 348.407 202.611 354.377 205 361.188C207.323 367.811 210 374.889 210 382.188C209.972 383.162 209.981 384.102 210 385C210 396.046 203.284 405 195 405C186.716 405 181 398.046 181 387C181 385 179 385 179 387Z" fill="#FF5555"/>
<path d="M89 477C89 488.046 83.2843 495 75 495C66.7157 495 60 486.046 60 475C60.0349 474.044 60.0182 473.109 60 472.188C60 464.889 62.6769 457.811 65 451.188C67.389 444.377 70.8336 438.407 74.0625 432.312C79.0637 422.873 90 405 90 405C90 405 100.936 422.873 105.938 432.312C109.166 438.407 112.611 444.377 115 451.188C117.323 457.811 120 464.889 120 472.188C119.972 473.162 119.981 474.102 120 475C120 486.046 113.284 495 105 495C96.7157 495 91 488.046 91 477C91 475 89 475 89 477V477Z" fill="#FF5555"/>
<path d="M269 477C269 488.046 263.284 495 255 495C246.716 495 240 486.046 240 475C240.035 474.044 240.018 473.109 240 472.188C240 464.889 242.677 457.811 245 451.188C247.389 444.377 250.834 438.407 254.062 432.312C259.064 422.873 270 405 270 405C270 405 280.936 422.873 285.938 432.312C289.166 438.407 292.611 444.377 295 451.188C297.323 457.811 300 464.889 300 472.188C299.972 473.162 299.981 474.102 300 475C300 486.046 293.284 495 285 495C276.716 495 271 488.046 271 477C271 475 269 475 269 477V477Z" fill="#FF5555"/>
<path d="M29.5 99C29.5 93.4771 26.6421 90 22.5 90C18.3579 90 15 94.4771 15 100C15.0174 100.478 15.0091 100.946 15 101.406C15 105.055 16.3384 108.595 17.5 111.906C18.6945 115.312 20.4168 118.297 22.0312 121.344C24.5319 126.063 30 135 30 135C30 135 35.4681 126.063 37.9688 121.344C39.5832 118.297 41.3055 115.312 42.5 111.906C43.6616 108.595 45 105.055 45 101.406C44.9858 100.919 44.9907 100.449 45 100C45 94.4771 41.6421 90 37.5 90C33.3579 90 30.5 93.4771 30.5 99C30.5 100 29.5 100 29.5 99Z" fill="#FF5555"/>
</svg>
