<svg width="360" height="540" viewBox="0 0 360 540" fill="none" xmlns="http://www.w3.org/2000/svg">
<path d="M329.556 0.5H30.4444C13.9066 0.5 0.5 13.9066 0.5 30.4445V509.556C0.5 526.093 13.9066 539.5 30.4444 539.5H329.556C346.093 539.5 359.5 526.093 359.5 509.556V30.4445C359.5 13.9066 346.093 0.5 329.556 0.5Z" fill="white" stroke="black"/>
<path d="M30 29.9999C24.46 29.9999 20 34.4599 20 39.9999V44.9999C20 48.0035 21.323 50.6699 23.4063 52.4999C21.323 54.3299 20 56.9963 20 59.9999V69.9999C20 75.5399 24.46 79.9999 30 79.9999C35.54 79.9999 40 75.5399 40 69.9999V59.9999C40 56.9963 38.677 54.3299 36.5938 52.4999C38.677 50.6699 40 48.0035 40 44.9999V39.9999C40 34.4599 35.54 29.9999 30 29.9999ZM30 34.9999C32.77 34.9999 35 37.2299 35 39.9999V44.9999C35 47.7699 32.77 49.9999 30 49.9999C27.23 49.9999 25 47.7699 25 44.9999V39.9999C25 37.2299 27.23 34.9999 30 34.9999ZM30 54.9999C32.77 54.9999 35 57.2299 35 59.9999V69.9999C35 72.7699 32.77 74.9999 30 74.9999C27.23 74.9999 25 72.7699 25 69.9999V59.9999C25 57.2299 27.23 54.9999 30 54.9999Z" fill="#FF5555"/>
<path d="M330 510C324.46 510 320 505.54 320 500V495C320 491.996 321.323 489.33 323.406 487.5C321.323 485.67 320 483.003 320 480V470C320 464.46 324.46 460 330 460C335.54 460 340 464.46 340 470V480C340 483.003 338.677 485.67 336.594 487.5C338.677 489.33 340 491.996 340 495V500C340 505.54 335.54 510 330 510V510ZM330 505C332.77 505 335 502.77 335 500V495C335 492.23 332.77 490 330 490C327.23 490 325 492.23 325 495V500C325 502.77 327.23 505 330 505ZM330 485C332.77 485 335 482.77 335 480V470C335 467.23 332.77 465 330 465C327.23 465 325 467.23 325 470V480C325 482.77 327.23 485 330 485Z" fill="#FF5555"/>
<path d="M90 45C90 45 96 60 103 70C110 80 120 90 120 90C120 90 110 100 103 110C96 120 90 135 90 135C90 135 84 120 77 110C70 100 60 90 60 90C60 90 70 80 77 70C84 60 90 45 90 45Z" fill="#FF5555"/>
<path d="M270 45C270 45 276 60 283 70C290 80 300 90 300 90C300 90 290 100 283 110C276 120 270 135 270 135C270 135 264 120 257 110C250 100 240 90 240 90C240 90 250 80 257 70C264 60 270 45 270 45Z" fill="#FF5555"/>
<path d="M180 135C180 135 186 150 193 160C200 170 210 180 210 180C210 180 200 190 193 200C186 210 180 225 180 225C180 225 174 210 167 200C160 190 150 180 150 180C150 180 160 170 167 160C174 150 180 135 180 135Z" fill="#FF5555"/>
<path d="M90 225C90 225 96 240 103 250C110 260 120 270 120 270C120 270 110 280 103 290C96 300 90 315 90 315C90 315 84 300 77 290C70 280 60 270 60 270C60 270 70 260 77 250C84 240 90 225 90 225Z" fill="#FF5555"/>
<path d="M270 225C270 225 276 240 283 250C290 260 300 270 300 270C300 270 290 280 283 290C276 300 270 315 270 315C270 315 264 300 257 290C250 280 240 270 240 270C240 270 250 260 257 250C264 240 270 225 270 225Z" fill="#FF5555"/>
<path d="M180 315C180 315 186 330 193 340C200 350 210 360 210 360C210 360 200 370 193 380C186 390 180 405 180 405C180 405 174 390 167 380C160 370 150 360 150 360C150 360 160 350 167 340C174 330 180 315 180 315Z" fill="#FF5555"/>
<path d="M90 405C90 405 96 420 103 430C110 440 120 450 120 450C120 450 110 460 103 470C96 480 90 495 90 495C90 495 84 480 77 470C70 460 60 450 60 450C60 450 70 440 77 430C84 420 90 405 90 405Z" fill="#FF5555"/>
<path d="M270 405C270 405 276 420 283 430C290 440 300 450 300 450C300 450 290 460 283 470C276 480 270 495 270 495C270 495 264 480 257 470C250 460 240 450 240 450C240 450 250 440 257 430C264 420 270 405 270 405Z" fill="#FF5555"/>
<path d="M30 90C30 90 33 97.5 36.5 102.5C40 107.5 45 112.5 45 112.5C45 112.5 40 117.5 36.5 122.5C33 127.5 30 135 30 135C30 135 27 127.5 23.5 122.5C20 117.5 15 112.5 15 112.5C15 112.5 20 107.5 23.5 102.5C27 97.5 30 90 30 90Z" fill="#FF5555"/>
<path d="M330 405C330 405 333 412.5 336.5 417.5C340 422.5 345 427.5 345 427.5C345 427.5 340 432.5 336.5 437.5C333 442.5 330 450 330 450C330 450 327 442.5 323.5 437.5C320 432.5 315 427.5 315 427.5C315 427.5 320 422.5 323.5 417.5C327 412.5 330 405 330 405Z" fill="#FF5555"/>
</svg>
