<svg width="360" height="540" viewBox="0 0 360 540" fill="none" xmlns="http://www.w3.org/2000/svg">
<path d="M329.556 0.5H30.4444C13.9066 0.5 0.5 13.9066 0.5 30.4445V509.556C0.5 526.093 13.9066 539.5 30.4444 539.5H329.556C346.093 539.5 359.5 526.093 359.5 509.556V30.4445C359.5 13.9066 346.093 0.5 329.556 0.5Z" fill="white" stroke="black"/>
<path d="M30 29.9999C24.46 29.9999 20 34.4599 20 39.9999V44.9999C20 48.0035 21.323 50.6699 23.4063 52.4999C21.323 54.3299 20 56.9963 20 59.9999V69.9999C20 75.5399 24.46 79.9999 30 79.9999C35.54 79.9999 40 75.5399 40 69.9999V59.9999C40 56.9963 38.677 54.3299 36.5938 52.4999C38.677 50.6699 40 48.0035 40 44.9999V39.9999C40 34.4599 35.54 29.9999 30 29.9999ZM30 34.9999C32.77 34.9999 35 37.2299 35 39.9999V44.9999C35 47.7699 32.77 49.9999 30 49.9999C27.23 49.9999 25 47.7699 25 44.9999V39.9999C25 37.2299 27.23 34.9999 30 34.9999ZM30 54.9999C32.77 54.9999 35 57.2299 35 59.9999V69.9999C35 72.7699 32.77 74.9999 30 74.9999C27.23 74.9999 25 72.7699 25 69.9999V59.9999C25 57.2299 27.23 54.9999 30 54.9999Z" fill="black"/>
<path d="M330 510C324.46 510 320 505.54 320 500V495C320 491.996 321.323 489.33 323.406 487.5C321.323 485.67 320 483.003 320 480V470C320 464.46 324.46 460 330 460C335.54 460 340 464.46 340 470V480C340 483.003 338.677 485.67 336.594 487.5C338.677 489.33 340 491.996 340 495V500C340 505.54 335.54 510 330 510V510ZM330 505C332.77 505 335 502.77 335 500V495C335 492.23 332.77 490 330 490C327.23 490 325 492.23 325 495V500C325 502.77 327.23 505 330 505ZM330 485C332.77 485 335 482.77 335 480V470C335 467.23 332.77 465 330 465C327.23 465 325 467.23 325 470V480C325 482.77 327.23 485 330 485Z" fill="black"/>
<path d="M32.5 118C33 120 35 125 38.5 125C43 125 45 121 45 116C45 112.5 43.7105 110.194 42.5 107.5C41.2111 104.632 39.3103 102.071 37.5 99.5C35.1774 96.2011 30 90 30 90C30 90 24.8226 96.2011 22.5 99.5C20.6897 102.071 18.7889 104.632 17.5 107.5C16.2895 110.194 15 112.5 15 116C15 121 17 125 21.5 125C25 125 27 120 27.5 118C28 117.5 28 118 28 118.5C27.5 122.5 27.5 123.5 27 126.5C26.5 129.5 25 135 25 135C27.5 134 32.5 134 35 135C35 135 33.5 129.5 33 126.5C32.5 123.5 32.5 122.5 32 118.5C32 118 32 117.5 32.5 118Z" fill="black"/>
<path d="M332.5 422C333 420 335 415 338.5 415C343 415 345 419 345 424C345 427.5 343.711 429.806 342.5 432.5C341.211 435.368 339.31 437.929 337.5 440.5C335.177 443.799 330 450 330 450C330 450 324.823 443.799 322.5 440.5C320.69 437.929 318.789 435.368 317.5 432.5C316.289 429.806 315 427.5 315 424C315 419 317 415 321.5 415C325 415 327 420 327.5 422C328 422.5 328 422 328 421.5C327.5 417.5 327.5 416.5 327 413.5C326.5 410.5 325 405 325 405C327.5 406 332.5 406 335 405C335 405 333.5 410.5 333 413.5C332.5 416.5 332.5 417.5 332 421.5C332 422 332 422.5 332.5 422Z" fill="black"/>
<path d="M95 101C96 105 100 115 107 115C116 115 120 107 120 97C120 90 117.421 85.3877 115 80C112.422 74.2633 108.621 69.1426 105 64C100.355 57.4021 90 45 90 45C90 45 79.6453 57.4021 75 64C71.3793 69.1426 67.5779 74.2633 65 80C62.5789 85.3877 60 90 60 97C60 107 64 115 73 115C80 115 84 105 85 101C86 100 86 101 86 102C85 110 85 112 84 118C83 124 80 135 80 135C85 133 95 133 100 135C100 135 97 124 96 118C95 112 95 110 94 102C94 101 94 100 95 101Z" fill="black"/>
<path d="M275 101C276 105 280 115 287 115C296 115 300 107 300 97C300 90 297.421 85.3877 295 80C292.422 74.2633 288.621 69.1426 285 64C280.355 57.4021 270 45 270 45C270 45 259.645 57.4021 255 64C251.379 69.1426 247.578 74.2633 245 80C242.579 85.3877 240 90 240 97C240 107 244 115 253 115C260 115 264 105 265 101C266 100 266 101 266 102C265 110 265 112 264 118C263 124 260 135 260 135C265 133 275 133 280 135C280 135 277 124 276 118C275 112 275 110 274 102C274 101 274 100 275 101Z" fill="black"/>
<path d="M185 191C186 195 190 205 197 205C206 205 210 197 210 187C210 180 207.421 175.388 205 170C202.422 164.263 198.621 159.143 195 154C190.355 147.402 180 135 180 135C180 135 169.645 147.402 165 154C161.379 159.143 157.578 164.263 155 170C152.579 175.388 150 180 150 187C150 197 154 205 163 205C170 205 174 195 175 191C176 190 176 191 176 192C175 200 175 202 174 208C173 214 170 225 170 225C175 223 185 223 190 225C190 225 187 214 186 208C185 202 185 200 184 192C184 191 184 190 185 191Z" fill="black"/>
<path d="M95 281C96 285 100 295 107 295C116 295 120 287 120 277C120 270 117.421 265.388 115 260C112.422 254.263 108.621 249.143 105 244C100.355 237.402 90 225 90 225C90 225 79.6453 237.402 75 244C71.3793 249.143 67.5779 254.263 65 260C62.5789 265.388 60 270 60 277C60 287 64 295 73 295C80 295 84 285 85 281C86 280 86 281 86 282C85 290 85 292 84 298C83 304 80 315 80 315C85 313 95 313 100 315C100 315 97 304 96 298C95 292 95 290 94 282C94 281 94 280 95 281Z" fill="black"/>
<path d="M275 281C276 285 280 295 287 295C296 295 300 287 300 277C300 270 297.421 265.388 295 260C292.422 254.263 288.621 249.143 285 244C280.355 237.402 270 225 270 225C270 225 259.645 237.402 255 244C251.379 249.143 247.578 254.263 245 260C242.579 265.388 240 270 240 277C240 287 244 295 253 295C260 295 264 285 265 281C266 280 266 281 266 282C265 290 265 292 264 298C263 304 260 315 260 315C265 313 275 313 280 315C280 315 277 304 276 298C275 292 275 290 274 282C274 281 274 280 275 281Z" fill="black"/>
<path d="M185 349C186 345 190 335 197 335C206 335 210 343 210 353C210 360 207.421 364.612 205 370C202.422 375.737 198.621 380.857 195 386C190.355 392.598 180 405 180 405C180 405 169.645 392.598 165 386C161.379 380.857 157.578 375.737 155 370C152.579 364.612 150 360 150 353C150 343 154 335 163 335C170 335 174 345 175 349C176 350 176 349 176 348C175 340 175 338 174 332C173 326 170 315 170 315C175 317 185 317 190 315C190 315 187 326 186 332C185 338 185 340 184 348C184 349 184 350 185 349Z" fill="black"/>
<path d="M95 439C96 435 100 425 107 425C116 425 120 433 120 443C120 450 117.421 454.612 115 460C112.422 465.737 108.621 470.857 105 476C100.355 482.598 90 495 90 495C90 495 79.6453 482.598 75 476C71.3793 470.857 67.5779 465.737 65 460C62.5789 454.612 60 450 60 443C60 433 64 425 73 425C80 425 84 435 85 439C86 440 86 439 86 438C85 430 85 428 84 422C83 416 80 405 80 405C85 407 95 407 100 405C100 405 97 416 96 422C95 428 95 430 94 438C94 439 94 440 95 439Z" fill="black"/>
<path d="M275 439C276 435 280 425 287 425C296 425 300 433 300 443C300 450 297.421 454.612 295 460C292.422 465.737 288.621 470.857 285 476C280.355 482.598 270 495 270 495C270 495 259.645 482.598 255 476C251.379 470.857 247.578 465.737 245 460C242.579 454.612 240 450 240 443C240 433 244 425 253 425C260 425 264 435 265 439C266 440 266 439 266 438C265 430 265 428 264 422C263 416 260 405 260 405C265 407 275 407 280 405C280 405 277 416 276 422C275 428 275 430 274 438C274 439 274 440 275 439Z" fill="black"/>
</svg>
