<svg width="360" height="540" viewBox="0 0 360 540" fill="none" xmlns="http://www.w3.org/2000/svg">
<path d="M329.556 0.5H30.4444C13.9066 0.5 0.5 13.9066 0.5 30.4445V509.556C0.5 526.093 13.9066 539.5 30.4444 539.5H329.556C346.093 539.5 359.5 526.093 359.5 509.556V30.4445C359.5 13.9066 346.093 0.5 329.556 0.5Z" fill="white" stroke="black"/>
<path d="M30 79.9999C35.54 79.9999 40 75.5399 40 69.9999V49.9999V39.9999C40 34.4599 35.54 29.9999 30 29.9999C24.46 29.9999 20 34.4599 20 39.9999V49.9999C20 55.5399 24.46 59.9999 30 59.9999C31.8226 59.9999 33.5315 59.5013 35 58.6561V69.9999C35 72.7699 32.77 74.9999 30 74.9999C27.23 74.9999 25 72.7699 25 69.9999V68.9999H20V69.9999C20 75.5399 24.46 79.9999 30 79.9999ZM30 54.9999C27.23 54.9999 25 52.7699 25 49.9999V39.9999C25 37.2299 27.23 34.9999 30 34.9999C32.77 34.9999 35 37.2299 35 39.9999V49.9999C35 52.7699 32.77 54.9999 30 54.9999Z" fill="#FF5555"/>
<path d="M330 460C324.46 460 320 464.46 320 470V490V500C320 505.54 324.46 510 330 510C335.54 510 340 505.54 340 500V490C340 484.46 335.54 480 330 480C328.177 480 326.469 480.498 325 481.344V470C325 467.23 327.23 465 330 465C332.77 465 335 467.23 335 470V471H340V470C340 464.46 335.54 460 330 460ZM330 485C332.77 485 335 487.23 335 490V500C335 502.77 332.77 505 330 505C327.23 505 325 502.77 325 500V490C325 487.23 327.23 485 330 485Z" fill="#FF5555"/>
<path d="M89 63C89 51.9543 83.2843 45 75 45C66.7157 45 60 53.9543 60 65C60.0349 65.9556 60.0182 66.8912 60 67.8125C60 75.111 62.6769 82.1893 65 88.8125C67.389 95.6235 70.8336 101.593 74.0625 107.688C79.0637 117.127 90 135 90 135C90 135 100.936 117.127 105.938 107.688C109.166 101.593 112.611 95.6235 115 88.8125C117.323 82.1893 120 75.111 120 67.8125C119.972 66.8381 119.981 65.8979 120 65C120 53.9543 113.284 45 105 45C96.7157 45 91 51.9543 91 63C91 65 89 65 89 63Z" fill="#FF5555"/>
<path d="M269 63C269 51.9543 263.284 45 255 45C246.716 45 240 53.9543 240 65C240.035 65.9556 240.018 66.8912 240 67.8125C240 75.111 242.677 82.1893 245 88.8125C247.389 95.6235 250.834 101.593 254.062 107.688C259.064 117.127 270 135 270 135C270 135 280.936 117.127 285.938 107.688C289.166 101.593 292.611 95.6235 295 88.8125C297.323 82.1893 300 75.111 300 67.8125C299.972 66.8381 299.981 65.8979 300 65C300 53.9543 293.284 45 285 45C276.716 45 271 51.9543 271 63C271 65 269 65 269 63Z" fill="#FF5555"/>
<path d="M89 183C89 171.954 83.2843 165 75 165C66.7157 165 60 173.954 60 185C60.0349 185.956 60.0182 186.891 60 187.812C60 195.111 62.6769 202.189 65 208.812C67.389 215.623 70.8336 221.593 74.0625 227.688C79.0637 237.127 90 255 90 255C90 255 100.936 237.127 105.938 227.688C109.166 221.593 112.611 215.623 115 208.812C117.323 202.189 120 195.111 120 187.812C119.972 186.838 119.981 185.898 120 185C120 173.954 113.284 165 105 165C96.7157 165 91 171.954 91 183C91 185 89 185 89 183Z" fill="#FF5555"/>
<path d="M269 183C269 171.954 263.284 165 255 165C246.716 165 240 173.954 240 185C240.035 185.956 240.018 186.891 240 187.812C240 195.111 242.677 202.189 245 208.812C247.389 215.623 250.834 221.593 254.062 227.688C259.064 237.127 270 255 270 255C270 255 280.936 237.127 285.938 227.688C289.166 221.593 292.611 215.623 295 208.812C297.323 202.189 300 195.111 300 187.812C299.972 186.838 299.981 185.898 300 185C300 173.954 293.284 165 285 165C276.716 165 271 171.954 271 183C271 185 269 185 269 183Z" fill="#FF5555"/>
<path d="M179 243C179 231.954 173.284 225 165 225C156.716 225 150 233.954 150 245C150.035 245.956 150.018 246.891 150 247.812C150 255.111 152.677 262.189 155 268.812C157.389 275.623 160.834 281.593 164.062 287.688C169.064 297.127 180 315 180 315C180 315 190.936 297.127 195.938 287.688C199.166 281.593 202.611 275.623 205 268.812C207.323 262.189 210 255.111 210 247.812C209.972 246.838 209.981 245.898 210 245C210 233.954 203.284 225 195 225C186.716 225 181 231.954 181 243C181 245 179 245 179 243Z" fill="#FF5555"/>
<path d="M89 357C89 368.046 83.2843 375 75 375C66.7157 375 60 366.046 60 355C60.0349 354.044 60.0182 353.109 60 352.188C60 344.889 62.6769 337.811 65 331.188C67.389 324.377 70.8336 318.407 74.0625 312.312C79.0637 302.873 90 285 90 285C90 285 100.936 302.873 105.938 312.312C109.166 318.407 112.611 324.377 115 331.188C117.323 337.811 120 344.889 120 352.188C119.972 353.162 119.981 354.102 120 355C120 366.046 113.284 375 105 375C96.7157 375 91 368.046 91 357C91 355 89 355 89 357Z" fill="#FF5555"/>
<path d="M269 357C269 368.046 263.284 375 255 375C246.716 375 240 366.046 240 355C240.035 354.044 240.018 353.109 240 352.188C240 344.889 242.677 337.811 245 331.188C247.389 324.377 250.834 318.407 254.062 312.312C259.064 302.873 270 285 270 285C270 285 280.936 302.873 285.938 312.312C289.166 318.407 292.611 324.377 295 331.188C297.323 337.811 300 344.889 300 352.188C299.972 353.162 299.981 354.102 300 355C300 366.046 293.284 375 285 375C276.716 375 271 368.046 271 357C271 355 269 355 269 357Z" fill="#FF5555"/>
<path d="M89 477C89 488.046 83.2843 495 75 495C66.7157 495 60 486.046 60 475C60.0349 474.044 60.0182 473.109 60 472.188C60 464.889 62.6769 457.811 65 451.188C67.389 444.377 70.8336 438.407 74.0625 432.312C79.0637 422.873 90 405 90 405C90 405 100.936 422.873 105.938 432.312C109.166 438.407 112.611 444.377 115 451.188C117.323 457.811 120 464.889 120 472.188C119.972 473.162 119.981 474.102 120 475C120 486.046 113.284 495 105 495C96.7157 495 91 488.046 91 477C91 475 89 475 89 477V477Z" fill="#FF5555"/>
<path d="M269 477C269 488.046 263.284 495 255 495C246.716 495 240 486.046 240 475C240.035 474.044 240.018 473.109 240 472.188C240 464.889 242.677 457.811 245 451.188C247.389 444.377 250.834 438.407 254.062 432.312C259.064 422.873 270 405 270 405C270 405 280.936 422.873 285.938 432.312C289.166 438.407 292.611 444.377 295 451.188C297.323 457.811 300 464.889 300 472.188C299.972 473.162 299.981 474.102 300 475C300 486.046 293.284 495 285 495C276.716 495 271 488.046 271 477C271 475 269 475 269 477V477Z" fill="#FF5555"/>
<path d="M29.5 99C29.5 93.4771 26.6421 90 22.5 90C18.3579 90 15 94.4771 15 100C15.0174 100.478 15.0091 100.946 15 101.406C15 105.055 16.3384 108.595 17.5 111.906C18.6945 115.312 20.4168 118.297 22.0312 121.344C24.5319 126.063 30 135 30 135C30 135 35.4681 126.063 37.9688 121.344C39.5832 118.297 41.3055 115.312 42.5 111.906C43.6616 108.595 45 105.055 45 101.406C44.9858 100.919 44.9907 100.449 45 100C45 94.4771 41.6421 90 37.5 90C33.3579 90 30.5 93.4771 30.5 99C30.5 100 29.5 100 29.5 99Z" fill="#FF5555"/>
<path d="M329.5 441C329.5 446.523 326.642 450 322.5 450C318.358 450 315 445.523 315 440C315.017 439.522 315.009 439.054 315 438.594C315 434.945 316.338 431.405 317.5 428.094C318.695 424.688 320.417 421.703 322.031 418.656C324.532 413.937 330 405 330 405C330 405 335.468 413.937 337.969 418.656C339.583 421.703 341.305 424.688 342.5 428.094C343.662 431.405 345 434.945 345 438.594C344.986 439.081 344.991 439.551 345 440C345 445.523 341.642 450 337.5 450C333.358 450 330.5 446.523 330.5 441C330.5 440 329.5 440 329.5 441Z" fill="#FF5555"/>
</svg>
