<svg width="360" height="540" viewBox="0 0 360 540" fill="none" xmlns="http://www.w3.org/2000/svg">
<path d="M329.556 0.5H30.4444C13.9066 0.5 0.5 13.9066 0.5 30.4445V509.556C0.5 526.093 13.9066 539.5 30.4444 539.5H329.556C346.093 539.5 359.5 526.093 359.5 509.556V30.4445C359.5 13.9066 346.093 0.5 329.556 0.5Z" fill="white" stroke="black"/>
<path d="M30 79.9999C35.54 79.9999 40 75.5399 40 69.9999V49.9999V39.9999C40 34.4599 35.54 29.9999 30 29.9999C24.46 29.9999 20 34.4599 20 39.9999V49.9999C20 55.5399 24.46 59.9999 30 59.9999C31.8226 59.9999 33.5315 59.5013 35 58.6561V69.9999C35 72.7699 32.77 74.9999 30 74.9999C27.23 74.9999 25 72.7699 25 69.9999V68.9999H20V69.9999C20 75.5399 24.46 79.9999 30 79.9999ZM30 54.9999C27.23 54.9999 25 52.7699 25 49.9999V39.9999C25 37.2299 27.23 34.9999 30 34.9999C32.77 34.9999 35 37.2299 35 39.9999V49.9999C35 52.7699 32.77 54.9999 30 54.9999Z" fill="black"/>
<path d="M330 460C324.46 460 320 464.46 320 470V490V500C320 505.54 324.46 510 330 510C335.54 510 340 505.54 340 500V490C340 484.46 335.54 480 330 480C328.177 480 326.469 480.498 325 481.344V470C325 467.23 327.23 465 330 465C332.77 465 335 467.23 335 470V471H340V470C340 464.46 335.54 460 330 460ZM330 485C332.77 485 335 487.23 335 490V500C335 502.77 332.77 505 330 505C327.23 505 325 502.77 325 500V490C325 487.23 327.23 485 330 485Z" fill="black"/>
<path d="M32.5 118C33 120 35 125 38.5 125C43 125 45 121 45 116C45 112.5 43.7105 110.194 42.5 107.5C41.2111 104.632 39.3103 102.071 37.5 99.5C35.1774 96.2011 30 90 30 90C30 90 24.8226 96.2011 22.5 99.5C20.6897 102.071 18.7889 104.632 17.5 107.5C16.2895 110.194 15 112.5 15 116C15 121 17 125 21.5 125C25 125 27 120 27.5 118C28 117.5 28 118 28 118.5C27.5 122.5 27.5 123.5 27 126.5C26.5 129.5 25 135 25 135C27.5 134 32.5 134 35 135C35 135 33.5 129.5 33 126.5C32.5 123.5 32.5 122.5 32 118.5C32 118 32 117.5 32.5 118Z" fill="black"/>
<path d="M332.5 422C333 420 335 415 338.5 415C343 415 345 419 345 424C345 427.5 343.711 429.806 342.5 432.5C341.211 435.368 339.31 437.929 337.5 440.5C335.177 443.799 330 450 330 450C330 450 324.823 443.799 322.5 440.5C320.69 437.929 318.789 435.368 317.5 432.5C316.289 429.806 315 427.5 315 424C315 419 317 415 321.5 415C325 415 327 420 327.5 422C328 422.5 328 422 328 421.5C327.5 417.5 327.5 416.5 327 413.5C326.5 410.5 325 405 325 405C327.5 406 332.5 406 335 405C335 405 333.5 410.5 333 413.5C332.5 416.5 332.5 417.5 332 421.5C332 422 332 422.5 332.5 422Z" fill="black"/>
<path d="M95 101C96 105 100 115 107 115C116 115 120 107 120 97C120 90 117.421 85.3877 115 80C112.422 74.2633 108.621 69.1426 105 64C100.355 57.4021 90 45 90 45C90 45 79.6453 57.4021 75 64C71.3793 69.1426 67.5779 74.2633 65 80C62.5789 85.3877 60 90 60 97C60 107 64 115 73 115C80 115 84 105 85 101C86 100 86 101 86 102C85 110 85 112 84 118C83 124 80 135 80 135C85 133 95 133 100 135C100 135 97 124 96 118C95 112 95 110 94 102C94 101 94 100 95 101Z" fill="black"/>
<path d="M275 101C276 105 280 115 287 115C296 115 300 107 300 97C300 90 297.421 85.3877 295 80C292.422 74.2633 288.621 69.1426 285 64C280.355 57.4021 270 45 270 45C270 45 259.645 57.4021 255 64C251.379 69.1426 247.578 74.2633 245 80C242.579 85.3877 240 90 240 97C240 107 244 115 253 115C260 115 264 105 265 101C266 100 266 101 266 102C265 110 265 112 264 118C263 124 260 135 260 135C265 133 275 133 280 135C280 135 277 124 276 118C275 112 275 110 274 102C274 101 274 100 275 101Z" fill="black"/>
<path d="M95 221C96 225 100 235 107 235C116 235 120 227 120 217C120 210 117.421 205.388 115 200C112.422 194.263 108.621 189.143 105 184C100.355 177.402 90 165 90 165C90 165 79.6453 177.402 75 184C71.3793 189.143 67.5779 194.263 65 200C62.5789 205.388 60 210 60 217C60 227 64 235 73 235C80 235 84 225 85 221C86 220 86 221 86 222C85 230 85 232 84 238C83 244 80 255 80 255C85 253 95 253 100 255C100 255 97 244 96 238C95 232 95 230 94 222C94 221 94 220 95 221Z" fill="black"/>
<path d="M275 221C276 225 280 235 287 235C296 235 300 227 300 217C300 210 297.421 205.388 295 200C292.422 194.263 288.621 189.143 285 184C280.355 177.402 270 165 270 165C270 165 259.645 177.402 255 184C251.379 189.143 247.578 194.263 245 200C242.579 205.388 240 210 240 217C240 227 244 235 253 235C260 235 264 225 265 221C266 220 266 221 266 222C265 230 265 232 264 238C263 244 260 255 260 255C265 253 275 253 280 255C280 255 277 244 276 238C275 232 275 230 274 222C274 221 274 220 275 221Z" fill="black"/>
<path d="M185 281C186 285 190 295 197 295C206 295 210 287 210 277C210 270 207.421 265.388 205 260C202.422 254.263 198.621 249.143 195 244C190.355 237.402 180 225 180 225C180 225 169.645 237.402 165 244C161.379 249.143 157.578 254.263 155 260C152.579 265.388 150 270 150 277C150 287 154 295 163 295C170 295 174 285 175 281C176 280 176 281 176 282C175 290 175 292 174 298C173 304 170 315 170 315C175 313 185 313 190 315C190 315 187 304 186 298C185 292 185 290 184 282C184 281 184 280 185 281Z" fill="black"/>
<path d="M95 319C96 315 100 305 107 305C116 305 120 313 120 323C120 330 117.421 334.612 115 340C112.422 345.737 108.621 350.857 105 356C100.355 362.598 90 375 90 375C90 375 79.6453 362.598 75 356C71.3793 350.857 67.5779 345.737 65 340C62.5789 334.612 60 330 60 323C60 313 64 305 73 305C80 305 84 315 85 319C86 320 86 319 86 318C85 310 85 308 84 302C83 296 80 285 80 285C85 287 95 287 100 285C100 285 97 296 96 302C95 308 95 310 94 318C94 319 94 320 95 319Z" fill="black"/>
<path d="M275 319C276 315 280 305 287 305C296 305 300 313 300 323C300 330 297.421 334.612 295 340C292.422 345.737 288.621 350.857 285 356C280.355 362.598 270 375 270 375C270 375 259.645 362.598 255 356C251.379 350.857 247.578 345.737 245 340C242.579 334.612 240 330 240 323C240 313 244 305 253 305C260 305 264 315 265 319C266 320 266 319 266 318C265 310 265 308 264 302C263 296 260 285 260 285C265 287 275 287 280 285C280 285 277 296 276 302C275 308 275 310 274 318C274 319 274 320 275 319Z" fill="black"/>
<path d="M95 439C96 435 100 425 107 425C116 425 120 433 120 443C120 450 117.421 454.612 115 460C112.422 465.737 108.621 470.857 105 476C100.355 482.598 90 495 90 495C90 495 79.6453 482.598 75 476C71.3793 470.857 67.5779 465.737 65 460C62.5789 454.612 60 450 60 443C60 433 64 425 73 425C80 425 84 435 85 439C86 440 86 439 86 438C85 430 85 428 84 422C83 416 80 405 80 405C85 407 95 407 100 405C100 405 97 416 96 422C95 428 95 430 94 438C94 439 94 440 95 439Z" fill="black"/>
<path d="M275 439C276 435 280 425 287 425C296 425 300 433 300 443C300 450 297.421 454.612 295 460C292.422 465.737 288.621 470.857 285 476C280.355 482.598 270 495 270 495C270 495 259.645 482.598 255 476C251.379 470.857 247.578 465.737 245 460C242.579 454.612 240 450 240 443C240 433 244 425 253 425C260 425 264 435 265 439C266 440 266 439 266 438C265 430 265 428 264 422C263 416 260 405 260 405C265 407 275 407 280 405C280 405 277 416 276 422C275 428 275 430 274 438C274 439 274 440 275 439Z" fill="black"/>
</svg>
